<svg width="4077" height="1000" viewBox="0 0 4077 1000" xmlns="http://www.w3.org/2000/svg"><svg width="16" height="19" viewBox="0 0 16 19" fill="none" xmlns="http://www.w3.org/2000/svg"><path d="M7.96 4.3846c.8576 0 1.9326-.5798 2.5727-1.3528.5798-.7006 1.0026-1.679 1.0026-2.6574 0-.1328-.0121-.2657-.0363-.3744-.9542.0362-2.1017.6402-2.7902 1.4495-.5435.616-1.0387 1.5823-1.0387 2.5727 0 .145.0241.29.0362.3383.0604.012.157.0241.2537.0241zM4.9402 19c1.1717 0 1.691-.7851 3.1526-.7851 1.4857 0 1.8118.7609 3.1164.7609 1.2803 0 2.1379-1.1837 2.9472-2.3433.9059-1.3286 1.2803-2.6331 1.3045-2.6935-.0845-.0242-2.5366-1.0267-2.5366-3.8411 0-2.44 1.9327-3.5391 2.0414-3.6236-1.2804-1.836-3.2251-1.8843-3.7565-1.8843-1.4374 0-2.609.8696-3.3459.8696-.7972 0-1.848-.8213-3.0922-.8213C2.4037 4.6383 0 6.595 0 10.2912c0 2.2949.8938 4.7228 1.993 6.293C2.9352 17.9129 3.7565 19 4.9402 19z" fill="#000"/></svg><svg width="11" height="10" viewBox="0 0 11 10" fill="none" xmlns="http://www.w3.org/2000/svg" x="36"><path fill-rule="evenodd" clip-rule="evenodd" d="M5.5.207a.707.707 0 011 0l3.9697 3.9698a.75.75 0 010 1.0606L6.5 9.2071a.707.707 0 01-1.1533-.2294.7072.7072 0 01.1533-.7706l2.75-2.75H.75a.75.75 0 110-1.5h7.5L5.5 1.207a.707.707 0 010-1z" fill="#fff"/></svg><svg width="8" height="8" viewBox="0 0 8 8" fill="none" xmlns="http://www.w3.org/2000/svg" x="67"><path fill-rule="evenodd" clip-rule="evenodd" d="M3 0v1h3.3L0 7.3l.7.7L7 1.7V5h1V0H3z" fill="#00D36E"/></svg><svg width="15" height="15" viewBox="0 0 15 15" fill="none" xmlns="http://www.w3.org/2000/svg" x="95"><path d="M5 1c0-.5523.4477-1 1-1h9v2H6c-.5523 0-1-.4477-1-1z" fill="#959DAE"/><path d="M13 0h2v9c0 .5523-.4477 1-1 1s-1-.4477-1-1V0z" fill="#959DAE"/><rect x="13.1758" y=".4241" width="2" height="17.7257" rx="1" transform="rotate(45 13.176 .424)" fill="#959DAE"/></svg><svg width="13" height="13" viewBox="0 0 13 13" fill="none" xmlns="http://www.w3.org/2000/svg" x="130"><path fill-rule="evenodd" clip-rule="evenodd" d="M4.875 0v1.625h5.3625L0 11.8625 1.1375 13 11.375 2.7625V8.125H13V0H4.875z" fill="#fff"/></svg><svg width="9" height="9" viewBox="0 0 9 9" fill="none" xmlns="http://www.w3.org/2000/svg" x="163"><path fill-rule="evenodd" clip-rule="evenodd" d="M3.375 0v1.125h3.7125L0 8.2125.7875 9 7.875 1.9125V5.625H9V0H3.375z" fill="#fff"/></svg><svg width="15" height="15" viewBox="0 0 15 15" fill="none" xmlns="http://www.w3.org/2000/svg" x="192"><path d="M5 14c0 .5523.4477 1 1 1h9v-2H6c-.5523 0-1 .4477-1 1z" fill="#959DAE"/><path d="M13 15h2V6c0-.5523-.4477-1-1-1s-1 .4477-1 1v9z" fill="#959DAE"/><rect width="2" height="18.2845" rx="1" transform="scale(1 -1) rotate(45 24.81 8.863)" fill="#959DAE"/></svg><svg width="13" height="13" viewBox="0 0 13 13" fill="none" xmlns="http://www.w3.org/2000/svg" x="227"><path fill-rule="evenodd" clip-rule="evenodd" d="M4.875 13v-1.625h5.3625L0 1.1375 1.1375 0 11.375 10.2375V4.875H13V13H4.875z" fill="#fff"/></svg><svg width="8" height="8" viewBox="0 0 8 8" fill="none" xmlns="http://www.w3.org/2000/svg" x="260"><path fill-rule="evenodd" clip-rule="evenodd" d="M3 8V7h3.3L0 .7.7 0 7 6.3V3h1v5H3z" fill="#FF5050"/></svg><svg width="9" height="9" viewBox="0 0 9 9" fill="none" xmlns="http://www.w3.org/2000/svg" x="288"><path fill-rule="evenodd" clip-rule="evenodd" d="M3.375 9V7.875h3.7125L0 .7875.7875 0 7.875 7.0875V3.375H9V9H3.375z" fill="#fff"/></svg><svg width="44" height="44" viewBox="0 0 44 44" fill="none" xmlns="http://www.w3.org/2000/svg" x="317"><path d="M32.9409 12.435l-2.1213-2.1213c-1.5621-1.562-4.0948-1.562-5.6569 0L10.3135 25.163c-1.5621 1.5621-1.5621 4.0947 0 5.6568l2.1213 2.1213c1.5621 1.5621 4.0948 1.5621 5.6569 0l14.8492-14.8492c1.5621-1.5621 1.5621-4.0948 0-5.6569z" stroke="#fff" stroke-width="3"/><path fill-rule="evenodd" clip-rule="evenodd" d="M29.7944 25.2236h7.0001v2h-7.0001v-2zm-1.0961 2.0607l4.9497 4.9497-1.4142 1.4142-4.9498-4.9497 1.4143-1.4142zm-3.8285 2.4142v7h2.0001l-.0001-7h-2zM18.031 13.4602v-7h-2v7h2zm-2.0607 1.0962l-4.9497-4.9498-1.4142 1.4143 4.9497 4.9497 1.4142-1.4142zm-2.4142 3.8284h-7v-2h7v2z" fill="#fff"/><path fill-rule="evenodd" clip-rule="evenodd" d="M18.799 14.5563l9.8995 9.8995-4.2427 4.2427-9.8995-9.8995 4.2427-4.2427z" fill="#F37070"/></svg><svg width="16" height="18" viewBox="0 0 16 18" fill="none" xmlns="http://www.w3.org/2000/svg" x="381"><path d="M.612 1.8806s-.5374.2406-.5374.5373V17.194s.2406.5373.5373.5373H15.388s.5373-.2405.5373-.5373V2.418s-.2406-.5374-.5373-.5374H.6119z" fill="#fff"/><path fill-rule="evenodd" clip-rule="evenodd" d="M10.8682 12.2615c-.2407.3095-.5545.5645-.9414.7651-.387.2006-.8468.301-1.3798.301-.4643 0-.8941-.0789-1.2896-.2365-.3954-.1576-.7364-.3783-1.023-.662-.2866-.2837-.5115-.6232-.675-1.0187-.1632-.3955-.245-.8282-.245-1.2982 0-.4757.0832-.9098.2494-1.3024.1662-.3926.394-.7293.6835-1.0102.2894-.2808.6319-.4986 1.0273-.6533.3955-.1548.8225-.2322 1.281-.2322.4413 0 .864.0817 1.268.245.4041.1634.7236.3912.9586.6835l-.7737.7136c-.1318-.1949-.3238-.3554-.576-.4815-.2522-.126-.533-.189-.8425-.189-.321 0-.6104.0587-.8683.1762-.258.1174-.4786.2765-.662.477-.1834.2007-.3253.4357-.4256.705-.1002.2694-.1504.5588-.1504.8683 0 .3153.0502.609.1504.8812.1003.2723.2408.5087.4213.7093.1805.2006.3998.3582.6577.4728.2579.1146.5473.172.8683.172.3152 0 .6046-.0645.8683-.1935a1.6538 1.6538 0 00.6447-.5545l.7738.662z" fill="#242526"/><path d="M4.373.5373a.5373.5373 0 00-1.0745 0v2.6866a.5373.5373 0 001.0746 0V.5373zm8.3285 0a.5373.5373 0 00-1.0746 0v2.6866a.5373.5373 0 101.0746 0V.5373z" fill="#fff"/></svg><svg width="18" height="14" viewBox="0 0 18 14" fill="none" xmlns="http://www.w3.org/2000/svg" x="417"><path fill-rule="evenodd" clip-rule="evenodd" d="M16 2H2v10h14V2zM2 0C.895 0 0 .895 0 2v10c0 1.105.895 2 2 2h14c1.105 0 2-.895 2-2V2c0-1.105-.895-2-2-2H2z" fill="#101A31"/><path d="M1 4h16v2H1V4z" fill="#101A31"/></svg><svg width="16" height="16" viewBox="0 0 16 16" fill="none" xmlns="http://www.w3.org/2000/svg" x="455"><path fill-rule="evenodd" clip-rule="evenodd" d="M14.6247 4.7192c.4313.345.5012.9743.1562 1.4055l-4 5a1.0001 1.0001 0 01-1.5617 0L6 7.1008l-3.219 4.0239c-.3451.4313-.9744.5012-1.4057.1562-.4312-.345-.5011-.9743-.1561-1.4056l4-5a1 1 0 011.5617 0L10 8.8993l3.2192-4.024c.345-.4312.9743-.5011 1.4055-.1561z" fill="#959DAE"/></svg><svg width="16" height="16" viewBox="0 0 16 16" fill="none" xmlns="http://www.w3.org/2000/svg" x="491"><path fill-rule="evenodd" clip-rule="evenodd" d="M8 15c3.866 0 7-3.134 7-7s-3.134-7-7-7-7 3.134-7 7 3.134 7 7 7zm3.7592-8.3492c.3595-.4193.3109-1.0506-.1084-1.41-.4193-.3595-1.0506-.311-1.4101.1084l-2.808 3.276-1.8188-1.4145c-.436-.3391-1.0642-.2606-1.4033.1754-.339.436-.2605 1.0642.1754 1.4033l3.3241 2.5854 4.0491-4.724z" fill="#959DAE"/></svg><svg width="16" height="16" viewBox="0 0 16 16" fill="none" xmlns="http://www.w3.org/2000/svg" x="527"><path fill-rule="evenodd" clip-rule="evenodd" d="M8 15c3.866 0 7-3.134 7-7s-3.134-7-7-7-7 3.134-7 7 3.134 7 7 7zm3.7592-8.3492c.3595-.4193.3109-1.0506-.1084-1.41-.4193-.3595-1.0506-.311-1.4101.1084l-2.808 3.276-1.8188-1.4145c-.436-.3391-1.0642-.2606-1.4033.1754-.339.436-.2605 1.0642.1754 1.4033l3.3241 2.5854 4.0491-4.724z" fill="#13DA5A"/></svg><svg width="16" height="16" viewBox="0 0 16 16" fill="none" xmlns="http://www.w3.org/2000/svg" x="563"><path fill-rule="evenodd" clip-rule="evenodd" d="M8 15c3.866 0 7-3.134 7-7s-3.134-7-7-7-7 3.134-7 7 3.134 7 7 7zm3.7592-8.3492c.3595-.4193.3109-1.0506-.1084-1.41-.4193-.3595-1.0506-.311-1.4101.1084l-2.808 3.276-1.8188-1.4145c-.436-.3391-1.0642-.2606-1.4033.1754-.339.436-.2605 1.0642.1754 1.4033l3.3241 2.5854 4.0491-4.724z" fill="#FF5050"/></svg><svg width="17" height="13" viewBox="0 0 17 13" fill="none" xmlns="http://www.w3.org/2000/svg" x="599"><path fill-rule="evenodd" clip-rule="evenodd" d="M1.593 6.2586L0 7.8517l5.1207 5.1207L16.5 1.5931 14.9069 0 5.1207 9.7862 1.5931 6.2586z" fill="#00D664"/></svg><svg xmlns="http://www.w3.org/2000/svg" width="16" height="16" viewBox="0 0 16 16" fill="none" x="636"><path fill-rule="evenodd" clip-rule="evenodd" d="M.2929 7.2929c.3905-.3905 1.0237-.3905 1.4142 0l4.2547 4.2547 8.2949-9.2166c.3695-.4105 1.0018-.4437 1.4123-.0743.4105.3695.4438 1.0018.0743 1.4123L6.0382 14.4524.2929 8.7071c-.3905-.3905-.3905-1.0237 0-1.4142z" fill="#fff"/></svg><svg width="22" height="22" viewBox="0 0 22 22" fill="none" xmlns="http://www.w3.org/2000/svg" x="672"><path fill-rule="evenodd" clip-rule="evenodd" d="M11.3696.4055a.4999.4999 0 00-.7392 0L8.9383 2.2628a.5.5 0 01-.5213.1397L6.023 1.64a.5.5 0 00-.6402.3695L4.846 4.4642a.5.5 0 01-.3817.3816l-2.4544.5368a.4998.4998 0 00-.3696.6402l.7623 2.394a.5.5 0 01-.1397.5214l-1.8572 1.692a.5003.5003 0 000 .7392l1.8572 1.6922a.4999.4999 0 01.1397.5213l-.7623 2.3941a.4999.4999 0 00.3696.6401l2.4544.5368a.4994.4994 0 01.3817.3817l.5368 2.4544a.499.499 0 00.2384.3261.5.5 0 00.4017.0435l2.394-.7623a.5004.5004 0 01.5214.1396l1.6921 1.8573a.5001.5001 0 00.7392 0l1.6921-1.8573a.5003.5003 0 01.5214-.1396l2.394.7623a.4997.4997 0 00.4017-.0434.5.5 0 00.2385-.3262l.5368-2.4544a.4995.4995 0 01.3816-.3817l2.4545-.5368a.4997.4997 0 00.3696-.6401l-.7624-2.3941a.5007.5007 0 01.1397-.5213l1.8573-1.6922a.4997.4997 0 000-.7392l-1.8573-1.692a.4998.4998 0 01-.1397-.5214l.7624-2.394a.4998.4998 0 00-.3696-.6402l-2.4545-.5368a.5.5 0 01-.3816-.3816l-.5368-2.4546a.5001.5001 0 00-.6402-.3696l-2.394.7625a.5002.5002 0 01-.5214-.1397L11.3696.4056V.4055zm4.3376 8.3015c.3905-.3905.3905-1.0237 0-1.4142-.3906-.3906-1.0237-.3906-1.4143 0L9.9387 11.647 7.6402 9.7317c-.4242-.3536-1.0548-.2963-1.4084.128-.3535.4243-.2962 1.0548.128 1.4084l3.7016 3.0846 5.6458-5.6457z" fill="#00D36E"/></svg><svg width="22" height="18" viewBox="0 0 22 18" fill="none" xmlns="http://www.w3.org/2000/svg" x="714"><path fill-rule="evenodd" clip-rule="evenodd" d="M20 2H2v11h18V2zM2 0C.8954 0 0 .8954 0 2v11c0 1.1046.8954 2 2 2h18c1.1046 0 2-.8954 2-2V2c0-1.1046-.8954-2-2-2H2zm3 16h12v2H5v-2z" fill="#00D664"/></svg><svg width="12" height="13" viewBox="0 0 12 13" fill="none" xmlns="http://www.w3.org/2000/svg" x="756"><path fill-rule="evenodd" clip-rule="evenodd" d="M11 4H4v8h7V4zM3 3v10h9V3H3z" fill="#00D36E"/><path d="M0 0h8v1H0V0z" fill="#00D36E"/><path d="M0 0h1v10H0V0z" fill="#00D36E"/></svg><svg width="18" height="18" viewBox="0 0 18 18" fill="none" xmlns="http://www.w3.org/2000/svg" x="788"><path fill-rule="evenodd" clip-rule="evenodd" d="M6 6v10h10V6H6zM5 4c-.5523 0-1 .4477-1 1v12c0 .5523.4477 1 1 1h12c.5523 0 1-.4477 1-1V5c0-.5523-.4477-1-1-1H5z" fill="#00D36E"/><path fill-rule="evenodd" clip-rule="evenodd" d="M2 13V2h10v3h2V1c0-.5523-.4477-1-1-1H1C.4477 0 0 .4477 0 1v13c0 .5523.4477 1 1 1h4v-2H2z" fill="#00D36E"/></svg><svg width="8" height="12" viewBox="0 0 8 12" fill="none" xmlns="http://www.w3.org/2000/svg" x="826"><path fill-rule="evenodd" clip-rule="evenodd" d="M1.4 0L0 1.4 4.6 6 0 10.6 1.4 12l6-6-6-6z" fill="#909294"/></svg><svg width="10" height="17" viewBox="0 0 10 17" fill="none" xmlns="http://www.w3.org/2000/svg" x="854"><path fill-rule="evenodd" clip-rule="evenodd" d="M2.9348 8.492l7.0396 7.0443-1.4408 1.4428L.048 8.4926 8.5336.0025l1.4408 1.4414L2.9348 8.492z" fill="#F0F2F4"/></svg><svg width="16" height="16" viewBox="0 0 16 16" fill="none" xmlns="http://www.w3.org/2000/svg" x="884"><path fill-rule="evenodd" clip-rule="evenodd" d="M4.2929 1.2929c.3905-.3905 1.0237-.3905 1.4142 0l6 6c.3905.3905.3905 1.0237 0 1.4142l-6 6c-.3905.3905-1.0237.3905-1.4142 0-.3905-.3905-.3905-1.0237 0-1.4142L9.5858 8l-5.293-5.2929c-.3904-.3905-.3904-1.0237 0-1.4142z" fill="#959DAE"/></svg><svg width="12" height="12" viewBox="0 0 12 12" fill="none" xmlns="http://www.w3.org/2000/svg" x="920"><path fill-rule="evenodd" clip-rule="evenodd" d="M6 0C2.7 0 0 2.7 0 6s2.7 6 6 6 6-2.7 6-6-2.7-6-6-6zm3 8.16L8.16 9 6 6.84 3.84 9 3 8.16 5.16 6 3 3.84 3.84 3 6 5.16 8.16 3l.84.84L6.84 6 9 8.16z" fill="#A7A9AC"/></svg><svg width="16" height="16" viewBox="0 0 16 16" fill="none" xmlns="http://www.w3.org/2000/svg" x="952"><path fill-rule="evenodd" d="M15 8A7 7 0 111 8a7 7 0 0114 0zm-3.793-3.207a1 1 0 010 1.414L9.414 8l1.793 1.793a1 1 0 01-1.414 1.414L8 9.414l-1.793 1.793a1 1 0 01-1.414-1.414L6.586 8 4.793 6.207a1 1 0 011.414-1.414L8 6.586l1.793-1.793a1 1 0 011.414 0z" fill="#FF5050"/></svg><svg width="22" height="22" viewBox="0 0 22 22" fill="none" xmlns="http://www.w3.org/2000/svg" x="988"><path fill-rule="evenodd" clip-rule="evenodd" d="M11.3696.4055a.4999.4999 0 00-.7392 0L8.9383 2.2628a.5.5 0 01-.5213.1397L6.023 1.64a.5.5 0 00-.6402.3695L4.846 4.4642a.5.5 0 01-.3817.3816l-2.4544.5368a.4998.4998 0 00-.3696.6402l.7623 2.394a.5.5 0 01-.1397.5214l-1.8572 1.692a.5003.5003 0 000 .7392l1.8572 1.6922a.4999.4999 0 01.1397.5213l-.7623 2.3941a.4999.4999 0 00.3696.6401l2.4544.5368a.4994.4994 0 01.3817.3817l.5368 2.4544a.499.499 0 00.2384.3261.5.5 0 00.4017.0435l2.394-.7623a.5004.5004 0 01.5214.1396l1.6921 1.8573a.5001.5001 0 00.7392 0l1.6921-1.8573a.5003.5003 0 01.5214-.1396l2.394.7623a.5.5 0 00.6402-.3696l.5368-2.4544a.4995.4995 0 01.3816-.3817l2.4545-.5368a.4992.4992 0 00.3261-.2385.5001.5001 0 00.0435-.4016l-.7624-2.3941a.5007.5007 0 01.1397-.5213l1.8573-1.6922a.4997.4997 0 000-.7392l-1.8573-1.692a.4998.4998 0 01-.1397-.5214l.7624-2.394a.4998.4998 0 00-.3696-.6402l-2.4545-.5368a.5.5 0 01-.3816-.3816l-.5368-2.4546a.4998.4998 0 00-.6402-.3695l-2.394.7624a.5002.5002 0 01-.5214-.1397L11.3696.4056V.4055zm3.3375 6.8873c.3905.3905.3905 1.0237 0 1.4142l-2.2929 2.2929 2.2929 2.2929c.3905.3905.3905 1.0237 0 1.4142-.3905.3905-1.0237.3905-1.4142 0l-2.293-2.2929-2.2928 2.2929c-.3905.3905-1.0237.3905-1.4142 0-.3905-.3905-.3905-1.0237 0-1.4142l2.2929-2.2929-2.293-2.293c-.3904-.3904-.3904-1.0236 0-1.4141.3906-.3906 1.0238-.3906 1.4143 0L11 9.5856l2.2929-2.293c.3905-.3904 1.0237-.3904 1.4142 0v.0002z" fill="#959DAE"/></svg><svg width="22" height="16" viewBox="0 0 22 16" fill="none" xmlns="http://www.w3.org/2000/svg" x="1030"><path d="M19 0H9C7.3432 0 6 1.3432 6 3v10c0 1.6569 1.3432 3 3 3h10c1.6569 0 3-1.3431 3-3V3c0-1.6568-1.3431-3-3-3z" fill="#fff"/><path fill-rule="evenodd" clip-rule="evenodd" d="M6.9348.8157l-6.054 5.947C.2923 7.341.2822 8.2941.8503 8.8831l6.0846 6.3076V.8157z" fill="#fff"/><path d="M16.75 4.75l-6.5048 6.5048M10.25 4.75l6.5048 6.5048L10.25 4.75z" stroke="#545457" stroke-linecap="square"/></svg><svg width="20" height="4" viewBox="0 0 20 4" fill="none" xmlns="http://www.w3.org/2000/svg" x="1072"><path fill-rule="evenodd" clip-rule="evenodd" d="M2 0c1.1046 0 2 .8954 2 2s-.8954 2-2 2-2-.8954-2-2 .8954-2 2-2zm8 0c1.1046 0 2 .8954 2 2s-.8954 2-2 2-2-.8954-2-2 .8954-2 2-2zm8 0c1.1046 0 2 .8954 2 2s-.8954 2-2 2-2-.8954-2-2 .8954-2 2-2z" fill="#fff"/></svg><svg width="34" height="24" viewBox="0 0 34 24" xmlns="http://www.w3.org/2000/svg" x="1112"><g transform="translate(1 1)" stroke="#00D36E" stroke-width="2" fill="none" fill-rule="evenodd"><rect width="32" height="22" rx="1.1"/><path d="M1 1l15 10L31 1"/></g></svg><svg width="19" height="14" viewBox="0 0 19 14" fill="none" xmlns="http://www.w3.org/2000/svg" x="1166"><path fill-rule="evenodd" clip-rule="evenodd" d="M11.5424 7.449l6.3236 5.6397c-.2686.2549-.6339.4113-1.0414.4113H1.8321c-.4036 0-.77-.1564-1.04-.4123L7.1144 7.45l2.214 2.05 2.214-2.051zM.4894 1.315l5.737 5.313-5.898 5.2447V1.9913c0-.2435.0578-.4733.161-.6763zm17.839.6763v9.8814l-5.899-5.2447 5.7379-5.3112a1.48 1.48 0 01.1611.6745zM16.8246.5c.129 0 .2542.016.3736.046L9.3284 7.8333 1.4574.5457A1.5432 1.5432 0 011.8321.5h14.9925z" fill="#fff"/></svg><svg width="32" height="31" viewBox="0 0 32 31" fill="none" xmlns="http://www.w3.org/2000/svg" x="1205"><path fill-rule="evenodd" clip-rule="evenodd" d="M21.61 0c-5.1777 0-9.3901 4.3465-9.3901 9.6885 0 .7509.083 1.482.2404 2.1847a9.0835 9.0835 0 00-2.1165-.2492c-4.2345 0-7.9625 2.9417-9.066 7.1543-.0659.2532.0787.5134.324.5814.245.0685.4973-.0812.5637-.3338.9953-3.7996 4.3584-6.4536 8.1783-6.4536.8404 0 1.6523.1279 2.4195.3643.9456 2.7336 3.0493 4.904 5.6994 5.8797a8.9745 8.9745 0 01.3521 2.4957c0 4.8189-3.8003 8.7398-8.471 8.7398-2.111 0-4.1337-.8062-5.6945-2.2695-1.5505-1.4535-2.5212-3.4327-2.7327-5.5733-.0255-.2602-.2513-.45-.5035-.4236-.2528.0269-.4367.2592-.4106.52.234 2.3734 1.31 4.5678 3.0287 6.1791C5.7617 30.1065 8.0036 31 10.3438 31c5.1777 0 9.3901-4.346 9.3901-9.688a9.9748 9.9748 0 00-.241-2.1836 9.114 9.114 0 002.117.248c2.6506 0 5.191-1.1643 6.9692-3.1948.1701-.1943.1554-.4941-.033-.6697a.4497.4497 0 00-.649.034c-1.6047 1.8316-3.8962 2.8823-6.2872 2.8823-4.6711 0-8.471-3.9208-8.471-8.7397 0-4.8194 3.7999-8.7397 8.471-8.7397 4.6707 0 8.471 3.9203 8.471 8.7397 0 1.0406-.1755 2.0583-.5213 3.0254-.088.2455.034.5185.272.6093.2385.0903.5026-.035.5906-.281.3836-1.0726.5778-2.201.5778-3.3537C31 4.3465 26.7876 0 21.61 0z" fill="#00D664"/><path fill-rule="evenodd" clip-rule="evenodd" d="M12.9762 23.104c-.344-.202-.7338-.2635-1.1192-.2775-.321-.0095-.8025-.2255-.8025-.827 0-.4465.3532-.8085.8069-.827.3854-.0145.7752-.0755 1.1192-.2775.9767-.578 1.307-1.8565.7474-2.8526-.5689-.9965-1.8159-1.3395-2.7926-.7615-.6327.3715-1.0181 1.062-1.0181 1.8096 0 .404.142.7755.321 1.123.1512.2915.2249.832-.2888 1.1375-.3855.2255-.867.0845-1.105-.31-.202-.334-.445-.644-.789-.846-.9767-.5785-2.224-.235-2.7837.761-.559.9965-.2293 2.275.748 2.853.6326.371 1.4074.371 2.0358 0 .344-.202.587-.5125.7888-.846.165-.2725.582-.6205 1.105-.31.385.2255.5045.7235.2889 1.137-.179.343-.321.719-.321 1.1235 0 1.1515.9128 2.0865 2.0358 2.0865 1.1236 0 2.0364-.935 2.0364-2.0865.0044-.7475-.3854-1.4385-1.0133-1.8095zm19.0033-.7187l-.9637-3.0592c-.0466-.1478-.168-.2637-.3226-.3074-.1552-.0437-.3226-.0099-.4455.0903l-2.5926 2.1127c-.2012.164-.2258.4537-.0548.6471.1716.193.4732.2166.675.052l1.3282-1.0825a12.7996 12.7996 0 01-2.1 4.376c-1.2305 1.6561-2.8138 2.9788-4.7054 3.9303-.786.3957-1.612.7173-2.4548.9564-.2535.0717-.3984.327-.3236.57.0614.1999.2524.329.4588.329a.5056.5056 0 00.1362-.0191c.9028-.2558 1.7871-.6 2.628-1.0232 2.0262-1.0198 3.7216-2.4364 5.0402-4.2107a13.7008 13.7008 0 002.2628-4.7384l.5172 1.6424c.0625.1983.2525.326.4583.326a.5019.5019 0 00.1383-.0197c.253-.0731.3963-.3294.32-.572zM11.9803.3289c-.0752-.243-.3415-.382-.595-.3098-.9028.2558-1.7871.6-2.628 1.0232-2.0262 1.0198-3.722 2.4362-5.0402 4.2106a13.6982 13.6982 0 00-2.2628 4.7385L.9371 8.349c-.0768-.2426-.3436-.38-.5966-.3064-.253.0731-.3963.3294-.32.572l.9637 3.0588c.0466.1483.168.2641.3226.3078A.5103.5103 0 001.4425 12a.4894.4894 0 00.3098-.1095L4.345 9.7783c.2012-.164.2258-.4537.0548-.647-.1716-.193-.4737-.2166-.675-.0526l-1.3282 1.0826a12.8018 12.8018 0 012.1-4.3756C5.727 4.1296 7.3103 2.8069 9.202 1.8553a13.9193 13.9193 0 012.4548-.9564c.2535-.0717.3984-.327.3236-.57z" fill="#00D664"/><path d="M24 5.3335h-.6665V4H22v1.3335h-.6665V4H20v1.3335h-2v1.333h1.3335v6.667H18v1.333h2V16h1.3335v-1.3335H22V16h1.3335v-1.3335H24c1.1045 0 2-.895 2-2v-1.333A1.9863 1.9863 0 0025.48 10 1.9854 1.9854 0 0026 8.6665v-1.333c0-1.105-.8955-2-2-2zm.6665 7.333a.667.667 0 01-.6665.667h-3.3335v-2.667H24c.368 0 .6665.2985.6665.667v1.333zm0-4a.667.667 0 01-.6665.667h-3.3335v-2.667H24c.368 0 .6665.2985.6665.667v1.333z" fill="#00D664"/></svg><svg width="4" height="26" viewBox="0 0 4 26" fill="none" xmlns="http://www.w3.org/2000/svg" x="1257"><path fill-rule="evenodd" clip-rule="evenodd" d="M3.287 18.3691H.3517L.123 0h3.4102L3.287 18.3691zM0 23.959c0-.5274.161-.9697.4834-1.3272.3223-.3574.7998-.5361 1.4326-.5361.6328 0 1.1133.1787 1.4414.5361.328.3575.4922.7998.4922 1.3272 0 .5273-.164.9638-.4922 1.3096-.3281.3457-.8086.5185-1.4414.5185s-1.1103-.1728-1.4326-.5185C.161 24.9228 0 24.4863 0 23.959z" fill="#fff"/></svg><svg width="24" height="24" viewBox="0 0 24 24" fill="none" xmlns="http://www.w3.org/2000/svg" x="1281"><path d="M1.181 12C2.121 6.88 6.608 3 12 3c5.392 0 9.878 3.88 10.819 9-.94 5.12-5.427 9-10.819 9-5.392 0-9.878-3.88-10.819-9zM12 17a5.0001 5.0001 0 100-10.0002A5.0001 5.0001 0 0012 17zm0-2a3 3 0 11.0001-6A3 3 0 0112 15z" fill="#13DA5A"/></svg><svg width="16" height="16" viewBox="0 0 16 16" fill="none" xmlns="http://www.w3.org/2000/svg" x="1325"><path d="M15.894 7.6415c-.645-1.3451-1.4127-2.4421-2.3029-3.291l-.9336.924c.7613.7202 1.4245 1.6623 1.9979 2.8356-1.5267 3.1276-3.6938 4.6134-6.6554 4.6134-.889 0-1.7078-.1355-2.4565-.4065L4.532 13.3183c1.0398.4752 2.1959.7129 3.468.7129 3.5269 0 6.1582-1.8181 7.8941-5.4543a1.0856 1.0856 0 000-.9354zm-1.1665-5.8237l-.7822-.7752a.1478.1478 0 00-.2077 0l-2.0069 1.9856C10.6242 2.4688 9.3807 2.189 8 2.189c-3.5268 0-6.1582 1.8181-7.894 5.4543a1.0859 1.0859 0 000 .9354c.6935 1.4458 1.5284 2.6046 2.5047 3.4765L.6689 13.9767a.1445.1445 0 000 .2054l.7834.7754a.1476.1476 0 00.2075 0L14.7275 2.0234a.1447.1447 0 00.0319-.1584.1448.1448 0 00-.0319-.0472zM1.3445 8.1101C2.8732 4.9825 5.0403 3.4968 8 3.4968c1.0008 0 1.9107.17 2.7363.5156l-1.29 1.2768a3.2583 3.2583 0 00-1.9953-.3415 3.2417 3.2417 0 00-1.8086.9015 3.185 3.185 0 00-.9108 1.7901 3.1685 3.1685 0 00.3451 1.975L3.546 11.1296c-.8472-.7401-1.5775-1.743-2.2014-3.0194zm4.527 0a2.018 2.018 0 01.2236-.9214 2.0418 2.0418 0 01.6208-.7214 2.0675 2.0675 0 01.8835-.3651 2.0773 2.0773 0 01.9547.0701L5.969 8.7313a2.0153 2.0153 0 01-.0975-.6212z" fill="#959DAE"/><path d="M8.0553 9.9292c-.058 0-.115-.0026-.1715-.0078L7 10.805a2.9465 2.9465 0 003.1371-.668A2.9465 2.9465 0 0010.8051 7l-.8837.8838a1.873 1.873 0 01-1.866 2.0455z" fill="#959DAE"/></svg><svg width="16" height="16" viewBox="0 0 16 16" fill="none" xmlns="http://www.w3.org/2000/svg" x="1361"><path d="M15.894 7.5252C14.1545 3.8497 11.525 2 8 2 4.4732 2 1.8455 3.8497.106 7.527a1.1126 1.1126 0 000 .9478C1.8455 12.1503 4.475 14 8 14c3.5268 0 6.1545-1.8497 7.894-5.527.1413-.2982.1413-.6442 0-.9479zM8 12.6747c-2.9598 0-5.127-1.5055-6.6554-4.6748C2.873 4.8307 5.0402 3.3251 8 3.3251S13.1269 4.8308 14.6554 8C13.1287 11.1693 10.9616 12.6748 8 12.6748zm-.0734-7.914C6.143 4.7607 4.6971 6.211 4.6971 8s1.446 3.2393 3.2295 3.2393c1.7836 0 3.2295-1.4503 3.2295-3.2393 0-1.789-1.446-3.2393-3.2295-3.2393zm0 5.3005c-1.1358 0-2.0552-.922-2.0552-2.0613s.9193-2.0614 2.0552-2.0614c1.1358 0 2.0552.9221 2.0552 2.0614s-.9194 2.0613-2.0552 2.0613z" fill="#959DAE"/></svg><svg width="48" height="48" viewBox="0 0 48 48" fill="none" xmlns="http://www.w3.org/2000/svg" x="1397"><path d="M38.0474 18.8794c.6054 0 .9384-.3482.9384-.9536v-3.8902c0-2.9062-1.5136-4.4199-4.4653-4.4199h-3.8901c-.6055 0-.9536.333-.9536.9385 0 .5903.3481.9385.9536.9385h3.8447c1.6802 0 2.6338.893 2.6338 2.6489v3.7842c0 .6054.333.9536.9385.9536zm-27.0948 0c.6055 0 .9385-.3482.9385-.9536v-3.7842c0-1.7559.9234-2.6489 2.6187-2.6489h3.8447c.6206 0 .9536-.3482.9536-.9385 0-.6055-.333-.9385-.9536-.9385h-3.875c-2.9517 0-4.4653 1.4986-4.4653 4.4199v3.8902c0 .6054.333.9536.9384.9536zm12.3213 7.5532h.1363c1.3925 0 2.1342-.7417 2.1342-2.1343v-4.7226c0-.4844-.2876-.772-.7719-.772-.4996 0-.7871.2876-.7871.772v4.8437c0 .2725-.1968.4239-.4239.4239h-.5146c-.439 0-.772.333-.772.7568 0 .5298.3481.8325.999.8325zm-4.4048-3.5268c.6055 0 1.0142-.4087 1.0142-1.0293V19.833c0-.6055-.4087-1.0142-1.0142-1.0142-.5903 0-.999.4239-.999 1.0142v2.0435c0 .6206.4087 1.0293.999 1.0293zm11.1709 0c.5752 0 .9991-.4087.9991-1.0293V19.833c0-.5903-.4239-1.0142-.9991-1.0142-.6054 0-1.0293.4087-1.0293 1.0142v2.0435c0 .6206.4239 1.0293 1.0293 1.0293zm-5.646 8.416c1.7559 0 3.5269-.7417 4.7984-2.0283.1362-.1363.2422-.3331.2422-.5904 0-.4541-.3482-.7719-.7871-.7719-.2271 0-.4087.0756-.6661.3481-.8476.8779-2.2099 1.4834-3.5874 1.4834-1.3471 0-2.6943-.5903-3.6025-1.4834-.2119-.2119-.3784-.3481-.666-.3481-.439 0-.7871.3178-.7871.7719 0 .2271.1059.4239.2573.5904 1.2109 1.3169 3.0273 2.0283 4.7983 2.0283zm-9.9145 7.2656h3.875c.6206 0 .9536-.3481.9536-.9385 0-.6054-.333-.9385-.9536-.9385h-3.8447c-1.6953 0-2.6187-.9082-2.6187-2.6489v-3.7842c0-.6054-.333-.9536-.9385-.9536-.6206 0-.9384.3482-.9384.9536v3.875c0 2.9366 1.5136 4.4351 4.4653 4.4351zm16.1509 0h3.8901c2.9517 0 4.4653-1.5137 4.4653-4.4351v-3.875c0-.6054-.3481-.9536-.9384-.9536-.6206 0-.9385.3482-.9385.9536v3.7842c0 1.7407-.9536 2.6489-2.6338 2.6489h-3.8447c-.6055 0-.9536.3331-.9536.9385 0 .5904.3481.9385.9536.9385z" fill="#00D36E"/></svg><svg width="18" height="18" viewBox="0 0 18 18" fill="none" xmlns="http://www.w3.org/2000/svg" x="1465"><path d="M9 0C4.0294 0 0 3.731 0 8.3333c0 2.6225 1.3087 4.9618 3.354 6.4893V18l3.0645-1.6818A9.6685 9.6685 0 009 16.6667c4.9706 0 9-3.731 9-8.3334C18 3.731 13.9706 0 9 0zm.9474 11L7.5933 8.6596 3 11l5.0526-5 2.4115 2.3404L15 6l-5.0526 5z" fill="#fff"/></svg><svg width="48" height="48" viewBox="0 0 48 48" fill="none" xmlns="http://www.w3.org/2000/svg" x="1503"><path d="M14.3167 12.2377a.75.75 0 11-.7513-1.2983C16.594 9.1867 20.0329 8.25 23.5941 8.25c3.5802 0 7.0046.9467 9.9997 2.7205a.75.75 0 11-.7644 1.2906C30.0647 10.6237 26.9041 9.75 23.5941 9.75c-3.2955 0-6.4755.8662-9.2774 2.4877z" fill="#00D36E"/><path d="M11.1342 20.3906a.75.75 0 01-1.0346.2335.75.75 0 01-.2336-1.0346c3.0148-4.7727 8.0626-7.6759 13.7281-7.6759 5.7206 0 10.8258 2.9193 13.7138 7.6876a.75.75 0 01-.253 1.03.75.75 0 01-1.03-.253c-2.6181-4.3225-7.2385-6.9646-12.4308-6.9646-5.1402 0-9.7146 2.631-12.4599 6.977z" fill="#00D36E"/><path d="M21.1353 38.1324a.75.75 0 11-1.0762 1.0448c-3.1906-3.2864-5.0479-7.4171-5.0479-10.8556 0-5.1161 3.6231-9.0823 8.5818-9.0823 4.795 0 8.2781 3.6264 8.7976 8.7358a.75.75 0 11-1.4923.1517c-.4458-4.3852-3.3295-7.3875-7.3053-7.3875-4.0984 0-7.0818 3.2658-7.0818 7.5823 0 3.0266 1.6927 6.7913 4.6241 9.8108z" fill="#00D36E"/><path d="M22.6312 27.7324a.7499.7499 0 01.6198-.8607.7499.7499 0 01.8607.6197c.314 1.9291.8326 3.3369 1.6653 4.4804.7657 1.049 1.8921 1.9333 3.073 2.4045.768.3068 1.589.466 2.4323.466a6.5961 6.5961 0 001.7345-.2334.75.75 0 01.3938 1.4474 8.0987 8.0987 0 01-2.1283.286 8.0374 8.0374 0 01-2.9885-.573c-1.4454-.5766-2.798-1.6386-3.7289-2.9139-.9864-1.3545-1.5847-2.9787-1.9337-5.123z" fill="#00D36E"/><path d="M14.112 33.8724a.75.75 0 01-1.3242.7047c-.939-1.7646-1.4084-3.939-1.4084-6.2554 0-7.1406 5.2619-12.7584 12.2159-12.746 7.1607.0128 12.7188 6.1084 12.4742 12.7735-.0998 2.7189-2.0452 4.0719-4.5585 4.1115-2.287.0361-4.2437-1.6162-4.6416-4.0243-.4584-2.7742-1.6703-4.0119-3.5633-3.8832-1.9437.1322-2.9562 1.3377-2.9876 3.5083-.0424 2.9347 1.8863 6.4476 4.2505 8.3661 1.1469.9287 2.2795 1.3436 4.6084 1.8249a.75.75 0 01-.3036 1.469c-2.5451-.526-3.8693-1.0111-5.2494-2.1286-2.6982-2.1896-4.8553-6.1186-4.8057-9.5531.0421-2.9148 1.6214-4.7951 4.3856-4.9831 2.7572-.1875 4.5718 1.6657 5.1451 5.1352.2773 1.6785 1.5975 2.7933 3.138 2.7689 1.8008-.0283 3.0173-.8743 3.0831-2.6666.2141-5.8344-4.6849-11.2073-10.9779-11.2185-6.1011-.0109-10.7132 4.9132-10.7132 11.246 0 2.0847.4176 4.0192 1.2326 5.5507z" fill="#00D36E"/></svg><svg width="16" height="16" fill="none" xmlns="http://www.w3.org/2000/svg" x="1571"><path d="M10.4 7c0-2-3-1.8-2.3-5.4 0 0-2.1.8-1.7 3.4.1.9-.2 1.5-.2 1.5-.3.1-.8-.5-.6-1.5 0 0-1.1.9-1.1 2 0 1 .5 2 .5 2-1.3-.3-1.2-2-1.2-2S3 8.2 3 10.3c0 1.6 1.8 4.1 4.7 4.1 2.9 0 5.2-2.3 5.2-4.3 0-.8-.3-2-1-2.6 0 0 .2 1.8-.7 1.7 0 0 .7-2.3 0-3.3 0 0-.4 1-.8 1.1z" fill="url(#fire-sm_svg__paint0_linear_9204_55797)"/><path d="M10.4 5.4c.9-1.5-1.2-1.7-1.2-2.7 0 0-.4 1 .5 1.7.7.5.7 1 .7 1z" fill="url(#fire-sm_svg__paint1_linear_9204_55797)"/><path d="M6 2.5c-.3.3.1 1.6-.9 2.1 0 0-.3-1.4.9-2.1z" fill="url(#fire-sm_svg__paint2_linear_9204_55797)"/><path opacity=".5" d="M3.7 7.6C3.4 8.1 3 9 3 10.3c0 1.4 1.8 4 4.7 4 2.9 0 5-2.3 5-4.2 0-.6-.1-1.5-.5-2.1 0 .4-.2.9-.5 1.2l-.5.2H11V9s.6-1.8.2-2.8c-.1.4-.4.9-.7.9h-.2V7c0-.8-.5-1.2-1-1.7C8.4 4.7 7.5 4 7.8 2c-.6.3-1.6 1.2-1.4 3 .2 1-.1 1.7-.2 1.7v.1c-.2 0-.4 0-.5-.2-.3-.2-.4-.5-.4-1-.4.3-.8.8-.8 1.4 0 1 .5 2.1.5 2.2l.2.3-.4-.1c-.8-.2-1.2-1-1.2-1.7z" fill="url(#fire-sm_svg__paint3_linear_9204_55797)"/><path d="M7.8 4.9c-.7.8.6 3-.8 4-.7.4-1.1-.2-1.1-.2s.2 1 1 1.7c.8.8-1.2 1.9-2.8.5 0 0 .5 3.3 4.3 2.8 4.2-.6 3.8-3.7 3.8-3.7s-1 1.7-2.7.9c0 0 1-1.4 1-2.2 0 0-.7.4-1.4 0 0 0 .3-1.9-.1-2.2C8 5.8 7.8 5 7.8 5z" fill="url(#fire-sm_svg__paint4_linear_9204_55797)"/><path opacity=".5" d="M10.4 7c0-2-3-1.8-2.3-5.4 0 0-2.1.8-1.7 3.4.1.9-.2 1.5-.2 1.5-.3.1-.8-.5-.6-1.5 0 0-1.1.9-1.1 2 0 1 .5 2 .5 2-1.3-.3-1.2-2-1.2-2S3 8.2 3 10.3c0 1.6 1.8 4.1 4.7 4.1 2.9 0 5.2-2.3 5.2-4.3 0-.8-.3-2-1-2.6 0 0 .2 1.8-.7 1.7 0 0 .7-2.3 0-3.3 0 0-.4 1-.8 1.1z" fill="url(#fire-sm_svg__paint5_radial_9204_55797)"/><path opacity=".5" d="M10.4 7c0-2-3-1.8-2.3-5.4 0 0-2.1.8-1.7 3.4.1.9-.2 1.5-.2 1.5-.3.1-.8-.5-.6-1.5 0 0-1.1.9-1.1 2 0 1 .5 2 .5 2-1.3-.3-1.2-2-1.2-2S3 8.2 3 10.3c0 1.6 1.8 4.1 4.7 4.1 2.9 0 5.2-2.3 5.2-4.3 0-.8-.3-2-1-2.6 0 0 .2 1.8-.7 1.7 0 0 .7-2.3 0-3.3 0 0-.4 1-.8 1.1z" fill="url(#fire-sm_svg__paint6_radial_9204_55797)"/><path d="M3.3 9.4C3.3 11.5 5 14 7.8 14s4.1-3 4.2-4.6c0 0-.5 1-1.6 1.2-1.2.2 0-2-.8-3.3 0 0-.7 2.2-1.7 2.3C6.9 9.8 6 8.2 6 7.4c0 0-.6 1.5-.5 2.7.3 1.9-2.2-.7-2.2-.7z" fill="url(#fire-sm_svg__paint7_radial_9204_55797)"/><path opacity=".5" d="M10.4 7c0-2-3-1.8-2.3-5.4 0 0-2.1.8-1.7 3.4.1.9-.2 1.5-.2 1.5-.3.1-.8-.5-.6-1.5 0 0-1.1.9-1.1 2 0 1 .5 2 .5 2-1.3-.3-1.2-2-1.2-2S3 8.2 3 10.3c0 1.6 1.8 4.1 4.7 4.1 2.9 0 5.2-2.3 5.2-4.3 0-.8-.3-2-1-2.6 0 0 .2 1.8-.7 1.7 0 0 .7-2.3 0-3.3 0 0-.4 1-.8 1.1z" fill="url(#fire-sm_svg__paint8_radial_9204_55797)"/><path opacity=".5" d="M10.4 5.4c.9-1.5-1.2-1.7-1.2-2.7 0 0-.4 1 .5 1.7.7.5.7 1 .7 1z" fill="url(#fire-sm_svg__paint9_radial_9204_55797)"/><path d="M6 2.5c-.3.3-.1 1.3-.9 2.1 0 0-.3-1.4.9-2.1z" fill="url(#fire-sm_svg__paint10_radial_9204_55797)"/><path opacity=".5" d="M6 2.5c-.3.3.1 1.6-.9 2.1 0 0-.3-1.4.9-2.1z" fill="url(#fire-sm_svg__paint11_radial_9204_55797)"/><path opacity=".5" d="M10.4 7c0-2-3-1.8-2.3-5.4 0 0-2.1.8-1.7 3.4.1.9-.2 1.5-.2 1.5-.3.1-.8-.5-.6-1.5 0 0-1.1.9-1.1 2 0 1 .5 2 .5 2-1.3-.3-1.2-2-1.2-2S3 8.2 3 10.3c0 1.6 1.8 4.1 4.7 4.1 2.9 0 5.2-2.3 5.2-4.3 0-.8-.3-2-1-2.6 0 0 .2 1.8-.7 1.7 0 0 .7-2.3 0-3.3 0 0-.4 1-.8 1.1z" fill="url(#fire-sm_svg__paint12_radial_9204_55797)"/><path opacity=".3" d="M10.4 7c0-2-3-1.8-2.3-5.4 0 0-2.1.8-1.7 3.4.1.9-.2 1.5-.2 1.5-.3.1-.8-.5-.6-1.5 0 0-1.1.9-1.1 2 0 1 .5 2 .5 2-1.3-.3-1.2-2-1.2-2S3 8.2 3 10.3c0 1.6 1.8 4.1 4.7 4.1 2.9 0 5.2-2.3 5.2-4.3 0-.8-.3-2-1-2.6 0 0 .2 1.8-.7 1.7 0 0 .7-2.3 0-3.3 0 0-.4 1-.8 1.1z" fill="url(#fire-sm_svg__paint13_radial_9204_55797)"/><defs><radialGradient id="fire-sm_svg__paint5_radial_9204_55797" cx="0" cy="0" r="1" gradientUnits="userSpaceOnUse" gradientTransform="matrix(5.1986 0 0 4.22022 7.9 11.4)"><stop offset="0" stop-color="#FFBC47"/><stop offset="1" stop-color="#FBE07A" stop-opacity="0"/></radialGradient><radialGradient id="fire-sm_svg__paint6_radial_9204_55797" cx="0" cy="0" r="1" gradientUnits="userSpaceOnUse" gradientTransform="matrix(5.0384 0 0 4.09018 7.9 11.2)"><stop offset="0" stop-color="#fff"/><stop offset="1" stop-color="#fff" stop-opacity="0"/></radialGradient><radialGradient id="fire-sm_svg__paint7_radial_9204_55797" cx="0" cy="0" r="1" gradientUnits="userSpaceOnUse" gradientTransform="matrix(6.18932 0 0 7.20623 5.7 12.1)"><stop offset="0" stop-color="#FFED1C" stop-opacity=".6"/><stop offset="1" stop-color="#FFED1C" stop-opacity="0"/></radialGradient><radialGradient id="fire-sm_svg__paint8_radial_9204_55797" cx="0" cy="0" r="1" gradientUnits="userSpaceOnUse" gradientTransform="matrix(-.09897 1.95361 -1.58586 -.08034 7.917 11.274)"><stop offset="0" stop-color="#fff"/><stop offset="1" stop-color="#fff" stop-opacity="0"/></radialGradient><radialGradient id="fire-sm_svg__paint9_radial_9204_55797" cx="0" cy="0" r="1" gradientUnits="userSpaceOnUse" gradientTransform="translate(9 2.7) scale(2.22036)"><stop offset="0" stop-color="#FFED1C"/><stop offset="1" stop-color="#FFF686" stop-opacity="0"/></radialGradient><radialGradient id="fire-sm_svg__paint10_radial_9204_55797" cx="0" cy="0" r="1" gradientUnits="userSpaceOnUse" gradientTransform="matrix(.995 -1.49824 .34026 .22597 5.3 3.8)"><stop offset="0" stop-color="#FFED1C" stop-opacity=".6"/><stop offset="1" stop-color="#FFED1C" stop-opacity="0"/></radialGradient><radialGradient id="fire-sm_svg__paint11_radial_9204_55797" cx="0" cy="0" r="1" gradientUnits="userSpaceOnUse" gradientTransform="rotate(95.1 1.8 3.8) scale(1.61608 .65026)"><stop offset="0" stop-color="#FFED1C"/><stop offset="1" stop-color="#FFF686" stop-opacity="0"/></radialGradient><radialGradient id="fire-sm_svg__paint12_radial_9204_55797" cx="0" cy="0" r="1" gradientUnits="userSpaceOnUse" gradientTransform="translate(8.5 2.4) scale(6.92818)"><stop offset="0" stop-color="#FF4C00"/><stop offset="1" stop-color="#FFF686" stop-opacity="0"/></radialGradient><radialGradient id="fire-sm_svg__paint13_radial_9204_55797" cx="0" cy="0" r="1" gradientUnits="userSpaceOnUse" gradientTransform="translate(4.1 9.4) scale(3.9196)"><stop offset="0" stop-color="#FFED1C"/><stop offset="1" stop-color="#FFF686" stop-opacity="0"/></radialGradient><linearGradient id="fire-sm_svg__paint0_linear_9204_55797" x1="8.6" y1="14.8" x2="6.3" y2="-2" gradientUnits="userSpaceOnUse"><stop stop-color="red"/><stop offset=".2" stop-color="#FF1500"/><stop offset="1" stop-color="#FF4C00"/></linearGradient><linearGradient id="fire-sm_svg__paint1_linear_9204_55797" x1="11.3" y1="14.4" x2="9" y2="-2.3" gradientUnits="userSpaceOnUse"><stop stop-color="red"/><stop offset=".2" stop-color="#FF1500"/><stop offset="1" stop-color="#FF4C00"/></linearGradient><linearGradient id="fire-sm_svg__paint2_linear_9204_55797" x1="7.1" y1="15" x2="4.8" y2="-1.8" gradientUnits="userSpaceOnUse"><stop stop-color="red"/><stop offset=".2" stop-color="#FF1500"/><stop offset="1" stop-color="#FF4C00"/></linearGradient><linearGradient id="fire-sm_svg__paint3_linear_9204_55797" x1="8.5" y1="11.9" x2="3.5" y2="-2.5" gradientUnits="userSpaceOnUse"><stop stop-color="#FF8000"/><stop offset=".6" stop-color="#FF5B00"/><stop offset="1" stop-color="#FF4C00"/></linearGradient><linearGradient id="fire-sm_svg__paint4_linear_9204_55797" x1="8" y1="13.3" x2="8.4" y2="6.2" gradientUnits="userSpaceOnUse"><stop stop-color="#FFBC47"/><stop offset=".2" stop-color="#FFB137" stop-opacity=".8"/><stop offset="1" stop-color="#FF8900" stop-opacity="0"/></linearGradient></defs></svg><svg width="16" height="16" viewBox="0 0 16 16" fill="none" xmlns="http://www.w3.org/2000/svg" x="1607"><path d="M1 10.9746c0-.3549.284-.6389.639-.6389.3478 0 .6318.284.6318.6389v1.853l2.8184-2.8114a.63.63 0 01.8946 0 .6384.6384 0 010 .9016l-2.8114 2.8114h1.86c.348 0 .6319.284.6319.639 0 .3478-.284.6318-.6319.6318H1.639C1.284 15 1 14.716 1 14.3682v-3.3936zm12.7292-7.8022l-2.8114 2.8114a.6384.6384 0 01-.9016 0 .63.63 0 010-.8945l2.8114-2.8185h-1.853c-.3549 0-.6389-.284-.6389-.6319 0-.355.284-.6389.6389-.6389h3.3936c.3478 0 .6318.284.6318.639v3.3934c0 .348-.284.6319-.6318.6319-.355 0-.639-.284-.639-.6319v-1.86zM3.1724 2.2708l2.8114 2.8184a.6299.6299 0 010 .8946.6299.6299 0 01-.8945 0L2.2708 3.1724v1.86c0 .348-.284.6319-.6319.6319-.355 0-.6389-.284-.6389-.6319V1.639c0-.1206.0284-.2271.0852-.3265l.007-.0142h.0072V1.291l.007-.0071.0072-.0142h.007v-.0071a.673.673 0 01.142-.142h.0072v-.0071l.0142-.0071.007-.0071h.0072v-.0071l.0142-.0071C1.4118 1.0355 1.5183 1 1.6389 1h3.3935c.348 0 .6319.284.6319.639 0 .3478-.284.6318-.6319.6318h-1.86zm9.6552 11.4584l-2.8114-2.8114a.6384.6384 0 010-.9016.6384.6384 0 01.9016 0l2.8114 2.8114v-1.853c0-.3549.284-.6389.639-.6389.3478 0 .6318.284.6318.6389v3.3936c0 .3478-.284.6318-.6318.6318h-3.3936c-.3549 0-.6389-.284-.6389-.6318 0-.355.284-.639.6389-.639h1.853z" fill="#959DAE"/></svg><svg width="14" height="20" viewBox="0 0 14 20" fill="none" xmlns="http://www.w3.org/2000/svg" x="1643"><path d="M7 0C3.13 0 0 3.13 0 7c0 5.25 7 13 7 13s7-7.75 7-13c0-3.87-3.13-7-7-7zm0 9.5C5.62 9.5 4.5 8.38 4.5 7S5.62 4.5 7 4.5 9.5 5.62 9.5 7 8.38 9.5 7 9.5z" fill="#606264"/></svg><svg width="16" height="16" viewBox="0 0 16 16" fill="none" xmlns="http://www.w3.org/2000/svg" x="1677"><path d="M15.6835 8.1841c0-.5438-.0441-1.0905-.1382-1.6255H7.9998V9.639h4.321a3.7033 3.7033 0 01-1.5991 2.431v1.9988h2.5779c1.5138-1.3933 2.3839-3.4509 2.3839-5.8848z" fill="#4285F4"/><path d="M7.9997 16c2.1576 0 3.9771-.7084 5.3028-1.9312L10.7246 12.07c-.7172.4879-1.6432.7642-2.722.7642-2.087 0-3.8565-1.408-4.4914-3.301H.851v2.0606C2.209 14.2951 4.975 16 7.9997 16z" fill="#34A853"/><path d="M3.5082 9.5331a4.7916 4.7916 0 010-3.0629V4.4097H.851a8.0066 8.0066 0 000 7.184l2.6572-2.0606z" fill="#FBBC04"/><path d="M7.9997 3.1663a4.3473 4.3473 0 013.0688 1.1993l2.284-2.284A7.6889 7.6889 0 007.9997.0007C4.975.0005 2.209 1.7053.851 4.4096l2.6572 2.0606c.632-1.896 2.4045-3.304 4.4915-3.304z" fill="#EA4335"/></svg><svg width="24" height="24" viewBox="0 0 24 24" fill="none" xmlns="http://www.w3.org/2000/svg" x="1713"><path d="M9.33 11.5h2.17A4.5 4.5 0 0116 16H8.999L9 17h8v-1a5.5786 5.5786 0 00-.886-3H19a5.0004 5.0004 0 014.516 2.851C21.151 18.972 17.322 21 13 21c-2.761 0-5.1-.59-7-1.625v-9.304A6.9674 6.9674 0 019.33 11.5zM4 9a1 1 0 01.993.883L5 10v9a1 1 0 01-1 1H2a.9997.9997 0 01-1-1v-9a1 1 0 011-1h2zm9.646-5.425L14 3.93l.354-.354a2.4996 2.4996 0 012.7297-.5503 2.5006 2.5006 0 011.3564 1.3567 2.4996 2.4996 0 01-.5511 2.7296L14 11l-3.89-3.89a2.5002 2.5002 0 01-.0073-3.5432 2.5011 2.5011 0 011.7734-.732 2.5005 2.5005 0 011.7699.7402z" fill="#13DA5A"/></svg><svg width="22" height="22" viewBox="0 0 22 22" fill="none" xmlns="http://www.w3.org/2000/svg" x="1757"><path fill-rule="evenodd" clip-rule="evenodd" d="M11 0c6.0751 0 11 4.9249 11 11s-4.9249 11-11 11S0 17.0751 0 11 4.9249 0 11 0zm0 1C5.4772 1 1 5.4772 1 11s4.4772 10 10 10 10-4.4772 10-10S16.5228 1 11 1zm1 7.5v8h1v.5H9v-.5h1V9H9v-.5h3zm-1.25-4c.6904 0 1.25.5596 1.25 1.25S11.4404 7 10.75 7 9.5 6.4404 9.5 5.75s.5596-1.25 1.25-1.25z" fill="#00D664"/></svg><svg width="16" height="16" viewBox="0 0 16 16" fill="none" xmlns="http://www.w3.org/2000/svg" x="1799"><path fill-rule="evenodd" clip-rule="evenodd" d="M15 8c0 3.866-3.134 7-7 7s-7-3.134-7-7 3.134-7 7-7 7 3.134 7 7zM8 7c.5523 0 1 .4477 1 1v3.5c0 .5523-.4477 1-1 1s-1-.4477-1-1V8c0-.5523.4477-1 1-1zm0-1c.5523 0 1-.4477 1-1s-.4477-1-1-1-1 .4477-1 1 .4477 1 1 1z" fill="#FFF"/></svg><svg width="16" height="16" viewBox="0 0 16 16" fill="none" xmlns="http://www.w3.org/2000/svg" x="1835"><circle cx="8" cy="8" r="6.25" stroke="#959DAE" stroke-width="1.5"/><path fill="#959DAE" d="M7 7h2v4H7z"/><rect x="7" y="4" width="2" height="2" rx="1" fill="#959DAE"/></svg><svg width="13" height="14" viewBox="0 0 13 14" fill="none" xmlns="http://www.w3.org/2000/svg" x="1871"><path fill-rule="evenodd" clip-rule="evenodd" d="M5.5 0a.5.5 0 00-.5.5v1a.5.5 0 00.5.5h2a.5.5 0 00.5-.5v-1a.5.5 0 00-.5-.5h-2zm0 12a.5.5 0 00-.5.5v1a.4998.4998 0 00.5.5h2a.5.5 0 00.5-.5v-1a.4998.4998 0 00-.5-.5h-2zM10 8.5a.5.5 0 01.5-.5h2a.4998.4998 0 01.5.5v1a.5.5 0 01-.5.5h-2a.4998.4998 0 01-.5-.5v-1zM5.5 8a.5.5 0 00-.5.5v1a.5.5 0 00.5.5h2a.5.5 0 00.5-.5v-1a.5.5 0 00-.5-.5h-2zM0 8.5A.5.5 0 01.5 8h2a.5.5 0 01.5.5v1a.5.5 0 01-.5.5h-2a.5.5 0 01-.5-.5v-1zM10.5 4a.4998.4998 0 00-.5.5v1a.5.5 0 00.5.5h2a.4998.4998 0 00.5-.5v-1a.5.5 0 00-.5-.5h-2zM5 4.5a.5.5 0 01.5-.5h2a.5.5 0 01.5.5v1a.5.5 0 01-.5.5h-2a.5.5 0 01-.5-.5v-1zM.5 4a.5.5 0 00-.5.5v1a.5.5 0 00.5.5h2a.5.5 0 00.5-.5v-1a.5.5 0 00-.5-.5h-2zM10 .5a.4999.4999 0 01.5-.5h2a.4998.4998 0 01.5.5v1a.5.5 0 01-.5.5h-2a.4998.4998 0 01-.5-.5v-1zM.5 0a.5.5 0 00-.5.5v1a.5.5 0 00.5.5h2a.5.5 0 00.5-.5v-1a.5.5 0 00-.5-.5h-2z" fill="#00D36E"/></svg><svg width="40" height="30" viewBox="0 0 40 30" fill="none" xmlns="http://www.w3.org/2000/svg" x="1904"><path fill-rule="evenodd" clip-rule="evenodd" d="M38.9397 0c.5523 0 1 .4477 1 1v28c0 .5523-.4477 1-1 1h-15.751c-.5522 0-1-.4477-1-1V1c0-.5523.4478-1 1-1h15.751zm-6.8962 27H30.085a.5004.5004 0 00-.3536.1464.5004.5004 0 00-.1464.3536v.5c0 .1326.0527.2598.1464.3536a.5004.5004 0 00.3536.1464h1.9585a.5.5 0 00.5-.5v-.5a.5001.5001 0 00-.5-.5zm6.417-22.5H23.668v21h14.7925v-21zm-4.9378-3h-4.917a.4998.4998 0 00-.5.5v.5a.5.5 0 00.5.5h4.917a.5002.5002 0 00.5-.5V2a.5002.5002 0 00-.5-.5z" fill="#909294"/><path fill-rule="evenodd" clip-rule="evenodd" d="M19.2302 12v1.5H4.4377v15h14.7925V30H1c-.5523 0-1-.4477-1-1V13c0-.5523.4477-1 1-1h18.2302zM2.4585 18h-.4793a.5002.5002 0 00-.5.5v5a.5002.5002 0 00.5.5h.4793a.5002.5002 0 00.5-.5v-5a.5002.5002 0 00-.5-.5z" fill="#4D4E4F"/></svg><svg width="24" height="24" viewBox="0 0 24 24" fill="none" xmlns="http://www.w3.org/2000/svg" x="1964"><rect x="6" y="10.5" width="12" height="9" rx="1" fill="#13DA5A"/><rect x="8" y="3.5" width="8" height="12.5" rx="2.5" stroke="#13DA5A"/></svg><svg width="80" height="80" viewBox="0 0 80 80" fill="none" xmlns="http://www.w3.org/2000/svg" x="2008"><rect x="29" y="36" width="22" height="18" rx="3" stroke="#FFB540" stroke-width="2"/><path d="M33 32c0-3.866 3.134-7 7-7v0c3.866 0 7 3.134 7 7v4H33v-4zm6.5245-27.5365c.1496-.4606.8014-.4606.951 0l1.2084 3.7189a.5.5 0 00.4755.3455h3.9102c.4844 0 .6858.6198.2939.9045l-3.1634 2.2983a.5002.5002 0 00-.1817.5591l1.2084 3.7188c.1496.4607-.3776.8437-.7695.559l-3.1634-2.2983a.4998.4998 0 00-.5878 0l-3.1634 2.2983c-.3919.2847-.9191-.0983-.7695-.559l1.2084-3.7188a.5002.5002 0 00-.1817-.5591l-3.1634-2.2983c-.3919-.2847-.1905-.9045.2939-.9045h3.9102a.5.5 0 00.4755-.3455l1.2084-3.7189zm0 58c.1496-.4606.8014-.4606.951 0l1.2084 3.7189a.5.5 0 00.4755.3455h3.9102c.4844 0 .6858.6198.2939.9045l-3.1634 2.2983a.5002.5002 0 00-.1817.5591l1.2084 3.7188c.1496.4607-.3776.8437-.7695.559l-3.1634-2.2983a.4998.4998 0 00-.5878 0l-3.1634 2.2983c-.3919.2847-.9191-.0983-.7695-.559l1.2084-3.7188a.5002.5002 0 00-.1817-.5591l-3.1634-2.2983c-.3919-.2847-.1905-.9045.2939-.9045h3.9102a.5.5 0 00.4755-.3455l1.2084-3.7189zm-29-29c.1496-.4606.8014-.4606.951 0l1.2084 3.7189a.5.5 0 00.4755.3455h3.9102c.4844 0 .6858.6198.2939.9045l-3.1634 2.2983a.5002.5002 0 00-.1817.5591l1.2084 3.7188c.1496.4607-.3776.8437-.7695.559l-3.1634-2.2983a.4998.4998 0 00-.5878 0l-3.1634 2.2983c-.3919.2847-.9191-.0983-.7694-.559l1.2083-3.7188a.5002.5002 0 00-.1817-.5591l-3.1634-2.2983c-.3919-.2847-.1905-.9045.2939-.9045h3.9102a.5.5 0 00.4755-.3455l1.2084-3.7189zm58 0c.1496-.4606.8014-.4606.951 0l1.2084 3.7189a.5.5 0 00.4755.3455h3.9102c.4844 0 .6858.6198.2939.9045l-3.1634 2.2983a.5002.5002 0 00-.1817.5591l1.2084 3.7188c.1496.4607-.3776.8437-.7695.559l-3.1634-2.2983a.4998.4998 0 00-.5878 0l-3.1634 2.2983c-.3919.2847-.9191-.0983-.7695-.559l1.2084-3.7188a.5002.5002 0 00-.1817-.5591l-3.1634-2.2983c-.3919-.2847-.1905-.9045.2939-.9045h3.9102a.5.5 0 00.4755-.3455l1.2084-3.7189zm-8.4939-20.5061c.1497-.4606.8014-.4606.951 0l1.2084 3.7189a.5.5 0 00.4755.3455h3.9102c.4844 0 .6858.6198.2939.9045l-3.1634 2.2983a.5001.5001 0 00-.1817.5591l1.2084 3.7188c.1496.4607-.3776.8437-.7695.559L60.8 22.7631a.5.5 0 00-.5878 0l-3.1634 2.2984c-.3919.2847-.9191-.0983-.7695-.559l1.2084-3.7188a.5001.5001 0 00-.1817-.5591l-3.1634-2.2983c-.3919-.2847-.1905-.9045.2939-.9045h3.9102a.5.5 0 00.4755-.3455l1.2084-3.7189zM19.0184 53.9696c.1496-.4606.8013-.4606.951 0l1.2084 3.7189a.5.5 0 00.4755.3455h3.9102c.4844 0 .6858.6198.2939.9045l-3.1634 2.2984a.5.5 0 00-.1817.559l1.2083 3.7188c.1497.4607-.3775.8437-.7694.559l-3.1634-2.2983a.4998.4998 0 00-.5878 0l-3.1634 2.2983c-.3919.2847-.9191-.0983-.7695-.559l1.2084-3.7188a.5.5 0 00-.1817-.559l-3.1634-2.2984c-.3919-.2847-.1905-.9045.2939-.9045h3.9102a.5.5 0 00.4755-.3455l1.2084-3.7189zm0-41.0122c.1496-.4606.8013-.4606.951 0l1.2084 3.7189a.5.5 0 00.4755.3455h3.9102c.4844 0 .6858.6198.2939.9045l-3.1634 2.2983a.5001.5001 0 00-.1817.5591l1.2083 3.7188c.1497.4607-.3775.8437-.7694.559l-3.1634-2.2984a.5.5 0 00-.5878 0l-3.1634 2.2984c-.3919.2847-.9191-.0983-.7695-.559l1.2084-3.7188a.5001.5001 0 00-.1817-.5591l-3.1634-2.2983c-.3919-.2847-.1905-.9045.2939-.9045h3.9102a.5.5 0 00.4755-.3455l1.2084-3.7189zm41.0122 41.0122c.1497-.4606.8014-.4606.951 0l1.2084 3.7189a.5.5 0 00.4755.3455h3.9102c.4844 0 .6858.6198.2939.9045l-3.1634 2.2984a.5.5 0 00-.1817.559l1.2084 3.7188c.1496.4607-.3776.8437-.7695.559L60.8 63.7754a.4998.4998 0 00-.5878 0l-3.1634 2.2983c-.3919.2847-.9191-.0983-.7695-.559l1.2084-3.7188a.5.5 0 00-.1817-.559l-3.1634-2.2984c-.3919-.2847-.1905-.9045.2939-.9045h3.9102a.5.5 0 00.4755-.3455l1.2084-3.7189z" stroke="#FFB540" stroke-width="2"/><path d="M36 45l3.5 3 5.5-6" stroke="#FFB540" stroke-width="2" stroke-linecap="round" stroke-linejoin="round"/></svg><svg width="24" height="24" fill="none" xmlns="http://www.w3.org/2000/svg" x="2108"><path d="M20.11 3l-7.032 5.205 1.308-3.067L20.11 3z" fill="#E17726" stroke="#E17726" stroke-width=".25" stroke-linecap="round" stroke-linejoin="round"/><path d="M3.89 3l6.97 5.254-1.246-3.116L3.89 3zm13.688 12.069l-1.871 2.859 4.006 1.103 1.148-3.9-3.283-.063zm-14.432.062l1.14 3.9 4-1.103-1.864-2.86-3.276.063z" fill="#E27625" stroke="#E27625" stroke-width=".25" stroke-linecap="round" stroke-linejoin="round"/><path d="M8.07 10.24l-1.113 1.679 3.965.18-.132-4.268-2.72 2.408zm7.86-.002l-2.762-2.456-.09 4.316 3.964-.18-1.112-1.68zm-7.644 7.689l2.4-1.159-2.066-1.61-.334 2.77zm5.029-1.159l2.392 1.16-.327-2.77-2.065 1.61z" fill="#E27625" stroke="#E27625" stroke-width=".25" stroke-linecap="round" stroke-linejoin="round"/><path d="M15.707 17.928l-2.392-1.159.194 1.555-.02.66 2.218-1.056zm-7.421 0l2.226 1.055-.014-.66.188-1.554-2.4 1.16z" fill="#D5BFB2" stroke="#D5BFB2" stroke-width=".25" stroke-linecap="round" stroke-linejoin="round"/><path d="M10.553 14.131l-1.989-.583 1.405-.645.584 1.228zm2.894 0l.584-1.228 1.412.645-1.996.583z" fill="#233447" stroke="#233447" stroke-width=".25" stroke-linecap="round" stroke-linejoin="round"/><path d="M8.286 17.928l.348-2.86-2.212.063 1.864 2.797zm7.08-2.859l.341 2.859 1.871-2.797-2.212-.063zm1.676-3.152l-3.964.18.369 2.034.584-1.228 1.412.645 1.6-1.63zm-8.478 1.631l1.405-.645.584 1.228.369-2.033-3.965-.18 1.607 1.63z" fill="#CC6228" stroke="#CC6228" stroke-width=".25" stroke-linecap="round" stroke-linejoin="round"/><path d="M6.958 11.917l1.662 3.241-.056-1.61-1.606-1.63zm8.485 1.631l-.063 1.61 1.662-3.24-1.6 1.63zm-4.521-1.45l-.369 2.034.466 2.401.105-3.165-.202-1.27zm2.156 0l-.195 1.264.098 3.171.466-2.401-.369-2.034z" fill="#E27525" stroke="#E27525" stroke-width=".25" stroke-linecap="round" stroke-linejoin="round"/><path d="M13.447 14.132l-.466 2.4.334.237 2.065-1.61.063-1.61-1.996.583zm-4.883-.583l.056 1.61 2.065 1.61.334-.236-.466-2.401-1.989-.583z" fill="#F5841F" stroke="#F5841F" stroke-width=".25" stroke-linecap="round" stroke-linejoin="round"/><path d="M13.489 18.983l.02-.659-.18-.153h-2.657l-.174.153.014.66-2.226-1.056.779.639 1.579 1.09h2.705l1.586-1.09.772-.639-2.219 1.055z" fill="#C0AC9D" stroke="#C0AC9D" stroke-width=".25" stroke-linecap="round" stroke-linejoin="round"/><path d="M13.315 16.769l-.334-.236h-1.962l-.334.236-.187 1.554.174-.152h2.656l.181.152-.194-1.554z" fill="#161616" stroke="#161616" stroke-width=".25" stroke-linecap="round" stroke-linejoin="round"/><path d="M20.409 8.545L21 5.672 20.11 3l-6.795 5.031 2.615 2.207 3.693 1.076.814-.95-.355-.258.563-.513-.43-.333.563-.43-.37-.285zM3 5.672l.598 2.873-.382.285.57.43-.431.333.563.514-.355.256.814.951 3.693-1.076 2.615-2.207L3.89 3 3 5.672z" fill="#763E1A" stroke="#763E1A" stroke-width=".25" stroke-linecap="round" stroke-linejoin="round"/><path d="M19.623 11.315l-3.693-1.076 1.113 1.68-1.663 3.24 2.198-.027h3.283l-1.238-3.817zM8.07 10.239l-3.693 1.076-1.231 3.817h3.276l2.198.027-1.663-3.24 1.113-1.68zm5.008 1.859l.237-4.067 1.07-2.894h-4.77l1.07 2.894.237 4.067.09 1.277.007 3.157h1.962l.007-3.157.09-1.277z" fill="#F5841F" stroke="#F5841F" stroke-width=".25" stroke-linecap="round" stroke-linejoin="round"/></svg><svg width="80" height="80" fill="none" xmlns="http://www.w3.org/2000/svg" x="2152"><circle cx="40" cy="40" r="34.5" stroke="#FF5050" stroke-width="3"/><path d="M50 36.667A1.666 1.666 0 0048.333 35H29.017l3.833-3.817a1.674 1.674 0 00-2.367-2.366l-6.666 6.666a1.667 1.667 0 00-.35 1.817A1.667 1.667 0 0025 38.333h23.333A1.667 1.667 0 0050 36.667zm6.533 6.033A1.667 1.667 0 0055 41.667H31.667a1.667 1.667 0 000 3.333h19.316l-3.833 3.817a1.668 1.668 0 000 2.366 1.668 1.668 0 002.367 0l6.666-6.666a1.667 1.667 0 00.35-1.817z" fill="#FF5050"/></svg><svg width="16" height="16" viewBox="0 0 16 16" fill="none" xmlns="http://www.w3.org/2000/svg" x="2252"><path d="M1.1864 2.0809l2.8113 2.8184h-1.86c-.3479 0-.6319.284-.6319.6319 0 .355.284.639.6319.639h3.3935c.1207 0 .2272-.0356.3266-.0853l.0142-.007v-.0072h.007l.0072-.007.0142-.0072v-.007h.007a.6735.6735 0 00.142-.142v-.0071h.0071l.0071-.0142.0071-.0071V5.872h.0071l.0071-.0142c.0568-.0994.0852-.206.0852-.3266V2.1377c0-.3479-.284-.6319-.639-.6319-.3478 0-.6318.284-.6318.6319v1.86L2.081 1.1864a.63.63 0 00-.8945 0 .63.63 0 000 .8945zm.8945 12.7029l2.8184-2.8114v1.8601c0 .3478.284.6318.6319.6318.355 0 .639-.284.639-.6318v-3.3936c0-.1206-.0356-.2271-.0853-.3265l-.007-.0142h-.0072v-.0071l-.007-.0071-.0072-.0142h-.007v-.0071a.6734.6734 0 00-.142-.142h-.0071v-.0071l-.0142-.0071-.0071-.0071H5.872v-.0071l-.0142-.0071c-.0994-.0568-.206-.0852-.3266-.0852H2.1377c-.3479 0-.6319.284-.6319.6389 0 .3479.284.6319.6319.6319h1.86l-2.8113 2.8185a.6299.6299 0 000 .8945.6299.6299 0 00.8945 0zM13.8892 1.1864l-2.8184 2.8113v-1.86c0-.3479-.284-.6319-.6319-.6319-.3549 0-.639.284-.639.6319v3.3935c0 .1207.0356.2272.0853.3266l.007.0142h.0072v.007l.007.0072.0072.0142h.007v.007a.6732.6732 0 00.1421.142h.0071v.0071l.0142.0071.0071.0071h.0071v.0071l.0142.0071c.0994.0568.2058.0852.3265.0852h3.3935c.3479 0 .6319-.284.6319-.639 0-.3478-.284-.6318-.6319-.6318h-1.86l2.8114-2.8184a.63.63 0 000-.8945.63.63 0 00-.8946 0zm.8946 12.7029l-2.8114-2.8185h1.86c.3479 0 .6319-.284.6319-.6319 0-.3549-.284-.6389-.6319-.6389h-3.3935c-.1207 0-.2271.0355-.3265.0852l-.0142.0071v.007h-.0071l-.0071.0072-.0142.007v.0072h-.0071a.673.673 0 00-.142.142v.0071h-.0071l-.0071.0142-.0071.0071v.0071h-.0071l-.0071.0142c-.0568.0994-.0852.2059-.0852.3265v3.3936c0 .3478.284.6318.6389.6318.3479 0 .6319-.284.6319-.6318v-1.8601l2.8184 2.8114a.63.63 0 00.8946 0 .63.63 0 000-.8945z" fill="#959DAE"/></svg><svg width="24" height="24" viewBox="0 0 24 24" fill="none" xmlns="http://www.w3.org/2000/svg" x="2288"><path fill-rule="evenodd" clip-rule="evenodd" d="M12 19c3.866 0 7-3.134 7-7s-3.134-7-7-7-7 3.134-7 7 3.134 7 7 7zm0 2c4.9706 0 9-4.0294 9-9s-4.0294-9-9-9-9 4.0294-9 9 4.0294 9 9 9z" fill="#959DAE"/><rect x="17" y="11" width="2" height="10" rx="1" transform="rotate(90 17 11)" fill="#959DAE"/></svg><svg width="34" height="28" viewBox="0 0 34 28" fill="none" xmlns="http://www.w3.org/2000/svg" x="2332"><path fill-rule="evenodd" clip-rule="evenodd" d="M33.5707 6.89c.2443.2444.3665.5498.3665.9163 0 .3665-.1283.678-.3848.9345-.2566.2566-.5681.3849-.9346.3849-.3665 0-.6719-.1344-.9162-.4032-2.0035-1.979-4.3002-3.4878-6.89-4.5262-2.59-1.0384-5.2043-1.5576-7.843-1.5576-2.6388 0-5.253.5192-7.843 1.5576-2.5898 1.0384-4.8865 2.547-6.89 4.5262-.2443.2688-.5497.4032-.9162.4032-.3665 0-.678-.1283-.9346-.385C.1283 8.4844 0 8.1728 0 7.8064c0-.3665.1222-.672.3665-.9162 2.2723-2.2723 4.8682-3.9887 7.788-5.1493C11.0742.5803 14.0122 0 16.9685 0c2.9565 0 5.9006.5803 8.8325 1.7408 2.932 1.1606 5.5219 2.877 7.7697 5.1492zm-28.22 5.644c2.1013-2.1012 4.5629-3.5244 7.3849-4.2696 2.822-.7452 5.644-.7452 8.466 0 2.822.7452 5.2836 2.1684 7.3848 4.2696.2443.2688.3665.5864.3665.953 0 .3664-.1283.678-.3848.9345-.2566.2565-.5681.3848-.9346.3848-.3665 0-.6719-.1344-.9162-.4032-1.3194-1.3193-2.8403-2.321-4.5628-3.0052-1.7226-.6841-3.4512-1.0262-5.186-1.0262-1.7347 0-3.4633.342-5.1858 1.0262-1.7225.6841-3.2434 1.6859-4.5628 3.0052-.2443.2688-.5497.4032-.9162.4032-.3665 0-.678-.1283-.9346-.3848-.2565-.2566-.3848-.5681-.3848-.9346 0-.3665.122-.6841.3664-.9529zm18.288 6.0105c0 .0244.0367.061.11.11.2443.2687.3665.5802.3665.9345 0 .3543-.1283.6658-.3848.9346-.2566.2687-.568.4031-.9346.4031-.3665 0-.6719-.1344-.9162-.4031l-.11-.11c-1.3193-1.3194-2.9075-1.979-4.7644-1.979s-3.445.6596-4.7644 1.979c-.2687.2688-.5863.4032-.9528.4032-.3665 0-.678-.1283-.9346-.3849-.2565-.2565-.3848-.568-.3848-.9345 0-.3665.1344-.6841.4031-.9529 1.8325-1.8325 4.0436-2.7487 6.6335-2.7487 2.59 0 4.801.9162 6.6335 2.7487zm-8.0261 6.0838c.3909-.391.8551-.5864 1.3926-.5864.5376 0 1.0018.1954 1.3927.5864.391.3909.5864.8551.5864 1.3926 0 .5376-.1955 1.0018-.5864 1.3927-.391.391-.8551.5864-1.3927.5864-.5375 0-1.0017-.1955-1.3926-.5864-.391-.391-.5864-.8551-.5864-1.3927 0-.5375.1954-1.0017.5864-1.3926z" fill="#fff"/></svg><svg width="16" height="16" viewBox="0 0 16 16" fill="none" xmlns="http://www.w3.org/2000/svg" x="2386"><rect y="1" width="7" height="1.8" rx=".9" fill="#959DAE"/><rect y="5" width="7" height="1.8" rx=".9" fill="#959DAE"/><rect y="9" width="7" height="1.8" rx=".9" fill="#959DAE"/><rect y="13" width="7" height="1.8" rx=".9" fill="#959DAE"/><rect x="9" y="1" width="7" height="1.8" rx=".9" fill="#959DAE"/><rect x="9" y="5" width="7" height="1.8" rx=".9" fill="#959DAE"/><rect x="9" y="9" width="7" height="1.8" rx=".9" fill="#959DAE"/><rect x="9" y="13" width="7" height="1.8" rx=".9" fill="#959DAE"/></svg><svg width="17" height="16" viewBox="0 0 17 16" fill="none" xmlns="http://www.w3.org/2000/svg" x="2422"><path fill-rule="evenodd" clip-rule="evenodd" d="M9.236 1.309a1 1 0 00-1.472 0l-.538.584a1 1 0 01-.989.29l-.769-.2a1 1 0 00-1.238.796l-.136.782a1 1 0 01-.675.78l-.756.246a1 1 0 00-.611 1.339l.308.732a1 1 0 01-.146 1.02l-.503.616a1 1 0 00.21 1.457l.655.449a1 1 0 01.428.938l-.09.789a1 1 0 00.965 1.113l.794.023a1 1 0 01.867.557l.351.713a1 1 0 001.413.415l.68-.41a1 1 0 011.031 0l.681.41a1 1 0 001.413-.415l.35-.713a1 1 0 01.868-.557l.794-.024a1 1 0 00.964-1.112l-.09-.79a1 1 0 01.429-.937l.655-.45a1 1 0 00.21-1.456l-.503-.616a1 1 0 01-.146-1.02l.308-.732a1 1 0 00-.612-1.34l-.755-.246a1 1 0 01-.675-.779l-.136-.782a1 1 0 00-1.239-.796l-.768.2a1 1 0 01-.99-.29l-.537-.584zm1.324 10.185a1.373 1.373 0 100-2.746 1.373 1.373 0 000 2.746zM7.813 6.001a1.373 1.373 0 11-2.746 0 1.373 1.373 0 012.746 0zm3.919-.2a.687.687 0 00-.971-.972l-5.493 5.493a.687.687 0 10.971.971L11.732 5.8z" fill="#00D36E"/></svg><svg width="18" height="18" viewBox="0 0 18 18" fill="none" xmlns="http://www.w3.org/2000/svg" x="2459"><path d="M4 7c1.6569 0 3-1.3431 3-3 0-1.6568-1.3431-3-3-3-1.6568 0-3 1.3432-3 3 0 1.6569 1.3432 3 3 3zm10 10c1.6569 0 3-1.3431 3-3s-1.3431-3-3-3-3 1.3431-3 3 1.3431 3 3 3z" stroke="#fff" stroke-width="2"/><path d="M16 2L2 16" stroke="#fff" stroke-width="2" stroke-linecap="round"/></svg><svg width="24" height="24" viewBox="0 0 24 24" fill="none" xmlns="http://www.w3.org/2000/svg" x="2497"><path fill-rule="evenodd" clip-rule="evenodd" d="M12 19c3.866 0 7-3.134 7-7s-3.134-7-7-7-7 3.134-7 7 3.134 7 7 7zm0 2c4.9706 0 9-4.0294 9-9s-4.0294-9-9-9-9 4.0294-9 9 4.0294 9 9 9z" fill="#959DAE"/><rect x="17" y="11" width="2" height="10" rx="1" transform="rotate(90 17 11)" fill="#959DAE"/><rect x="13" y="17" width="2" height="10" rx="1" transform="rotate(-180 13 17)" fill="#959DAE"/></svg><svg width="80" height="80" viewBox="0 0 80 80" fill="none" xmlns="http://www.w3.org/2000/svg" x="2541"><path d="M48 24H10c-2.2091 0-4 1.7909-4 4v42c0 2.2091 1.7909 4 4 4h60c2.2091 0 4-1.7909 4-4V31" stroke="#959DAE" stroke-width="3"/><path d="M14 59.5c0-3.5899 2.9101-6.5 6.5-6.5h9c3.5899 0 6.5 2.9101 6.5 6.5V65c0 .5523-.4477 1-1 1H15c-.5523 0-1-.4477-1-1v-5.5z" stroke="#959DAE" stroke-width="3"/><circle cx="25" cy="46" r="7" stroke="#959DAE" stroke-width="3"/><circle cx="63" cy="21" r="15" stroke="#00D36E" stroke-width="3"/><path d="M47 66h19m-19-7h19m-19-7h19m-19-7h1m6 0h1" stroke="#959DAE" stroke-width="3" stroke-linecap="round"/><path d="M57 21l5.0556 4L70 17" stroke="#00D36E" stroke-width="3" stroke-linecap="round" stroke-linejoin="round"/></svg><svg width="24" height="16" viewBox="0 0 24 16" fill="none" xmlns="http://www.w3.org/2000/svg" x="2641"><path clip-rule="evenodd" d="M2.5714.75c-.258 0-.497.0675-.8214.3929l.1527 13.9148c.1716.1248.4107.1923.6687.1923h18.8572c.258 0 .497-.0675.8214-.3929L22.0251 1.321c-.5479-.1217-1.477-.2253-3.047-.3131C16.0954.8465 11.1273.75 2.5713.75h.0001z" stroke="#00D664" stroke-width="1.5"/><path fill-rule="evenodd" clip-rule="evenodd" d="M8 4c1.1022 0 2 .8978 2 2 0 1.1022-.8978 2-2 2-1.1022 0-2-.8978-2-2 0-1.1022.8978-2 2-2zm-4 8v-1c0-1.2435 2.6667-2 4-2s4 .7565 4 2v1H4z" fill="#00D664"/><path d="M19 4.5h-4a.5.5 0 000 1h4a.5.5 0 000-1zm0 3h-4a.5.5 0 000 1h4a.5.5 0 000-1zm-2 3h-2a.5.5 0 000 1h2a.5.5 0 000-1z" stroke="#00D664"/></svg><svg width="24" height="16" viewBox="0 0 24 16" fill="none" xmlns="http://www.w3.org/2000/svg" x="2685"><path clip-rule="evenodd" d="M2.5714.75c-.258 0-.497.0675-.8214.3929l.1527 13.9148c.1716.1248.4107.1923.6687.1923h18.8572c.258 0 .497-.0675.8214-.3929L22.0251 1.321c-.5479-.1217-1.477-.2253-3.047-.3131C16.0954.8465 11.1273.75 2.5713.75h.0001z" stroke="#00D664" stroke-width="1.5"/><path d="M18 4.5H6a.5.5 0 000 1h12a.5.5 0 000-1zm0 3H6a.5.5 0 000 1h12a.5.5 0 000-1zm-2 3H6a.5.5 0 000 1h10a.5.5 0 000-1z" stroke="#00D664"/></svg><svg width="22" height="22" viewBox="0 0 22 22" fill="none" xmlns="http://www.w3.org/2000/svg" x="2729"><path fill-rule="evenodd" clip-rule="evenodd" d="M14 8c0 1.66-1.34 3-3 3S8 9.66 8 8s1.34-3 3-3 3 1.34 3 3zm-9 8c0-2 4-3.1 6-3.1s6 1.1 6 3.1v1H5v-1z" fill="#00D664"/><path d="M20.9881 15v4c0 1.1046-.8954 2-2 2H15M1 6.9862V3c0-1.1046.8954-2 2-2h3.9881L1 6.9862zM1 15v3.9862c0 1.1046.8954 2 2 2h3.9881L1 15zm19.9881-8V3c0-1.1046-.8954-2-2-2H15l5.9881 6z" stroke="#00D664" stroke-width="1.5"/></svg><svg width="15" height="15" viewBox="0 0 15 15" fill="none" xmlns="http://www.w3.org/2000/svg" x="2771"><path fill-rule="evenodd" clip-rule="evenodd" d="M0 7.5C0 11.625 3.375 15 7.5 15S15 11.625 15 7.5 11.625 0 7.5 0 0 3.375 0 7.5zm8.25 5.25h-1.5v-1.5h1.5v1.5zm1.575-5.775l-.675.675c-.6.525-.9.975-.9 2.1h-1.5v-.375c0-.825.3-1.575.9-2.1l.9-.975c.3-.225.45-.6.45-1.05 0-.825-.675-1.5-1.5-1.5S6 4.425 6 5.25H4.5c0-1.65 1.35-3 3-3s3 1.35 3 3c0 .675-.3 1.275-.675 1.725z" fill="#F30"/></svg><svg width="16" height="16" viewBox="0 0 16 16" fill="none" xmlns="http://www.w3.org/2000/svg" x="2806"><rect x="2.5" y="2.5" width="11" height="11" rx=".5" fill="#101A31" stroke="#fff"/><path d="M7.4192 9.959H8.586v1.1667H7.4192V9.959zm1.1667-.9596v.3763H7.4192v-.875a.5834.5834 0 01.5834-.5834.875.875 0 10-.8581-1.0465L6 6.6416a2.0422 2.0422 0 112.586 2.3578z" fill="#fff"/></svg><svg width="16" height="21" viewBox="0 0 16 21" fill="none" xmlns="http://www.w3.org/2000/svg" x="2842"><path fill-rule="evenodd" clip-rule="evenodd" d="M8.945.1679c.46-.306 1.081-.182 1.387.277l2.555 3.832-3.832 2.555c-.46.306-1.081.182-1.387-.277-.306-.46-.182-1.081.277-1.387l.911-.607c-.279-.04-.565-.061-.856-.061-3.314 0-6 2.686-6 5.9999 0 .48.056.9461.163 1.3941L.574 13.4818c-.37-.921-.574-1.928-.574-2.982 0-4.418 3.582-8 8-8 .469 0 .93.04 1.377.118l-.709-1.063c-.306-.46-.182-1.081.277-1.387zM6.83 18.4149c.382.056.773.0849 1.17.0849 4.418 0 8-3.582 8-8 0-1.163-.248-2.267-.694-3.264l-1.553 1.553c.161.542.247 1.117.247 1.711 0 3.314-2.686 6-6 6a6.035 6.035 0 01-.877-.0639l.921-.597c.463-.3.596-.9201.295-1.3831-.3-.463-.92-.5959-1.383-.2949l-3.382 2.192 2.03 4.092c.246.494.846.6959 1.341.4509.494-.246.696-.846.451-1.341l-.566-1.1399z" fill="#101A31"/></svg><svg width="16" height="16" viewBox="0 0 16 16" fill="none" xmlns="http://www.w3.org/2000/svg" x="2878"><path d="M13.3 7.3333a5.3335 5.3335 0 00-8.8237-3.2999A5.3333 5.3333 0 1012.9666 10m.3334 3.3333V10H9.9666" stroke="#959DAE" stroke-linecap="round" stroke-linejoin="round"/></svg><svg width="80" height="80" viewBox="0 0 80 80" fill="none" xmlns="http://www.w3.org/2000/svg" x="2914"><rect x="4" y="6" width="72" height="68" rx="2" stroke="#FFB540" stroke-width="2"/><path d="M14 66h52M14 14h52M8 21v5m0 28v5" stroke="#FFB540" stroke-width="2" stroke-linecap="round"/><path d="M40 23v6m0 28v-6M23 40h6m-1-12l4 4m20-4l-4 4m4 20l-4-4m-20 4l4-4" stroke="#FFB540" stroke-width="2"/><path fill-rule="evenodd" clip-rule="evenodd" d="M30 40c0-5.5228 4.4772-10 10-10 3.7014 0 6.9331 2.011 8.6622 5h2.2497C49.0159 30.8689 44.843 28 40 28c-6.6274 0-12 5.3726-12 12s5.3726 12 12 12c4.843 0 9.0159-2.8689 10.9119-7h-2.2497c-1.7291 2.989-4.9608 5-8.6622 5-5.5228 0-10-4.4772-10-10z" fill="#FFB540"/><path fill-rule="evenodd" clip-rule="evenodd" d="M24 40c0-8.8366 7.1634-16 16-16 7.0904 0 13.1037 4.6121 15.2032 11h2.0933C55.1298 27.4914 48.2062 22 40 22c-9.9411 0-18 8.0589-18 18s8.0589 18 18 18c8.2062 0 15.1298-5.4914 17.2965-13h-2.0933C53.1037 51.3879 47.0904 56 40 56c-8.8366 0-16-7.1634-16-16z" fill="#FFB540"/><rect x="40" y="35" width="22" height="10" rx="2" stroke="#FFB540" stroke-width="2"/><circle cx="45" cy="40" r="2" fill="#FFB540"/><circle cx="51" cy="40" r="2" fill="#FFB540"/><circle cx="57" cy="40" r="2" fill="#FFB540"/></svg><svg width="26" height="22" viewBox="0 0 26 22" fill="none" xmlns="http://www.w3.org/2000/svg" x="3014"><path fill-rule="evenodd" clip-rule="evenodd" d="M14.0607 0c6.075 0 11 4.9249 11 11s-4.925 11-11 11l-.1167-.0067c-.4973-.0578-.8833-.4805-.8833-.9933 0-.5523.4477-1 1-1 4.9705 0 9-4.0294 9-9s-4.0295-9-9-9c-4.798 0-8.7193 3.7547-8.9856 8.4862l.7356-.7362c.4142-.4142 1.0857-.4142 1.5 0 .4142.4142.4142 1.0858 0 1.5l-2.543 2.5429c-.3905.3905-1.0236.3905-1.414 0L.8106 11.25c-.4143-.4142-.4143-1.0858 0-1.5.4142-.4142 1.0857-.4142 1.5 0l.7606.762C3.3266 4.6633 8.149 0 14.0607 0zm0 4c.5522 0 1 .4477 1 1v5l3-.0013c.5522-.0006 1.0002.4469 1.0004.9992L19.0607 11c0 .5523-.4478 1-1 1h-4c-.5523 0-1-.4477-1-1V5c0-.5523.4477-1 1-1z" fill="#00D664"/></svg><svg width="11" height="11" viewBox="0 0 11 11" fill="none" xmlns="http://www.w3.org/2000/svg" x="3060"><path fill-rule="evenodd" clip-rule="evenodd" d="M7.8571 6.9143h-.5028l-.1886-.1886c.6286-.6914 1.0057-1.6343 1.0057-2.64C8.1714 1.8229 6.3486 0 4.0857 0 1.823 0 0 1.8229 0 4.0857c0 2.2629 1.8229 4.0857 4.0857 4.0857 1.0057 0 1.9486-.3771 2.64-1.0057l.1886.1886v.5028L10.057 11l.9429-.9429-3.1428-3.1428zm-3.7714 0a2.8167 2.8167 0 01-2.8286-2.8286A2.817 2.817 0 014.0857 1.257a2.8166 2.8166 0 012.8286 2.8286 2.817 2.817 0 01-2.8286 2.8286z" fill="#909294"/></svg><svg width="24" height="24" viewBox="0 0 24 24" fill="none" xmlns="http://www.w3.org/2000/svg" x="3091"><circle cx="11" cy="11" r="5" stroke="#fff" stroke-width="2"/><path d="M15 15l4 4" stroke="#fff" stroke-width="2" stroke-linecap="round"/></svg><svg width="15" height="14" viewBox="0 0 15 14" fill="none" xmlns="http://www.w3.org/2000/svg" x="3135"><path fill-rule="evenodd" clip-rule="evenodd" d="M7.3333.5833c-.5523 0-1 .4477-1 1v.2968a5.2183 5.2183 0 00-1.6283.675l-.2102-.2102c-.3905-.3906-1.0237-.3906-1.4142 0l-.2357.2357c-.3906.3905-.3906 1.0236 0 1.4142l.2102.2102a5.2196 5.2196 0 00-.675 1.6283h-.2968c-.5523 0-1 .4477-1 1v.3333c0 .5523.4477 1 1 1h.2968c.133.5861.364 1.135.675 1.6284l-.2102.2102c-.3906.3905-.3906 1.0237 0 1.4142l.2357.2357c.3905.3905 1.0237.3905 1.4142 0l.2102-.2102a5.2184 5.2184 0 001.6283.675v.2967c0 .5523.4477 1 1 1h.3334c.5522 0 1-.4477 1-1v-.2967a5.218 5.218 0 001.6283-.675l.2102.2102c.3905.3905 1.0237.3905 1.4142 0l.2357-.2357c.3905-.3905.3905-1.0237 0-1.4142l-.2102-.2102a5.2182 5.2182 0 00.675-1.6283h.2968c.5522 0 1-.4478 1-1v-.3334c0-.5523-.4478-1-1-1h-.2968a5.2182 5.2182 0 00-.675-1.6284l.2102-.2101c.3905-.3906.3905-1.0237 0-1.4142l-.2357-.2357c-.3905-.3906-1.0237-.3906-1.4142 0l-.2102.2101a5.219 5.219 0 00-1.6283-.675v-.2967c0-.5523-.4478-1-1-1h-.3334zM7.5 10.5C9.433 10.5 11 8.933 11 7S9.433 3.5 7.5 3.5 4 5.067 4 7s1.567 3.5 3.5 3.5z" fill="#00D36E"/></svg><svg width="14" height="14" viewBox="0 0 14 14" fill="none" xmlns="http://www.w3.org/2000/svg" x="3170"><path d="M2 7c0-.5523-.4477-1-1-1s-1 .4477-1 1 .4477 1 1 1 1-.4477 1-1zm12 0c0-.5523-.4477-1-1-1s-1 .4477-1 1 .4477 1 1 1 1-.4477 1-1zM5 4c0-.5523-.4477-1-1-1s-1 .4477-1 1v6c0 .5523.4477 1 1 1s1-.4477 1-1V4zm6-3c0-.5523-.4477-1-1-1S9 .4477 9 1v12c0 .5523.4477 1 1 1s1-.4477 1-1V1zM8 6c0-.5523-.4477-1-1-1s-1 .4477-1 1v2c0 .5523.4477 1 1 1s1-.4477 1-1V6z" fill="#08203C"/></svg><svg width="16" height="16" viewBox="0 0 16 16" fill="none" xmlns="http://www.w3.org/2000/svg" x="3204"><rect x="1" y="7" width="2" height="2" rx="1" fill="#00D36E"/><rect x="13" y="7" width="2" height="2" rx="1" fill="#00D36E"/><rect x="4" y="4" width="2" height="8" rx="1" fill="#00D36E"/><rect x="10" y="1" width="2" height="14" rx="1" fill="#00D36E"/><rect x="7" y="6" width="2" height="4" rx="1" fill="#00D36E"/></svg><svg width="16" height="16" viewBox="0 0 16 16" fill="none" xmlns="http://www.w3.org/2000/svg" x="3240"><rect x="1" y="7" width="2" height="2" rx="1" fill="#FF5050"/><rect x="13" y="7" width="2" height="2" rx="1" fill="#FF5050"/><rect x="4" y="4" width="2" height="8" rx="1" fill="#FF5050"/><rect x="10" y="1" width="2" height="14" rx="1" fill="#FF5050"/><rect x="7" y="6" width="2" height="4" rx="1" fill="#FF5050"/></svg><svg width="16" height="16" viewBox="0 0 16 16" fill="none" xmlns="http://www.w3.org/2000/svg" x="3276"><rect x="1" y="7" width="2" height="2" rx="1" fill="#FFF"/><rect x="13" y="7" width="2" height="2" rx="1" fill="#FFF"/><rect x="4" y="4" width="2" height="8" rx="1" fill="#FFF"/><rect x="10" y="1" width="2" height="14" rx="1" fill="#FFF"/><rect x="7" y="6" width="2" height="4" rx="1" fill="#FFF"/></svg><svg width="18" height="18" viewBox="0 0 18 18" fill="none" xmlns="http://www.w3.org/2000/svg" x="3312"><path fill-rule="evenodd" clip-rule="evenodd" d="M13 10.5133c0-2.0426-1.9084-2.747-3.512-3.1227L8.3137 7.109c-.8582-.2114-1.502-.364-1.502-1.0449 0-.6222.6325-.904 1.6262-.904 1.7729 0 1.8068 1.35 2.9021 1.35.734 0 1.1744-.5986 1.1744-1.2795 0-1.35-2.1568-2.2305-4.291-2.2305C6.2698 3 4 3.8805 4 6.2636 4 8.236 5.2647 8.9402 6.9134 9.3511l1.6487.4226c1.005.2583 1.6261.3757 1.6261 1.127 0 .5988-.6437 1.0566-1.6374 1.0566-2.089 0-2.202-1.8079-3.4103-1.8079-.7904 0-1.1405.587-1.1405 1.2327C4 12.826 6.123 14 8.6637 14 10.7867 14 13 12.8965 13 10.5133zM18 13.5c0 2.4844-2.0156 4.5-4.5 4.5-1.0313 0-1.9805-.3516-2.7422-.9375-.5625.1172-1.1601.1875-1.7578.1875C4.4414 17.25.75 13.5586.75 9c0-.5977.0703-1.1953.1875-1.7578C.3515 6.4805 0 5.5312 0 4.5 0 2.0156 2.0156 0 4.5 0c1.0313 0 1.9805.3516 2.7422.9375C7.8047.8203 8.4023.75 9 .75c4.5586 0 8.25 3.6914 8.25 8.25 0 .5977-.0703 1.1953-.1875 1.7578.586.7617.9375 1.711.9375 2.7422z" fill="#fff"/></svg><svg width="72" height="72" viewBox="0 0 72 72" xmlns="http://www.w3.org/2000/svg" x="3350"><defs><radialGradient cx="100%" cy="50%" fx="100%" fy="50%" r="95.0119%" id="a"><stop stop-color="#00D36E" stop-opacity=".4975" offset="0%"/><stop stop-color="#00D36E" stop-opacity="0" offset="100%"/></radialGradient><radialGradient cx="50%" cy="100%" fx="50%" fy="100%" r="70.7107%" gradientTransform="rotate(-135 .5 1) scale(1 .99981)" id="b"><stop stop-color="#00D36E" offset="0%"/><stop stop-color="#00D36E" stop-opacity="0" offset="100%"/></radialGradient><linearGradient x1="0%" y1="50%" x2=".1193%" y2="49.8797%" id="c"><stop stop-color="#00D36E" offset="0%"/><stop stop-color="#00D36E" stop-opacity="0" offset="100%"/></linearGradient></defs><g stroke-width="2" fill="none" fill-rule="evenodd" stroke-linejoin="square"><circle stroke="url(#a)" cx="36" cy="36" r="35"/><circle stroke="url(#b)" cx="36" cy="36" r="35"/><circle stroke="url(#c)" cx="36" cy="36" r="35"/></g></svg><svg width="12" height="14" fill="none" xmlns="http://www.w3.org/2000/svg" x="3442"><path fill-rule="evenodd" clip-rule="evenodd" d="M6 13A5 5 0 106 3a5 5 0 000 10zm0 1A6 6 0 106 2a6 6 0 000 12z" fill="#13DA5A"/><path fill="#13DA5A" d="M4 0h4v1H4zm1.5 5h1v4h-1z"/></svg><svg width="28" height="27" viewBox="0 0 28 27" fill="none" xmlns="http://www.w3.org/2000/svg" x="3474"><path d="M14 1.302l3.3886 8.1472a.9998.9998 0 00.8434.6127l8.7956.7052-6.7013 5.7404a.9999.9999 0 00-.3222.9914l2.0474 8.583-7.5302-4.5994a1 1 0 00-1.0426 0l-7.5302 4.5994 2.0474-8.583a.9998.9998 0 00-.3222-.9914L.9724 10.7671l8.7956-.7052a.9998.9998 0 00.8434-.6127L14 1.302z" fill="#043D75" stroke="#043D75"/></svg><svg width="18" height="17" viewBox="0 0 18 17" fill="none" xmlns="http://www.w3.org/2000/svg" x="3522"><path fill-rule="evenodd" clip-rule="evenodd" d="M11.5281 5.9294L9 0 6.4719 5.9294 0 6.4815l4.9095 4.2294L3.438 17 9 13.6644 14.562 17l-1.4715-6.2891L18 6.4815l-6.4719-.5521z" fill="#fff"/></svg><svg width="28" height="27" viewBox="0 0 28 27" fill="none" xmlns="http://www.w3.org/2000/svg" x="3560"><path d="M14 1.302l3.3886 8.1472a.9998.9998 0 00.8434.6127l8.7956.7052-6.7013 5.7404a.9999.9999 0 00-.3222.9914l2.0474 8.583-7.5302-4.5994a1 1 0 00-1.0426 0l-7.5302 4.5994 2.0474-8.583a.9998.9998 0 00-.3222-.9914L.9724 10.7671l8.7956-.7052a.9998.9998 0 00.8434-.6127L14 1.302z" stroke="#043D75"/></svg><svg width="24" height="24" viewBox="0 0 24 24" fill="none" xmlns="http://www.w3.org/2000/svg" x="3608"><path fill-rule="evenodd" clip-rule="evenodd" d="M12 19c3.866 0 7-3.134 7-7s-3.134-7-7-7-7 3.134-7 7 3.134 7 7 7zm0 2c4.9706 0 9-4.0294 9-9s-4.0294-9-9-9-9 4.0294-9 9 4.0294 9 9 9z" fill="#959DAE"/><path fill="#959DAE" d="M16.9498 5.636l1.4142 1.4143L7.0503 18.364 5.636 16.9498z"/></svg><svg width="18" height="18" viewBox="0 0 18 18" xmlns="http://www.w3.org/2000/svg" x="3652"><path d="M0 9l9-9h9L9 9zm0 9.0001L9 9l9 .0001-9 9z" fill="#00D664"/></svg><svg width="32" height="32" viewBox="0 0 32 32" fill="none" xmlns="http://www.w3.org/2000/svg" x="3690"><path d="M0 16.0001l16-16h16l-16 16H0zm0 16.0001l16-16.0001 16 .0001-16 16H0z" fill="#00D664"/></svg><svg width="10" height="12" viewBox="0 0 10 12" fill="none" xmlns="http://www.w3.org/2000/svg" x="3742"><path fill-rule="evenodd" clip-rule="evenodd" d="M6.6667 0H3.3333v1.1429h3.3334V0zM4.4444 7.4286h1.1112V4H4.4444v3.4286zm4.4445-3.7715l.8333-.8c-.2778-.2857-.5555-.5714-.8333-.8l-.7778.8C7.2778 2.1714 6.1667 1.7143 5 1.7143 2.2222 1.7143 0 4 0 6.857 0 9.7143 2.2222 12 5 12s5-2.2857 5-5.1429c0-1.2-.3889-2.3428-1.1111-3.2zM5 10.8571c-2.1667 0-3.8889-1.7714-3.8889-4 0-2.2285 1.7222-4 3.8889-4s3.8889 1.7715 3.8889 4c0 2.2286-1.7222 4-3.8889 4z" fill="#909294"/></svg><svg xmlns="http://www.w3.org/2000/svg" width="16" height="16" viewBox="0 0 16 16" fill="none" x="3772"><path fill-rule="evenodd" clip-rule="evenodd" d="M8 13c2.7614 0 5-2.2386 5-5s-2.2386-5-5-5-5 2.2386-5 5 2.2386 5 5 5zm0 1c3.3137 0 6-2.6863 6-6s-2.6863-6-6-6-6 2.6863-6 6 2.6863 6 6 6z" fill="#fff"/><path fill="#fff" d="M6 0h4v1H6zm1.5 5h1v4h-1zm3.9691-1.2407l1.7529-1.7529.707.7072-1.7528 1.7528z"/></svg><svg width="14" height="18" viewBox="0 0 14 18" fill="none" xmlns="http://www.w3.org/2000/svg" x="3808"><path fill-rule="evenodd" clip-rule="evenodd" d="M1 16c0 1.1.9 2 2 2h8c1.1 0 2-.9 2-2V4H1v12zM14 1h-3.5l-1-1h-5l-1 1H0v2h14V1z" fill="#00D664"/></svg><svg width="25" height="24" viewBox="0 0 25 24" xmlns="http://www.w3.org/2000/svg" x="3842"><path fill="#00C9FF" d="M24.34 2.34v8.17l-24 9.66z"/><path d="M20.14 1.71v14.32c0 2-.8 3.91-2.23 5.33a7.65 7.65 0 01-10.77 0 7.5 7.5 0 01-2.23-5.33V10l4.57-2.5v8.53a2.63 2.63 0 001.57 2.72 2.7 2.7 0 003.65-1.62c.12-.35.15-.73.11-1.1V4.6l5.33-2.89z" fill="#0D67FE"/></svg><svg width="10" height="10" viewBox="0 0 10 10" fill="none" xmlns="http://www.w3.org/2000/svg" x="3887"><path fill-rule="evenodd" clip-rule="evenodd" d="M5 6.2575c.6188 0 1.2974.0898 2.036.2694.8383.2096 1.5169.489 2.0359.8384.6187.4092.9281.8682.9281 1.3772V10H0V8.7425c0-.509.3094-.968.9281-1.3772.519-.3493 1.1976-.6288 2.036-.8384.7385-.1796 1.4171-.2694 2.0359-.2694zM5 5c-.4491 0-.8633-.1123-1.2425-.3368a2.5406 2.5406 0 01-.9057-.9057c-.2246-.3793-.3368-.7934-.3368-1.2425 0-.449.1122-.8683.3368-1.2575.2245-.3892.5264-.6961.9057-.9207C4.1367.1123 4.551 0 5 0c.4491 0 .8633.1123 1.2425.3368.3793.2246.6812.5315.9057.9207.2246.3892.3368.8084.3368 1.2575 0 .449-.1122.8632-.3368 1.2425a2.5406 2.5406 0 01-.9057.9057C5.8633 4.8877 5.449 5 5 5z" fill="#909294"/></svg><svg width="18" height="17" viewBox="0 0 18 17" fill="none" xmlns="http://www.w3.org/2000/svg" x="3917"><path fill-rule="evenodd" clip-rule="evenodd" d="M16.9036 14.5987c-.6922 2.0585-2.3851 2.9111-4.3896 2.0946-2.8869-1.176-5.3751-2.758-7.4122-4.795C3.0647 9.8611 1.4827 7.3729.3068 4.486-.5098 2.4815.3428.7886 2.4013.0964c.3695-.1243.7313-.133 1.0946.0008.8778.323 3.1008 3.3826 3.1507 4.2982.0382.702-.439 1.0824-.9125 1.4038-.8944.6076-.8994 1.378-.5172 2.237.3847.8645.8781 1.621 1.502 2.2448.624.624 1.3804 1.1174 2.2449 1.5021.8591.3823 1.6294.3773 2.237-.5172.3214-.4735.7017-.9507 1.4039-.9125.9155.0499 3.9753 2.2729 4.2983 3.1507.1335.3633.1249.725.0006 1.0946zM13.881 6.6684c-.0725-.8579-.4615-1.6888-1.0955-2.3394-.663-.6805-1.524-1.0994-2.424-1.1795a3.386 3.386 0 00-.7378.0146c-.3024.0395-.5805-.1802-.6192-.4914-.0387-.3112.1757-.5957.4788-.6355.323-.042.6495-.0485.9738-.0195 1.1593.1032 2.2642.6388 3.1111 1.508.818.8394 1.3207 1.9206 1.4157 3.0446a4.5202 4.5202 0 01-.0177.9332c-.0355.2869-.2737.4965-.5483.4965a.5572.5572 0 01-.0704-.0045c-.3033-.0396-.5179-.324-.4793-.635a3.349 3.349 0 00.0129-.6921h-.0001z" fill="#fff"/><path fill-rule="evenodd" clip-rule="evenodd" d="M11.8124 7.121c-.0804-.9468-.9805-1.8203-1.9654-1.9075a1.7883 1.7883 0 00-.2317-.0057c-.3257.0133-.6013-.245-.6148-.5778-.0134-.3328.24-.6138.566-.6275a2.9758 2.9758 0 01.3825.009c1.5739.1393 2.9095 1.4594 3.0408 3.0053.012.1414.0134.283.0042.421-.0212.3183-.2809.5622-.589.5622a.5684.5684 0 01-.0407-.0014c-.3256-.0227-.5716-.3104-.5494-.6428a1.5597 1.5597 0 00-.0025-.2348zm6.09 1.3737c-.051.2963-.306.5053-.594.5053a.5998.5998 0 01-.1041-.0091c-.3284-.0576-.5485-.3731-.4914-.7048.0802-.466.1-.944.059-1.421-.1199-1.3962-.7509-2.7355-1.7767-3.7711-1.0576-1.0678-2.4401-1.7258-3.893-1.853a5.7205 5.7205 0 00-1.404.049c-.3295.0526-.6384-.1742-.6907-.5065-.0522-.3325.1724-.6447.5017-.6975a6.925 6.925 0 011.6973-.0593c1.7355.1519 3.3841.9351 4.6424 2.2054 1.2264 1.2382 1.9814 2.8462 2.1259 4.5277a6.7996 6.7996 0 01-.0724 1.735v-.0001z" fill="#fff"/></svg><svg xmlns="http://www.w3.org/2000/svg" width="24" height="24" x="3955"><path d="M6.688 8.344c2.933-3.125 7.69-3.125 10.625 0l.355.375a.416.416 0 010 .566l-1.207 1.285a.18.18 0 01-.266 0l-.488-.52c-2.047-2.179-5.367-2.179-7.414 0l-.52.555a.18.18 0 01-.265 0l-1.211-1.28a.416.416 0 010-.567zm13.125 2.66l1.074 1.148a.408.408 0 010 .567l-4.852 5.164a.355.355 0 01-.527 0l-3.442-3.668a.09.09 0 00-.132 0l-3.442 3.668a.355.355 0 01-.527 0l-4.852-5.164a.408.408 0 010-.567l1.075-1.148a.36.36 0 01.53 0l3.438 3.668c.04.039.098.039.137 0l3.441-3.668a.355.355 0 01.528 0l3.441 3.668a.09.09 0 00.133 0l3.441-3.668a.364.364 0 01.535 0zm0 0" fill="#3b99fc"/></svg><svg width="24" height="24" viewBox="0 0 24 24" fill="none" xmlns="http://www.w3.org/2000/svg" x="3999"><path d="M3 6v12c0 1.1046.8954 2 2 2h14c1.1046 0 2-.8954 2-2v-8c0-1.1046-.8954-2-2-2H5c-1.1046 0-2-.8954-2-2v0c0-1.1046.8954-2 2-2h12c1.1046 0 2 .8954 2 2v1.5" stroke="#13DA5A" stroke-width="2"/><path d="M20 12h-2c-1.1046 0-2 .8954-2 2v0c0 1.1046.8954 2 2 2h2" stroke="#13DA5A" stroke-width="2"/></svg><svg width="34" height="21" viewBox="0 0 34 21" fill="none" xmlns="http://www.w3.org/2000/svg" x="4043"><path fill-rule="evenodd" clip-rule="evenodd" d="M16.3617.0007c.8761 0 1.7096.2044 2.4574.5701.1172.0538.2352.1185.3522.1832l-.5125.4634-.769-.8078-1.3244 1.184-.78-.8502-2.436 2.207 1.5598 1.733-.609.5376 1.5386 1.733-.609.5383 2.2013 2.4652 1.3026-1.206 1.133 1.2923c-.2246.1722-.4703.3448-.737.4951a5.5463 5.5463 0 01-2.757.7315c-3.0874 0-5.598-2.5289-5.598-5.6398C10.7643 2.5412 13.2749 0 16.362 0l-.0003.0007z" fill="#006CB4"/><path fill-rule="evenodd" clip-rule="evenodd" d="M15.336 5.2857l1.3359-1.206 1.1964 1.346-1.3359 1.2054-1.1964-1.3457v.0003zm.9507 2.3255l1.3255-1.2167 1.2069 1.3458-1.3359 1.206-1.1961-1.335h-.0004zm-1.9008-4.6184l1.3349-1.2053 1.1971 1.3454-1.3359 1.206-1.1961-1.3461zm2.4463-.6454l.9931-.9044.8976 1.001-.9941.9149-.8973-1.0115h.0007zm1.7731 4.144l.9931-.904.8977 1.0116-.9938.9047-.8973-1.0123h.0003zm.8758 2.0348l.9938-.9044.897 1.0009-.9935.915-.8973-1.0115zm.406-4.6509l.6627-.6024.5979.6674-.6621.6027-.5989-.6677h.0004zm-.8546-1.9913l.6627-.6132.5986.6783-.6628.603-.5982-.6677-.0003-.0004zm1.6992 3.9836l.662-.603.6086.6673-.6731.6027-.5979-.667h.0004zM17.751 4.3708l.9935-.904.8973 1.001-.9931.9042-.8977-1.001v-.0002z" fill="#006CB4"/><path d="M2.9303 15.9134H2.88l-.9462 3.6627h-.773L0 14.3728h.8026l.8022 3.8823h.05l.931-3.8823h.6377l.996 3.8823H4.27l.7308-3.8823h.8383l-1.161 5.2033h-.7738l-.974-3.6627zm3.9269 1.4472h1.6402c-.0357-.7703-.4015-1.0787-.7884-1.0787-.4372 0-.7737.3456-.8522 1.0787h.0004zm2.2134 1.38v.5582c-.3227.191-.7522.3378-1.2686.3378-1.204 0-1.6974-.7636-1.6974-1.923 0-1.1159.5517-1.923 1.626-1.923.8952 0 1.447.5942 1.447 1.7904v.2716H6.8422c0 .8807.3504 1.2697 1.0888 1.2697.3872 0 .7453-.14 1.1392-.382l.0003.0004v-.0001zm1.7742.3078c.229.1025.4802.1174.6592.1174.531 0 .931-.3378.931-1.5269 0-.932-.3296-1.2325-.8092-1.2325-.2866 0-.4944.0806-.7807.2419v2.3997l-.0003.0004zm.007-2.9426c.215-.1174.58-.2724.9673-.2724.8883 0 1.3685.6314 1.3685 1.8056 0 1.3723-.6454 2.0407-1.6835 2.0407-.38 0-.9674-.1252-1.3974-.3607v-5.121l.7454-.1839v2.0917h-.0004.0001zm5.5608 2.3661h.0354l1.5326-4.1027h.8883v5.2037h-.7738v-3.7723h-.0642l-1.4615 3.7723h-.458l-1.4615-3.684h-.065v3.684h-.6446v-5.2037h.8674l1.6049 4.1027zm5.6177-.7583c0-.9903-.3935-1.4087-.8803-1.4087-.4726 0-.8814.418-.8814 1.4087 0 1.0055.3727 1.4087.8814 1.4087.5083 0 .8806-.4032.8806-1.409l-.0003.0003zm-2.5132-.0003c0-1.2846.6877-1.923 1.6332-1.923.9463 0 1.6337.638 1.6337 1.9226 0 1.2545-.6517 1.923-1.6333 1.923-.982 0-1.6333-.6685-1.6333-1.923l-.0003.0004zm3.8331-1.3794c.3227-.198 1.0035-.5433 1.8266-.5433.8598 0 1.1818.3445 1.1818 1.1v2.6576h-.7446v-2.4875c0-.58-.2786-.6826-.6447-.6826-.2863 0-.6524.1324-.8744.2642v2.9062h-.7447v-3.215.0004zm4.5858 1.0267h1.6399c-.0347-.7703-.4008-1.0787-.7877-1.0787-.4372 0-.7737.3456-.8525 1.0787h.0003zm2.2128 1.38v.5582c-.322.191-.752.3378-1.2683.3378-1.2023 0-1.6967-.7636-1.6967-1.923 0-1.1159.551-1.923 1.6256-1.923.8952 0 1.4476.5942 1.4476 1.7904v.2716h-2.3352c0 .8807.3505 1.2697 1.0882 1.2697.3869 0 .746-.14 1.1388-.382v.0004-.0001zm3.0844-2.9496H34l-1.297 3.6677C32.3445 20.4716 31.9084 21 31.0843 21v-.6005c.4871 0 .7876-.3962.96-.9401l-1.3754-3.6684h.7877l.9174 2.7h.043l.8162-2.7004v.0004z" fill="#fff"/></svg></svg>