<svg width="1459" height="1000" viewBox="0 0 1459 1000" xmlns="http://www.w3.org/2000/svg"><svg width="24" height="24" viewBox="0 0 24 24" xmlns="http://www.w3.org/2000/svg"><g fill="#00D664"><path d="M17.87 17.142a.81.81 0 01-.809.81H7.682a.81.81 0 01-.81-.81v-8.38c2.458-.008 8.194-.008 10.999 0v8.38zM10.346 4.467a.188.188 0 01-.08.251.188.188 0 01-.252-.081L8.83 2.326a.187.187 0 01.333-.17l1.184 2.31zm4.318.097a.185.185 0 01-.255.067.185.185 0 01-.067-.254l1.298-2.248a.185.185 0 01.254-.068c.09.05.12.165.07.254l-1.3 2.249zm6.07 10.306a1.181 1.181 0 01-2.363 0V9.702c0-.653.529-1.18 1.182-1.18.653 0 1.181.527 1.181 1.18v5.168zm-14.37 0a1.18 1.18 0 01-2.362 0V9.702a1.18 1.18 0 012.362 0v5.168z"/><path d="M11.506 20.784a1.18 1.18 0 11-2.362 0v-5.168c0-.651.528-1.182 1.18-1.182.653 0 1.182.53 1.182 1.182v5.168zm4.097 0a1.181 1.181 0 01-2.363 0v-5.168c0-.651.528-1.182 1.18-1.182.653 0 1.183.53 1.183 1.182v5.168zM12.372 3.241c-2.873 0-5.238 2.186-5.554 4.996h11.107c-.315-2.81-2.68-4.996-5.553-4.996zM9.866 6.27a.462.462 0 11-.003-.924.462.462 0 01.003.924zm5.021 0a.462.462 0 11-.001-.923.462.462 0 01.001.923z"/></g></svg><svg width="24" height="24" viewBox="0 0 24 24" fill="none" xmlns="http://www.w3.org/2000/svg" x="44"><path fill-rule="evenodd" clip-rule="evenodd" d="M7.7335 11.2092a.7003.7003 0 00-.9984 0L2 16l4.735 4.7908a.7003.7003 0 00.9985 0c.2757-.279.2757-.7312 0-1.0102l-3.0307-3.0663h9.5912c.3899 0 .706-.3198.706-.7143 0-.3945-.3161-.7143-.706-.7143H4.7028l3.0307-3.0663c.2757-.279.2757-.7312 0-1.0102zm8.533-8a.7002.7002 0 01.9984 0L22 8l-4.7351 4.7908a.7003.7003 0 01-.9984 0c-.2757-.279-.2757-.7312 0-1.0102l3.0307-3.0663H9.706C9.316 8.7143 9 8.3945 9 8c0-.3945.316-.7143.706-.7143h9.5912l-3.0307-3.0663c-.2757-.279-.2757-.7312 0-1.0102z" fill="#959DAE" stroke="#959DAE" stroke-width=".6" stroke-linecap="round"/></svg><svg width="24" height="24" viewBox="0 0 24 24" fill="none" xmlns="http://www.w3.org/2000/svg" x="88"><path d="M16.7394 4.7387L16.4951 2.84c-.086-.6683-.6821-1.151-1.3536-1.0962l-2.3176.1891c-.2419.0197-.484-.032-.7009-.1407-1.0354-.519-1.952-.8115-2.9599-.7911-.6701.0136-1.1691.572-1.2778 1.2334l-.544 3.309c1.1786-.356 2.4982-.6339 3.9015-.8029 2.0071-.2417 3.9005-.2264 5.4966-.0018z" fill="url(#banksters-icon_svg__paint0_linear_17010_158466)"/><path d="M11.3338 5.4957C5.9818 6.1402 1.806 8.015 2.007 9.6832c.1405 1.1671 2.3367 1.9234 5.5059 2.0519v-4.305a.2493.2493 0 01.2493-.2492l.9678.0003v-.5646a.2493.2493 0 01.2492-.2493H15.46a.2493.2493 0 01.2493.2493v.7477a.2498.2498 0 01-.0072.0597c.0232.0058.0464.011.0695.0151.3411.105.6269.285.864.5141.6544.6323.6658 1.617.669 2.5269 2.5595-.8565 4.2106-2.0772 4.0837-3.131-.2009-1.6682-4.7024-2.498-10.0544-1.8534z" fill="url(#banksters-icon_svg__paint1_linear_17010_158466)"/><path fill-rule="evenodd" clip-rule="evenodd" d="M8.194 7.8417h1.3035V7.115a.1246.1246 0 01.1246-.1246h1.9743a.1246.1246 0 01.1247.1246v.6035l.1669.0001.8301.0005V7.115a.1246.1246 0 01.1246-.1246h2.043a.1247.1247 0 01.1246.1247v.7823c.0433.0064.0865.0135.1294.0213.9199.1706 1.4822.7733 1.529 1.702.0345.6965.0352.8002.0363 1.3182.0004.183.0008.3871.0028.6337l.0027.3149v.0008c.0008.0773.0011.1162.0011.155s-.0003.0776-.0011.1549v.0008l-.0027.3149c-.005.7531-.1567 1.4304-.9931 1.745.0716.0336.1416.0627.2091.0909.141.0587.2716.1132.3835.1934.3866.2767.5509.6874.5534 1.1473.0089 1.5643.0063 2.6232-.0025 4.1862 0 .2388-.0354.4827-.0885.7164-.2059.8934-.6987 1.3495-1.611 1.4948l-.0177.0028v.7846a.1246.1246 0 01-.1246.1246h-2.1737a.1246.1246 0 01-.1246-.1246v-.7145a947.262 947.262 0 01-.8318.0006l-.1652.0001v.7138a.1246.1246 0 01-.1247.1246H9.706a.1246.1246 0 01-.1246-.1246v-.7139l-1.1726-.0002a1.607 1.607 0 01-.1238-.0064 4.422 4.422 0 00-.091-.0062V7.8417zm3.3282 2.681v2.7558c.1621 0 .3226.001.4818.0019.3851.0024.7634.0047 1.1406-.007.2401-.0075.3475-.1933.3487-.4132l.0017-.3164c.0019-.3704.0028-.5293.0029-.6881.0001-.119-.0002-.238-.0007-.4461l-.0001-.0187c-.0003-.1354-.0008-.3077-.0012-.5397 0-.1908-.0961-.3247-.3058-.326-.3617-.0025-.7233-.0017-1.0934-.0009h-.0016c-.188.0005-.3783.0009-.5717.0009l-.0012-.0025zm.4446 8.6999c.4381.0024.8607.0046 1.2827-.0142.0947-.0038.2615-.1681.2628-.2603.0177-1.0892.0189-1.673-.0051-2.7622-.0025-.1187-.1857-.3272-.2956-.3335-.4118-.0251-.8249-.0215-1.2435-.0179a48.6182 48.6182 0 01-.4535.0027v3.3838h.0013c.1524 0 .3025.0008.4509.0016z" fill="url(#banksters-icon_svg__paint2_linear_17010_158466)"/><defs><linearGradient id="banksters-icon_svg__paint0_linear_17010_158466" x1="11.7024" y1="23.0023" x2="11.7024" y2="1.0012" gradientUnits="userSpaceOnUse"><stop stop-color="#EA2554"/><stop offset="1" stop-color="#F9413E"/></linearGradient><linearGradient id="banksters-icon_svg__paint1_linear_17010_158466" x1="11.7024" y1="23.0023" x2="11.7024" y2="1.0012" gradientUnits="userSpaceOnUse"><stop stop-color="#EA2554"/><stop offset="1" stop-color="#F9413E"/></linearGradient><linearGradient id="banksters-icon_svg__paint2_linear_17010_158466" x1="11.7024" y1="23.0023" x2="11.7024" y2="1.0012" gradientUnits="userSpaceOnUse"><stop stop-color="#EA2554"/><stop offset="1" stop-color="#F9413E"/></linearGradient></defs></svg><svg width="24" height="24" viewBox="0 0 24 24" fill="none" xmlns="http://www.w3.org/2000/svg" x="132"><path d="M20 18H4c-.5523 0-1-.4477-1-1v-.3866a.8155.8155 0 01.3333-.6578l.888-.6512A4.3529 4.3529 0 006 11.7942V8c0-3.3137 2.6863-6 6-6s6 2.6863 6 6v3.7942a4.3528 4.3528 0 001.7788 3.5102l.8879.6512a.8156.8156 0 01.3333.6578V17c0 .5523-.4477 1-1 1z" stroke="#fff" stroke-width="2"/><path d="M9 20h6c0 1.6569-1.3431 3-3 3s-3-1.3431-3-3z" fill="#fff"/></svg><svg width="19" height="15" viewBox="0 0 19 15" xmlns="http://www.w3.org/2000/svg" x="176"><path d="M0 2.5556C2 2 3.5.5 5.5.5 8.5.5 9 2.5556 9 2.5556V15s-.5-2-3.5-2c-2 0-3.5 1.5-5.5 2V2.5556zm19 0C17 2 15.5.5 13.5.5c-3 0-3.5 2.0556-3.5 2.0556V15s.5-2 3.5-2c2 0 3.5 1.5 5.5 2V2.5556z" fill="#959DAE"/></svg><svg width="24" height="24" viewBox="0 0 24 24" fill="none" xmlns="http://www.w3.org/2000/svg" x="215"><g clip-path="url(#coin-stack_svg__a)" fill="#959DAE"><path d="M6.97 15.01c.68 0 1.33-.04 1.95-.12V8.12C8.3 8.04 7.65 8 6.97 8 3.12 8 0 9.42 0 11.16v.69C0 13.6 3.12 15 6.97 15zm0 3.53c.68 0 1.33-.04 1.95-.12v-1.98c-.62.08-1.27.12-1.95.12-3.36 0-6.16-1.08-6.82-2.51-.1.2-.15.42-.15.64v.69c0 1.75 3.12 3.16 6.97 3.16zm1.95 1.58v-.15c-.62.08-1.27.12-1.95.12-3.36 0-6.16-1.08-6.82-2.51-.1.2-.15.42-.15.64v.69c0 1.75 3.12 3.16 6.97 3.16.77 0 1.51-.05 2.2-.16a2.5 2.5 0 01-.25-1.1v-.69zm8.11-18.78c-3.85 0-6.98 1.41-6.98 3.16v.69c0 1.74 3.13 3.16 6.98 3.16 3.85 0 6.97-1.42 6.97-3.16V4.5c0-1.75-3.12-3.16-6.97-3.16z"/><path d="M17.03 9.9c-3.36 0-6.17-1.08-6.83-2.52-.1.21-.15.43-.15.65v.69c0 1.74 3.13 3.16 6.98 3.16 3.85 0 6.97-1.42 6.97-3.16v-.69c0-.22-.05-.44-.15-.65-.66 1.44-3.46 2.52-6.82 2.52z"/><path d="M17.03 13.43c-3.36 0-6.17-1.08-6.83-2.52-.1.21-.15.43-.15.65v.69c0 1.74 3.13 3.16 6.98 3.16 3.85 0 6.97-1.42 6.97-3.16v-.69c0-.22-.05-.44-.15-.65-.66 1.44-3.46 2.52-6.82 2.52z"/><path d="M17.03 17.15c-3.36 0-6.17-1.08-6.83-2.51-.1.2-.15.42-.15.64v.69c0 1.75 3.13 3.16 6.98 3.16 3.85 0 6.97-1.41 6.97-3.16v-.69c0-.22-.05-.44-.15-.64-.66 1.43-3.46 2.51-6.82 2.51z"/><path d="M17.03 20.68c-3.36 0-6.17-1.08-6.83-2.51-.1.2-.15.42-.15.64v.69c0 1.75 3.13 3.16 6.98 3.16 3.85 0 6.97-1.41 6.97-3.16v-.69c0-.22-.05-.43-.15-.64-.66 1.43-3.46 2.51-6.82 2.51z"/></g><defs><clipPath id="coin-stack_svg__a"><path fill="#fff" d="M0 0h24v24H0z"/></clipPath></defs></svg><svg width="23" height="19" viewBox="0 0 23 19" xmlns="http://www.w3.org/2000/svg" xmlns:xlink="http://www.w3.org/1999/xlink" x="259"><defs><path id="a" d="M0 .2h5.9v18.6H0z"/></defs><g fill="none"><mask id="b" fill="#fff"><use xlink:href="#a"/></mask><path d="M.6-1.3a2.3 2.3 0 014.7 0v16.1a2.3 2.3 0 11-4.7 0v-16z" stroke="#959DAE" stroke-width="1.3" mask="url(#b)"/><path d="M3 17.2h15.6c1.9 0 3.4-1.5 3.4-3.4V.8H5.8" stroke="#959DAE" stroke-width="1.3"/><path stroke="#959DAE" stroke-width=".8" d="M7.6 11.4h9.3m-.8-5.9h2.5m-11 7.6h8.5M7.6 9.7h11m-2.5-5.9h3.4M3 .4v14.4"/><path fill="#959DAE" d="M14.4 3.4H7.6v4.2h6.8z"/></g></svg><svg width="24" height="24" viewBox="0 0 24 24" fill="none" xmlns="http://www.w3.org/2000/svg" x="302"><path d="M21.435 8.245l.0092-.0092C21.7975 7.9192 22 7.47 22 7.0008c0-.9191-.7475-1.6666-1.6667-1.6666h-1.165c-.0908-.0925-.2542-.3317-.3892-.5283-.6708-.98-1.9191-2.805-4.2791-2.805-3.2625 0-5 2.6616-5 4.5833 0 1.3216.89 2.7933 1.4058 3.5342-.3975.1033-1.0183.2158-1.8225.2158-1.5608 0-2.6992-.1617-4.2442-2.3258a.419.419 0 00-.2725-.1692.419.419 0 00-.3116.0742C2.9008 8.8973 2 10.1108 2 12.8333 2 15.59 3.0558 22 12.8333 22c8.3283 0 8.75-5.5533 8.75-6.6666 0-2.0409-.5833-3.8334-2.6858-5.3242.7033-.4333 2.0558-1.2917 2.5375-1.7642zm-6.1017-3.0555c.5835 0 1.0279.3457 1.0279.978 0 .5218-.3769 1.0218-1.0279 1.0218-.6509 0-1.0398-.5123-1.0398-1.0218 0-.5095.3395-.978 1.0398-.978zM13.5 16.5004c-2.5867 0-3.5-.5-4.36-1.3233-.0308-.0584-.055-.1067-.0741-.1425a.4201.4201 0 01-.0992-.1459c-.0583-.1216-.0442-.2633.0333-.3883.0533-.0867.1392-.1417.235-.1667a.419.419 0 01.2925.0184c.2083.0666.9725.1483 1.4725.1483 1 0 1.5.0052 2-.1667.5-.1718 1.3047-.8333 2-.8333s1.5.1567 1.5 1c0 1-.8623 2-3 2z" fill="#959DAE"/></svg><svg width="24" height="24" viewBox="0 0 24 24" fill="none" xmlns="http://www.w3.org/2000/svg" x="346"><path d="M12 2C6.486 2 2 6.486 2 12c0 5.5139 4.486 10 10 10a10.014 10.014 0 004.1122-.8825c.5033-.2268.6651-.8434.3887-1.3214l-.2502-.4329c-.2765-.4782-.8867-.6348-1.3978-.425A7.5183 7.5183 0 0112 19.5c-4.1357 0-7.5-3.3643-7.5-7.5S7.8643 4.5 12 4.5s7.5 3.3643 7.5 7.5v1.0889c0 .8178-.5255 1.4111-1.25 1.4111-.6891 0-1.25-.5609-1.25-1.25v-5h-1.728C14.3927 7.4818 13.2566 7 12 7c-2.757 0-5 2.243-5 5s2.243 5 5 5c1.3129 0 2.4999-.5192 3.393-1.3498C16.0814 16.4683 17.0996 17 18.25 17c2.1027 0 3.75-1.7181 3.75-3.9111V12c0-5.514-4.4861-10-10-10zm0 12.5c-1.3788 0-2.5-1.1212-2.5-2.5s1.1212-2.5 2.5-2.5 2.5 1.1212 2.5 2.5-1.1212 2.5-2.5 2.5z" fill="#00D36E"/></svg><svg width="24" height="24" viewBox="0 0 24 24" fill="none" xmlns="http://www.w3.org/2000/svg" x="390"><path fill-rule="evenodd" clip-rule="evenodd" d="M22 12c0 5.5228-4.4772 10-10 10-5.5229 0-10-4.4772-10-10C2 6.4771 6.4771 2 12 2c5.5228 0 10 4.4771 10 10zM10.2481 7.9846C10.1163 6.9308 10.938 6 12 6s1.8837.9308 1.7519 1.9846L13 14h-2l-.7519-6.0154zM12 18c.5523 0 1-.4477 1-1s-.4477-1-1-1-1 .4477-1 1 .4477 1 1 1z" fill="#00D36E"/></svg><svg width="24" height="24" viewBox="0 0 24 24" fill="none" xmlns="http://www.w3.org/2000/svg" x="434"><path fill-rule="evenodd" clip-rule="evenodd" d="M12.736 1.8003c-.3961-.4307-1.0759-.4307-1.472 0L9.959 3.2192a1 1 0 01-.9893.2905l-1.8649-.4882c-.5661-.1482-1.138.2193-1.2384.7959l-.3307 1.8992a1 1 0 01-.6751.7792l-1.8328.5976c-.5564.1814-.8388.7997-.6115 1.339l.7485 1.7765a1 1 0 01-.1467 1.0205L1.7994 12.723c-.37.4534-.2733 1.1263.2095 1.4571l1.5901 1.0898a.9999.9999 0 01.4283.9378l-.2177 1.9154c-.0661.5815.379 1.0952.964 1.1125l1.9269.0571a1 1 0 01.8673.5574l.8524 1.7291c.2588.5249.911.7164 1.4124.4147l1.6519-.9938a1 1 0 011.031 0l1.6519.9938c.5014.3017 1.1537.1102 1.4124-.4147l.8524-1.7291a.9998.9998 0 01.8673-.5574l1.9269-.0571c.585-.0173 1.0301-.531.964-1.1125l-.2177-1.9154a.9996.9996 0 01.4283-.9378l1.5901-1.0898c.4828-.3308.5795-1.0037.2095-1.4571l-1.2187-1.4936a.9999.9999 0 01-.1467-1.0205l.7485-1.7765c.2273-.5393-.0551-1.1576-.6115-1.339l-1.8328-.5976a1 1 0 01-.6751-.7792l-.3307-1.8992c-.1004-.5766-.6723-.944-1.2384-.7959l-1.8649.4882a1 1 0 01-.9893-.2905l-1.305-1.4189zM15 17c1.1046 0 2-.8954 2-2s-.8954-2-2-2-2 .8954-2 2 .8954 2 2 2zm-4-8c0 1.1046-.8954 2-2 2s-2-.8954-2-2 .8954-2 2-2 2 .8954 2 2zm5.7071-.2929c.3905-.3905.3905-1.0237 0-1.4142-.3905-.3905-1.0237-.3905-1.4142 0l-8 8c-.3905.3905-.3905 1.0237 0 1.4142.3905.3905 1.0237.3905 1.4142 0l8-8z" fill="#959DAE"/></svg><svg width="24" height="24" viewBox="0 0 24 24" fill="none" xmlns="http://www.w3.org/2000/svg" x="478"><path d="M20.8946 11.9808a4.3337 4.3337 0 00-2.7028-1.2987c.8788-.8071 1.4333-1.9723 1.4333-3.2739 0-2.435-1.933-4.4082-4.3188-4.4082C13.0276 3 11.1619 4.8018 11 7.0852c2.0272.8952 3.4498 2.9575 3.4498 5.3517a5.9163 5.9163 0 01-.5573 2.5042 5.766 5.766 0 011.4226 1.0705c1.0755 1.1054 1.6866 2.6339 1.675 4.1922l-.0009.0317-.0009.027-.0381.7375h3.0496c1.1046 0 2-.8954 2-2v-3.9322c.0088-1.1913-.2821-2.2415-1.1052-3.087z" fill="#959DAE"/><path d="M11.8871 15.7c.8952-.8084 1.4622-1.9766 1.4622-3.2811C13.3493 9.978 11.3782 8 8.947 8c-2.4317 0-4.4024 1.978-4.4024 4.4189 0 1.3021.5647 2.4694 1.4585 3.2783-2.289.178-3.9865 1.8792-4.0031 4.2218V20c0 .5523.4477 1 1 1h12.9999v-1.081c.0085-1.1934-.5197-2.071-1.3581-2.9183-.7406-.7496-1.7176-1.2043-2.7547-1.3007z" fill="#959DAE"/></svg><svg width="24" height="24" viewBox="0 0 24 24" fill="none" xmlns="http://www.w3.org/2000/svg" x="522"><path fill-rule="evenodd" clip-rule="evenodd" d="M20.0511 17.9324C21.276 16.2728 22 14.2209 22 12c0-2.221-.724-4.2728-1.9489-5.9324l-4.0255 2.9662A4.9778 4.9778 0 0117 12a4.9773 4.9773 0 01-.9745 2.9662l4.0256 2.9662zm-2.1187 2.1187l-2.9662-4.0256A4.9773 4.9773 0 0112 17a4.9778 4.9778 0 01-2.9662-.9744l-2.9662 4.0255C7.7272 21.276 9.7791 22 12 22c2.2209 0 4.2728-.724 5.9324-1.9489zm0-16.1022l-2.9662 4.0256A4.9775 4.9775 0 0012 7a4.9776 4.9776 0 00-2.9662.9745L6.0676 3.9489C7.7272 2.724 9.7791 2 12 2c2.221 0 4.2728.724 5.9324 1.949zm-9.958 5.085A4.9776 4.9776 0 007 12c0 1.1105.362 2.1364.9745 2.9662l-4.0256 2.9662C2.724 16.2728 2 14.221 2 12c0-2.221.724-4.2728 1.949-5.9324l4.0255 2.9662z" fill="#959DAE"/></svg><svg width="24" height="24" viewBox="0 0 24 24" fill="none" xmlns="http://www.w3.org/2000/svg" x="566"><path fill-rule="evenodd" clip-rule="evenodd" d="M12 2C6.486 2 2 6.486 2 12s4.486 10 10 10 10-4.486 10-10S17.5139 2 12 2zm-1.3163 16.0003L10.5 18c-.5 0-.6964-.1729-.7735-.2828a1.2496 1.2496 0 01-.1514-1.1444l1.8902-5.1978H9.5c-.0017-1.083.8107-1.8794 1.8497-2.185.4959-.146 1.4197-.2206 1.9003-.19.2879.0183.7898.074 1.0235.4079.2344.3339.2906.7611.1514 1.1444l-1.8902 5.1978h1.9647c.0004 1.0818-.7817 2.0053-1.8489 2.1832-.4238.0706-1.405.0683-1.9668.067zM13.5 8c.8284 0 1.5-.6716 1.5-1.5S14.3284 5 13.5 5 12 5.6716 12 6.5 12.6716 8 13.5 8z" fill="#959DAE"/></svg><svg width="22" height="22" fill="none" xmlns="http://www.w3.org/2000/svg" x="610"><path fill-rule="evenodd" clip-rule="evenodd" d="M19.5 0h-9A2.5 2.5 0 008 2.5V3H6.2A2.2 2.2 0 004 5.2V6H2a2 2 0 00-2 2v12a2 2 0 002 2h12a2 2 0 002-2v-2h.8a2.2 2.2 0 002.2-2.2V14h.5a2.5 2.5 0 002.5-2.5v-9A2.5 2.5 0 0019.5 0zM19 13h.5a1.5 1.5 0 001.5-1.5v-9A1.5 1.5 0 0019.5 1h-9A1.5 1.5 0 009 2.5V3h7.8A2.2 2.2 0 0119 5.2V13zm-3 4h.8a1.2 1.2 0 001.2-1.2V5.2A1.2 1.2 0 0016.8 4H6.2A1.2 1.2 0 005 5.2V6h9a2 2 0 012 2v9zM2 7a1 1 0 00-1 1v12a1 1 0 001 1h12a1 1 0 001-1V8a1 1 0 00-1-1H2z" fill="#959dae"/></svg><svg width="24" height="24" viewBox="0 0 24 24" xmlns="http://www.w3.org/2000/svg" x="652"><path d="M11.96 6.385c.858 0 1.933-.58 2.573-1.353.58-.7 1.002-1.68 1.002-2.658 0-.132-.012-.265-.036-.374-.954.036-2.102.64-2.79 1.45-.544.615-1.039 1.582-1.039 2.572 0 .145.024.29.036.338a1.3 1.3 0 00.254.025zM8.94 21c1.172 0 1.691-.785 3.153-.785 1.486 0 1.812.76 3.116.76 1.28 0 2.138-1.183 2.947-2.343.906-1.328 1.28-2.633 1.305-2.693-.085-.024-2.537-1.027-2.537-3.841 0-2.44 1.933-3.54 2.042-3.624-1.28-1.836-3.225-1.884-3.757-1.884-1.437 0-2.609.87-3.346.87-.797 0-1.848-.822-3.092-.822C6.404 6.638 4 8.595 4 12.291c0 2.295.894 4.723 1.993 6.293C6.935 19.913 7.757 21 8.94 21z" fill="#00D664"/></svg><svg width="24" height="24" viewBox="0 0 24 24" fill="none" xmlns="http://www.w3.org/2000/svg" x="696"><path d="M7.4184 7.3516h-.2508l-.4687 2.3437h1.188l-.4685-2.3437zm9.479 4.6875c.253.6796.5896 1.2298.962 1.6979.3724-.4681.748-1.0183 1.001-1.6979h-1.963z" fill="#959DAE"/><path d="M20.2422 5.5547h-7.2767l1.5173 12.1749c.0268.498-.1093.9668-.4343 1.3339L11.479 22h8.7632C21.2115 22 22 21.2115 22 20.2422V7.3516c0-.9693-.7885-1.797-1.7578-1.797zm0 6.4844h-.1565c-.3334 1.0696-.8621 1.9066-1.4115 2.5664.4304.3936.8907.7164 1.3483 1.0779a.5856.5856 0 01.0909.8234.5853.5853 0 01-.8233.091c-.4973-.3924-.964-.721-1.4307-1.1492-.4667.4282-.8944.7568-1.3916 1.1492a.5855.5855 0 01-.8234-.091.5855.5855 0 01.091-.8234c.4576-.3615.8788-.6843 1.3092-1.0779-.5494-.6598-1.0391-1.4968-1.3725-2.5664h-.1565a.5856.5856 0 01-.5859-.586.5856.5856 0 01.5859-.5859h1.7578v-.586a.5856.5856 0 01.586-.5859c.3239 0 .5859.262.5859.5859v.586h1.7969a.5856.5856 0 01.5859.5859c0 .3239-.262.586-.5859.586z" fill="#959DAE"/><path d="M11.5377 3.5398C11.4284 2.662 10.6782 2 9.7936 2H3.7578C2.7885 2 2 2.7885 2 3.7578v12.9688c0 .9693.7885 1.7578 1.7578 1.7578h9.2403c.1709-.1954.3142-.3178.3203-.5728.0014-.0639-1.7728-14.3084-1.7807-14.3718zm-2.3524 9.6597c-.3107.0639-.6254-.1378-.6895-.4595l-.3745-1.8728H6.4647L6.0901 12.74a.5823.5823 0 01-.6895.4595.586.586 0 01-.4595-.6895L6.113 6.6506a.5863.5863 0 01.5745-.471h1.211a.5863.5863 0 01.5744.471L9.6448 12.51a.586.586 0 01-.4595.6895zm-.3391 6.4567l.1005.804c.067.5384.4248 1.0874 1.0132 1.3616l1.9672-2.1656h-3.081z" fill="#959DAE"/></svg><svg width="24" height="24" viewBox="0 0 24 24" fill="none" xmlns="http://www.w3.org/2000/svg" x="740"><path d="M5 20.5c0-.8284.6716-1.5 1.5-1.5h11c.8284 0 1.5.6716 1.5 1.5V22H5v-1.5z" fill="#959DAE"/><rect x="9" y="2" width="6" height="6" rx="3" fill="#959DAE"/><rect x="17" y="3" width="4" height="4" rx="2" fill="#959DAE"/><rect x="3" y="3" width="4" height="4" rx="2" fill="#959DAE"/><path fill="#959DAE" d="M11 4h2v16h-2z"/><path fill="#959DAE" d="M4 4h16v2H4zm20 9a4.9993 4.9993 0 01-1.4645 3.5355A5.0007 5.0007 0 0119 18a4.9993 4.9993 0 01-3.5355-1.4645A5.0007 5.0007 0 0114 13h10zm-14 0a5 5 0 11-10 0h10z"/><path d="M.5 13L5 5l4.5 8m5 0L19 5l4.5 8" stroke="#959DAE" stroke-linecap="round" stroke-linejoin="round"/></svg><svg width="24" height="24" viewBox="0 0 24 24" fill="none" xmlns="http://www.w3.org/2000/svg" x="784"><path fill-rule="evenodd" clip-rule="evenodd" d="M22 12c0 5.5228-4.4772 10-10 10-5.5229 0-10-4.4772-10-10C2 6.4771 6.4771 2 12 2c5.5228 0 10 4.4771 10 10zM8.7451 6.8609c.3684.4115.3333 1.0437-.0782 1.412C7.6424 9.19 7 10.5193 7 12c0 2.7614 2.2386 5 5 5s5-2.2386 5-5c0-1.4807-.6424-2.8101-1.6669-3.727-.4115-.3684-.4466-1.0006-.0782-1.4121.3683-.4116 1.0005-.4466 1.412-.0782C18.0974 8.063 19 9.9267 19 12c0 3.866-3.134 7-7 7s-7-3.134-7-7c0-2.0733.9026-3.937 2.333-5.2173.4116-.3684 1.0438-.3334 1.4121.0782zM12 4c-.5523 0-1 .4477-1 1v6c0 .5523.4477 1 1 1s1-.4477 1-1V5c0-.5523-.4477-1-1-1z" fill="#FF5050"/></svg><svg width="24" height="24" viewBox="0 0 24 24" fill="none" xmlns="http://www.w3.org/2000/svg" x="828"><path d="M3.1099 18.8598l9.4848-9.4848-.4848-.4849a.3748.3748 0 010-.5303l.4848-.4848L8.3599 3.64a.3746.3746 0 01-.0814-.4087A.3747.3747 0 018.625 3c2.8444 0 5.2163 2.0676 6.0037 2.8407l.4812-.4808a.3747.3747 0 01.5302 0l.4849.4848.7046-.7046c.4387-.4387 1.1521-.4387 1.5908 0l.4395.4395c.4387.4387.4387 1.152 0 1.5908l-.7046.7046.4849.4849a.3748.3748 0 010 .5302l-.4809.4813C18.9324 10.1587 21 12.5306 21 15.375a.3747.3747 0 01-.375.375.3748.3748 0 01-.2651-.1099l-4.2349-4.2348-.4849.4849a.3747.3747 0 01-.5302 0l-.4849-.4849-9.4849 9.4848A.3744.3744 0 014.875 21C3.8412 21 3 20.1588 3 19.125a.3747.3747 0 01.1099-.2652z" fill="#959DAE"/></svg><svg width="24" height="24" viewBox="0 0 24 24" fill="none" xmlns="http://www.w3.org/2000/svg" x="872"><path fill-rule="evenodd" clip-rule="evenodd" d="M20 12.1973c-.8825.5105-1.9071.8027-3 .8027-3.3137 0-6-2.6863-6-6 0-1.0929.2922-2.1175.8027-3H7C5.3431 4 4 5.3431 4 7v10c0 1.6569 1.3431 3 3 3h10c1.6569 0 3-1.3431 3-3v-4.8027z" fill="#959DAE"/><circle cx="17" cy="7" r="4" fill="#959DAE"/></svg><svg width="24" height="24" viewBox="0 0 24 24" xmlns="http://www.w3.org/2000/svg" x="916"><path d="M8.04 13.8a2.1603 2.1603 0 012.1516 1.97l.0084.19v2.88a2.1597 2.1597 0 01-1.97 2.1516L8.04 21H5.16a2.16 2.16 0 01-2.1516-1.97L3 18.84v-2.88a2.16 2.16 0 011.97-2.1516l.19-.0084h2.88zm10.8 0a2.16 2.16 0 012.1516 1.97l.0084.19v2.88a2.1596 2.1596 0 01-.6327 1.5273c-.36.36-.834.58-1.3374.6243L18.84 21h-2.88a2.16 2.16 0 01-2.1516-1.97l-.0084-.19v-2.88a2.1602 2.1602 0 011.9701-2.1516L15.96 13.8h2.88zM8.04 3a2.16 2.16 0 012.1516 1.97l.0084.19v2.88a2.16 2.16 0 01-1.97 2.1516l-.19.0084H5.16a2.16 2.16 0 01-2.1516-1.97L3 8.04V5.16a2.16 2.16 0 011.97-2.1516L5.16 3h2.88zm10.8 0a2.1597 2.1597 0 012.1516 1.97L21 5.16v2.88a2.16 2.16 0 01-1.97 2.1516l-.19.0084h-2.88a2.16 2.16 0 01-2.1516-1.97L13.8 8.04V5.16a2.1603 2.1603 0 011.97-2.1516L15.96 3h2.88z" fill="#959DAE"/></svg><svg width="24" height="24" viewBox="0 0 24 24" fill="none" xmlns="http://www.w3.org/2000/svg" x="960"><path d="M19.1129 12.6766h-1.5467C17.7107 12.8618 18 13 18 14v5.5c0 .2024 0 .5-.2893.9827h2.5571c.9551 0 1.7322-.7771 1.7322-1.7323v-3.1867c.0001-1.592-1.2951-2.8871-2.8871-2.8871zM6 13.8695c0-.8695.2894-1.0015.4338-1.1929H4.8871C3.2951 12.6766 2 13.9717 2 15.5637v3.1868c0 .9551.777 1.7322 1.7323 1.7322h2.557C6 20 6 19.7848 6 19.5v-5.6305zm7.6129-2.697h-3.2258c-1.592 0-2.8871 1.2951-2.8871 2.8871v5.8457c0 .3189.2585.5774.5774.5774h7.8452a.5774.5774 0 00.5774-.5774v-5.8457c0-1.592-1.2951-2.8871-2.8871-2.8871zM12 2C9.7944 2 8 3.7944 8 6c0 1.496.8257 2.8027 2.0452 3.4887A3.9752 3.9752 0 0012 10c.7096 0 1.3764-.186 1.9548-.5113C15.1743 8.8027 16 7.496 16 6c0-2.2056-1.7944-4-4-4zM5.5 7C4.1215 7 3 8.1215 3 9.5S4.1215 12 5.5 12a2.485 2.485 0 00.9851-.2026 2.5161 2.5161 0 001.221-1.123A2.484 2.484 0 008 9.5C8 8.1215 6.8785 7 5.5 7zm13 0C17.1215 7 16 8.1215 16 9.5c0 .4243.1065.824.2938 1.1744a2.516 2.516 0 001.2211 1.123A2.485 2.485 0 0018.5 12c1.3785 0 2.5-1.1215 2.5-2.5S19.8785 7 18.5 7z" fill="#959DAE"/></svg><svg xmlns="http://www.w3.org/2000/svg" width="24" height="24" fill="none" x="1004"><path fill="#959DAE" fill-rule="evenodd" d="M20.756 5.946c-.077-.53-.573-.885-1.107-.852-3.25.202-5.744-.896-7.244-2.597a.558.558 0 00-.82-.021c-1.62 1.73-3.628 2.844-7.233 2.611-.528-.034-1.015.32-1.092.843-1.301 8.806 2.385 13.2 8.748 16.07 6.182-2.7 10.023-7.248 8.748-16.055zM13 9a1 1 0 11-2 0 1 1 0 012 0zm-1 2a1 1 0 011 1v3.5a1 1 0 11-2 0V12a1 1 0 011-1z" clip-rule="evenodd"/></svg><svg width="24" height="24" viewBox="0 0 24 24" fill="none" xmlns="http://www.w3.org/2000/svg" x="1048"><path fill-rule="evenodd" clip-rule="evenodd" d="M12.0218 14H9c-3.5265 0-6.4439 2.6077-6.9291 6A7.0591 7.0591 0 002 21v1h10.8096a6.5058 6.5058 0 01-1.3114-2H4.1c.4633-2.2822 2.481-4 4.9-4h2.1739a6.4634 6.4634 0 01.8479-2zM18 13h-1v1.0354a3.483 3.483 0 00-1.5961.6614l-.7323-.7323-.7071.7071.7323.7323A3.483 3.483 0 0014.0354 17H13v1h1.0354a3.483 3.483 0 00.6614 1.5961l-.7323.7323.7071.7071.7323-.7323A3.4834 3.4834 0 0017 20.9646V22h1v-1.0354a3.4834 3.4834 0 001.5961-.6614l.7323.7323.7071-.7071-.7323-.7323A3.483 3.483 0 0020.9646 18H22v-1h-1.0354a3.4834 3.4834 0 00-.6614-1.5961l.7323-.7323-.7071-.7071-.7323.7323A3.483 3.483 0 0018 14.0354V13zm-.5 6c.8284 0 1.5-.6716 1.5-1.5s-.6716-1.5-1.5-1.5-1.5.6716-1.5 1.5.6716 1.5 1.5 1.5zM11 10c1.6569 0 3-1.3431 3-3s-1.3431-3-3-3-3 1.3431-3 3 1.3431 3 3 3zm0 2c2.7614 0 5-2.2386 5-5s-2.2386-5-5-5-5 2.2386-5 5 2.2386 5 5 5z" fill="#fff"/></svg><svg width="24" height="24" viewBox="0 0 24 24" fill="none" xmlns="http://www.w3.org/2000/svg" x="1092"><path fill-rule="evenodd" clip-rule="evenodd" d="M3.4142 14.4142c-.781-.781-.781-2.0474 0-2.8284L12 3h9v9l-8.5858 8.5858c-.781.781-2.0474.781-2.8284 0l-6.1716-6.1716zM19 6.5c0 .8284-.6716 1.5-1.5 1.5S16 7.3284 16 6.5 16.6716 5 17.5 5s1.5.6716 1.5 1.5zM11 11c.5523 0 1-.4477 1-1s-.4477-1-1-1-1 .4477-1 1 .4477 1 1 1zm1 5c0 .5523-.4477 1-1 1s-1-.4477-1-1 .4477-1 1-1 1 .4477 1 1zm-4-4c-.5523 0-1 .4477-1 1s.4477 1 1 1h6c.5523 0 1-.4477 1-1s-.4477-1-1-1H8z" fill="#959DAE"/></svg><svg width="24" height="24" viewBox="0 0 24 24" fill="none" xmlns="http://www.w3.org/2000/svg" x="1136"><path fill-rule="evenodd" clip-rule="evenodd" d="M20.7558 5.9455c-.0767-.5296-.5724-.8845-1.1065-.8514-3.2507.2018-5.7443-.8964-7.2442-2.5974-.2143-.2431-.5995-.2578-.8209-.0211-1.6196 1.7313-3.6276 2.8447-7.2323 2.6116-.5279-.0341-1.0146.3197-1.092.843C1.959 14.736 5.6448 19.1287 12.0076 22c6.1827-2.7009 10.0239-7.2477 8.7483-16.0545zm-4.081 4.7925c.4076-.3726.4359-1.0052.0632-1.4128-.3726-.4076-1.0052-.4359-1.4128-.0632l-3.7002 3.383-1.9502-1.783c-.4076-.3727-1.0402-.3444-1.4128.0632-.3727.4076-.3444 1.0402.0632 1.4128l3.2998 3.017 5.0498-4.617z" fill="#959DAE"/></svg><svg width="24" height="24" viewBox="0 0 24 24" fill="none" xmlns="http://www.w3.org/2000/svg" x="1180"><path fill-rule="evenodd" clip-rule="evenodd" d="M2.9337 11.1594l17.716-6.8937c.8092-.3704 1.5901.1962 1.2813 1.4456L18.914 20.054c-.2105 1.0193-.8212 1.2631-1.6669.7924l-4.596-3.4258-.0862.0845a2711.6677 2711.6677 0 00-2.1229 2.0833l-.017.0168c-.2482.2449-.4532.447-.9028.447-.4666 0-.5055-.1392-.5993-.4747-.026-.0928-.056-.2006-.1006-.3246l-1.6906-5.2291-4.4184-1.3913c-.9816-.3034-.9888-.9838.2204-1.4732zm14.8506-3.7942l-9.9592 6.339 1.6783 5.1907.332-3.5729 8.5277-7.7622c.3742-.3352-.0816-.4988-.5788-.1946z" fill="#00D36E"/></svg><svg width="24" height="24" viewBox="0 0 24 24" fill="none" xmlns="http://www.w3.org/2000/svg" x="1224"><rect x="2" y="19" width="20" height="2" rx="1" fill="#959DAE"/><circle cx="7" cy="20" r="2" fill="#959DAE"/><path fill-rule="evenodd" clip-rule="evenodd" d="M4 3c-1.1046 0-2 .8954-2 2v10c0 1.1046.8954 2 2 2h16c1.1046 0 2-.8954 2-2V5c0-1.1046-.8954-2-2-2H4zm6 10.4641L16 10l-6-3.4641v6.9282z" fill="#959DAE"/></svg><svg width="24" height="24" viewBox="0 0 24 24" fill="none" xmlns="http://www.w3.org/2000/svg" x="1268"><path d="M12.0025 2h-.005C6.4837 2 2 6.485 2 12c0 2.1875.705 4.215 1.9038 5.8612l-1.2463 3.7151 3.8437-1.2288C8.0825 21.395 9.9688 22 12.0025 22 17.5162 22 22 17.5138 22 12c0-5.5137-4.4838-10-9.9975-10zm5.8187 14.1213c-.2412.6812-1.1987 1.2462-1.9625 1.4112-.5224.1112-1.205.2-3.5025-.7525-2.9387-1.2175-4.8312-4.2037-4.9787-4.3975-.1413-.1938-1.1875-1.5812-1.1875-3.0162s.7287-2.1338 1.0225-2.4338c.2412-.2462.64-.3587 1.0225-.3587.1238 0 .235.0062.335.0112.2937.0125.4413.03.635.4938.2412.5812.8287 2.0162.8988 2.1637.0712.1475.1425.3475.0424.5412-.0937.2-.1762.2888-.3237.4588-.1475.17-.2875.3-.435.4825-.135.1587-.2875.3288-.1175.6225.17.2875.7575 1.2462 1.6225 2.0162 1.1162.9938 2.0212 1.3113 2.345 1.4463.2412.1.5287.0763.705-.1112.2238-.2413.5-.6413.7813-1.035.1999-.2825.4525-.3176.7174-.2176.2701.0938 1.6988.8 1.9926.9463.2937.1475.4874.2175.5587.3413.07.1237.07.705-.1713 1.3875z" fill="#00D36E"/></svg><svg width="16" height="16" viewBox="0 0 16 16" fill="none" xmlns="http://www.w3.org/2000/svg" x="1312"><path fill-rule="evenodd" clip-rule="evenodd" d="M8 3H2v11h11V8h-1.5v4.5h-8v-8H8V3z" fill="#959DAE"/><path d="M8 8l6-6m0 0h-4m4 0v4" stroke="#959DAE" stroke-width="1.5" stroke-linecap="round"/></svg><svg width="24" height="24" viewBox="0 0 24 24" fill="none" xmlns="http://www.w3.org/2000/svg" x="1348"><path d="M22.6297 5.6009c-.2468-.2467-.5463-.3701-.8989-.3701H17.923V3.9616c0-.5817-.2068-1.0796-.6212-1.494-.4142-.4141-.9124-.6212-1.4941-.6212H8.1924c-.5817 0-1.0798.207-1.494.6213-.4144.4143-.6214.9122-.6214 1.494v1.2691H2.2692c-.3525 0-.6522.1233-.899.3701-.2469.247-.3702.5466-.3702.8992v1.6922c0 .6257.1829 1.256.5487 1.8907.3657.6345.8592 1.2076 1.4808 1.7186.6213.5113 1.3837.941 2.2872 1.2892.9036.3482 1.8532.5443 2.8493.5882.3702.4763.7888.8947 1.256 1.2559.335.2997.5662.619.694.9588.1277.3391.1916.7335.1916 1.1831 0 .4761-.1343.877-.4032 1.2028-.2687.3265-.6984.4894-1.289.4894-.661 0-1.2493.2006-1.765.6016-.5156.4012-.7734.9058-.7734 1.514v.8459c0 .1236.0396.225.1189.3043.0794.0792.1806.1188.3041.1188h11.0001c.1236 0 .2247-.0396.3043-.1188.0789-.0793.1185-.1807.1185-.3043v-.8459c0-.6083-.2576-1.1126-.7736-1.514-.5157-.401-1.104-.6016-1.7651-.6016-.5903 0-1.0202-.1629-1.2887-.4894-.2688-.3258-.4028-.7267-.4028-1.2028 0-.4497.0637-.844.1914-1.1831.1281-.3398.3595-.6589.6941-.9588.4672-.3613.8859-.78 1.2557-1.2559.9965-.0439 1.9459-.2401 2.8497-.5882.9031-.3482 1.6658-.7779 2.2871-1.2892.6215-.5112 1.115-1.0841 1.4807-1.7186.3658-.6347.5487-1.265.5487-1.8907V6.5001c-.0002-.3524-.1237-.6522-.3704-.8992zM3.9417 10.334c-.833-.7403-1.2493-1.4543-1.2493-2.1418V6.923h3.3845c0 1.8423.326 3.4772.9783 4.9051-1.2426-.2556-2.2805-.7538-3.1135-1.4941zm17.3658-2.1417c0 .6875-.4161 1.4017-1.249 2.142-.8333.7403-1.8711 1.2384-3.1137 1.4939.6523-1.4278.9783-3.0628.9783-4.905h3.3844v1.2691z" fill="#959DAE"/></svg><svg width="24" height="24" viewBox="0 0 24 24" fill="none" xmlns="http://www.w3.org/2000/svg" x="1392"><rect x="3" y="3" width="3" height="3" rx="1.5" fill="#959DAE"/><rect x="8" y="3" width="13" height="3" rx="1.5" fill="#959DAE"/><rect x="3" y="8" width="3" height="3" rx="1.5" fill="#959DAE"/><rect x="8" y="8" width="9" height="3" rx="1.5" fill="#959DAE"/><rect x="3" y="13" width="3" height="3" rx="1.5" fill="#959DAE"/><rect x="8" y="13" width="13" height="3" rx="1.5" fill="#959DAE"/><rect x="3" y="18" width="3" height="3" rx="1.5" fill="#959DAE"/><rect x="8" y="18" width="9" height="3" rx="1.5" fill="#959DAE"/></svg><svg xmlns="http://www.w3.org/2000/svg" width="23" height="19" fill="none" x="1436"><path fill="#959DAE" d="M8.33 9.5h2.17A4.5 4.5 0 0115 14H7.999L8 15h8v-1a5.579 5.579 0 00-.886-3H18a5 5 0 014.516 2.851C20.151 16.972 16.322 19 12 19c-2.761 0-5.1-.59-7-1.625V8.071A6.967 6.967 0 018.33 9.5zM4 17a1 1 0 01-1 1H1a1 1 0 01-1-1V8a1 1 0 011-1h2a1 1 0 011 1v9zM17 3a3 3 0 110 6 3 3 0 010-6zm-7-3a3 3 0 110 6 3 3 0 010-6z"/></svg></svg>