<svg width="356" height="1000" viewBox="0 0 356 1000" xmlns="http://www.w3.org/2000/svg"><svg width="20" height="20" fill="none" xmlns="http://www.w3.org/2000/svg"><path fill-rule="evenodd" clip-rule="evenodd" d="M4 0a4 4 0 00-4 4v12a4 4 0 004 4h12a4 4 0 004-4V4a4 4 0 00-4-4H4zm1 10a1 1 0 00-1 1v3a1 1 0 102 0v-3a1 1 0 00-1-1zm4-1a1 1 0 112 0v5a1 1 0 11-2 0V9zm6-4a1 1 0 00-1 1v8a1 1 0 102 0V6a1 1 0 00-1-1z" fill="#fff"/></svg><svg width="20" height="20" fill="none" xmlns="http://www.w3.org/2000/svg" x="40"><path fill-rule="evenodd" clip-rule="evenodd" d="M4 0a4 4 0 00-4 4v12a4 4 0 004 4h12a4 4 0 004-4V4a4 4 0 00-4-4H4zm.004 5.914a.998.998 0 01.289-.793L7.12 2.293a1 1 0 011.415 1.414L7.243 5H14a1 1 0 110 2H7.414l1.122 1.121A1 1 0 017.12 9.536L4.293 6.707a.998.998 0 01-.29-.793zM12.586 15l-1.122 1.121a1 1 0 101.415 1.415l2.828-2.829a.998.998 0 00.29-.793.998.998 0 00-.29-.793l-2.828-2.828a1 1 0 10-1.415 1.414L12.757 13H6a1 1 0 100 2h6.586z" fill="#fff"/></svg><svg width="20" height="20" fill="none" xmlns="http://www.w3.org/2000/svg" x="80"><path fill-rule="evenodd" clip-rule="evenodd" d="M4 0a4 4 0 00-4 4v12a4 4 0 004 4h12a4 4 0 004-4V4a4 4 0 00-4-4H4zm12.78 8.625a1 1 0 00-1.56-1.25L12 11.4 8.78 7.375a1 1 0 00-1.56 0l-4 5a1 1 0 001.56 1.25L8 9.6l3.22 4.024a1 1 0 001.56 0l4-5z" fill="#fff"/></svg><svg width="20" height="20" fill="none" xmlns="http://www.w3.org/2000/svg" x="120"><path fill-rule="evenodd" clip-rule="evenodd" d="M0 4a4 4 0 014-4h12a4 4 0 014 4v12a4 4 0 01-4 4H4a4 4 0 01-4-4V4zm15 2H5v8h10v-3h-2a1 1 0 110-2h2V6zM5 4a2 2 0 00-2 2v8a2 2 0 002 2h10a2 2 0 002-2V6a2 2 0 00-2-2H5z" fill="#fff"/></svg><svg width="20" height="20" fill="none" xmlns="http://www.w3.org/2000/svg" x="160"><path fill-rule="evenodd" clip-rule="evenodd" d="M4 0a4 4 0 00-4 4v12a4 4 0 004 4h12a4 4 0 004-4V4a4 4 0 00-4-4H4zm1 5a1 1 0 000 2h10a1 1 0 100-2H5zm-1 5a1 1 0 011-1h10a1 1 0 110 2H5a1 1 0 01-1-1zm1 3a1 1 0 100 2h10a1 1 0 100-2H5z" fill="#fff"/></svg><svg width="20" height="20" viewBox="0 0 20 20" fill="none" xmlns="http://www.w3.org/2000/svg" x="200"><path fill-rule="evenodd" clip-rule="evenodd" d="M0 4c0-2.2091 1.7909-4 4-4h12c2.2091 0 4 1.7909 4 4v12c0 2.2091-1.7909 4-4 4H4c-2.2091 0-4-1.7909-4-4V4zm15.2071.7929c.3905.3905.3905 1.0237 0 1.4142l-.3303.3303a9.4846 9.4846 0 012.0131 4.6212l.1.7-1.9799.2828-.1-.7a7.4852 7.4852 0 00-1.4574-3.4797L5.2071 16.207c-.3905.3905-1.0237.3905-1.4142 0-.3905-.3905-.3905-1.0237 0-1.4142l8.2454-8.2454A7.485 7.485 0 008.5586 5.09l-.7-.1.2828-1.98.7.1a9.4854 9.4854 0 014.6212 2.0132l.3303-.3303c.3905-.3905 1.0237-.3905 1.4142 0z" fill="#fff"/></svg><svg width="48" height="48" fill="none" xmlns="http://www.w3.org/2000/svg" x="240"><circle cx="24" cy="24" r="24" fill="url(#icon-earn_svg__a)"/><path d="M12 24l11.732-12h12.054L24 24H12zm.214 12L24 24h12L24.268 36H12.214z" fill="#00D664"/><defs><linearGradient id="icon-earn_svg__a" x1="-12.571" y1="11.429" x2="24" y2="48" gradientUnits="userSpaceOnUse"><stop offset=".059" stop-color="#043D75"/><stop offset=".476" stop-color="#0856A0"/><stop offset="1" stop-color="#0D6BC7"/></linearGradient></defs></svg><svg width="48" height="48" viewBox="0 0 48 48" fill="none" xmlns="http://www.w3.org/2000/svg" x="308"><path d="M48 24c0 13.2548-10.7452 24-24 24S0 37.2548 0 24 10.7452 0 24 0s24 10.7452 24 24z" fill="url(#icon-miner-circle_svg__paint0_linear_15601_137144)"/><path d="M13.6282 32.0031l11.0657-11.0656-.5657-.5657a.4374.4374 0 010-.6187l.5657-.5656-4.9407-4.9407a.437.437 0 01-.0949-.4768.437.437 0 01.4042-.27c3.3184 0 6.0857 2.4122 7.0043 3.3141l.5614-.5609a.4373.4373 0 01.6186 0l.5657.5657.8221-.8221c.5118-.5118 1.3441-.5118 1.8559 0l.5127.5127c.5118.5118.5118 1.3441 0 1.856l-.822.822.5657.5657a.4373.4373 0 010 .6186l-.561.5614c.9018.9186 3.3141 3.6859 3.3141 7.0043a.437.437 0 01-.4375.4375.4371.4371 0 01-.3093-.1282l-4.9407-4.9406-.5657.5656a.437.437 0 01-.6186 0l-.5657-.5656-11.0657 11.0656a.4368.4368 0 01-.3093.1282c-1.2061 0-2.1875-.9814-2.1875-2.1875a.437.437 0 01.1282-.3094z" fill="#00D36E"/><defs><linearGradient id="icon-miner-circle_svg__paint0_linear_15601_137144" x1="-12.5714" y1="11.4286" x2="24" y2="48" gradientUnits="userSpaceOnUse"><stop offset=".0592" stop-color="#043D75"/><stop offset=".476" stop-color="#0856A0"/><stop offset="1" stop-color="#0D6BC7"/></linearGradient></defs></svg></svg>