<svg width="974" height="379" viewBox="-100 0 874 379" fill="none" xmlns="http://www.w3.org/2000/svg"><g opacity=".4"><path opacity=".5" d="M368.423 102.57h111.839L378.515 205.141H266.676L368.423 102.57zM378.822 205.142h111.84L388.915 307.713h-111.84l101.747-102.571z" stroke="#959DAE" stroke-opacity=".7" stroke-width=".5"/><path opacity=".3" d="M259.583 378.751L360.834 276.68h111.135L370.718 378.751H259.583z" stroke="#959DAE" stroke-opacity=".7" stroke-width=".5"/><path d="M280.212 147.702h111.839L290.304 250.273H178.465l101.747-102.571z" fill="#959DAE" fill-opacity=".1"/><path d="M179.065 250.023l101.251-102.071h111.135L290.2 250.023H179.065zM60.596 198.739L164.41 94.103h111.135L171.731 198.74H60.596z" stroke="#959DAE" stroke-opacity=".7" stroke-width=".5"/><path d="M-45.052 250.023l101.25-102.071h111.136L66.083 250.023H-45.052z" stroke="#959DAE" stroke-opacity=".7" stroke-width=".5"/><path opacity=".2" d="M164.307 93.853h111.839L171.835 198.99H59.995L164.308 93.853z" stroke="#959DAE" stroke-opacity=".7" stroke-width=".5"/><g opacity=".05"><mask id="a" fill="#fff"><path fill-rule="evenodd" clip-rule="evenodd" d="M117.06 198.988H59.996l50.883-51.286h57.055l-50.874 51.286z"/></mask><path fill-rule="evenodd" clip-rule="evenodd" d="M117.06 198.988H59.996l50.883-51.286h57.055l-50.874 51.286z" fill="#959DAE"/><path d="M117.06 198.988v.5h.209l.146-.148-.355-.352zm-57.064 0l-.355-.353-.846.853h1.2v-.5zm50.883-51.286v-.5h-.208l-.147.148.355.352zm57.055 0l.355.352.845-.852h-1.2v.5zm-50.874 50.786H59.996v1h57.064v-1zm-56.71.852l50.884-51.286-.71-.704-50.883 51.285.71.705zm50.529-51.138h57.055v-1h-57.055v1zm56.7-.852l-50.874 51.285.71.705 50.874-51.286-.71-.704z" fill="#959DAE" fill-opacity=".7" mask="url(#a)"/></g><path d="M66.494 250.273h111.839L76.586 352.844h-111.84L66.495 250.273z" fill="url(#paint0_linear)" fill-opacity=".05"/><path d="M-34.653 352.594l101.25-102.071h111.136L76.482 352.594H-34.653zM168.95 147.453L270.201 45.382h111.135L280.085 147.453H168.95z" stroke="#959DAE" stroke-opacity=".7" stroke-width=".5"/></g><defs><linearGradient id="paint0_linear" x1="-30.78" y1="347.459" x2="122.82" y2="282.84" gradientUnits="userSpaceOnUse"><stop stop-color="#959DAE"/><stop offset="1" stop-color="#959DAE" stop-opacity="0"/></linearGradient></defs></svg>