<svg width="974" height="379" viewBox="-400 0 574 379" fill="none" xmlns="http://www.w3.org/2000/svg"><g opacity=".4"><path opacity=".5" d="M345.939 205.142h111.84L356.032 307.713h-111.84l101.747-102.571z" stroke="#959DAE" stroke-opacity=".7" stroke-width=".5"/><path d="M125.668 250.023L226.92 147.952h111.135L236.804 250.023H125.668z" stroke="#959DAE" stroke-opacity=".7" stroke-width=".5"/><path opacity=".5" d="M111.423 102.57h111.839L121.515 205.141H9.675L111.424 102.57zM121.822 205.142h111.84L131.915 307.713H20.075l101.747-102.571z" stroke="#959DAE" stroke-opacity=".7" stroke-width=".5"/><path opacity=".3" d="M2.583 378.751L103.834 276.68h111.135L113.718 378.751H2.583z" stroke="#959DAE" stroke-opacity=".7" stroke-width=".5"/><g opacity=".05"><mask id="a" fill="#fff"><path fill-rule="evenodd" clip-rule="evenodd" d="M189.597 250.273l44.42-44.779.845-.852h-64.529l-.992 1h63.12l-44.272 44.631h1.408z"/></mask><path fill-rule="evenodd" clip-rule="evenodd" d="M189.597 250.273l44.42-44.779.845-.852h-64.529l-.992 1h63.12l-44.272 44.631h1.408z" fill="url(#paint0_linear)"/><path d="M234.017 205.494l.355.352-.355-.352zm-44.42 44.779v.5h.208l.147-.148-.355-.352zm45.265-45.631l.355.352.845-.852h-1.2v.5zm-64.529 0v-.5h-.208l-.147.147.355.353zm-.992 1l-.355-.353-.845.853h1.2v-.5zm63.12 0l.355.352.846-.852h-1.201v.5zm-44.272 44.631l-.355-.352-.846.852h1.201v-.5zm45.473-45.131l-44.42 44.779.71.704 44.42-44.779-.71-.704zm.845-.853l-.845.853.71.704.845-.852-.71-.705zm-.845.853h1.2v-1h-1.2v1zm-63.329 0h63.329v-1h-63.329v1zm-.637.852l.992-1-.71-.705-.992 1 .71.705zm62.765-.852h-63.12v1h63.12v-1zm-43.917 45.483l44.272-44.631-.71-.705-44.272 44.632.71.704zm1.053-.852h-1.408v1h1.408v-1z" fill="#959DAE" fill-opacity=".7" mask="url(#a)"/></g><g opacity=".3"><path d="M325.425 0h111.84L335.518 102.571h-111.84L325.425 0z" fill="#959DAE" fill-opacity=".05"/><path d="M224.278 102.321L325.53.25h111.135L335.414 102.321H224.278z" stroke="#959DAE" stroke-opacity=".7" stroke-width=".5"/></g><path d="M23.212 147.702H135.05L33.304 250.273h-111.84L23.213 147.702z" fill="#959DAE" fill-opacity=".1"/><path d="M-77.935 250.023L23.316 147.952h111.135L33.2 250.023H-77.935zM-196.404 198.739L-92.589 94.103H18.546L-85.269 198.74h-111.135z" stroke="#959DAE" stroke-opacity=".7" stroke-width=".5"/><path opacity=".2" d="M-92.693 93.853h111.84L-85.166 198.99h-111.839l104.31-105.136z" stroke="#959DAE" stroke-opacity=".7" stroke-width=".5"/><path d="M-88.05 147.453L13.201 45.382h111.135L23.086 147.453H-88.05z" stroke="#959DAE" stroke-opacity=".7" stroke-width=".5"/></g><defs><linearGradient id="paint0_linear" x1="207.092" y1="204.642" x2="171.5" y2="240.749" gradientUnits="userSpaceOnUse"><stop stop-color="#959DAE"/><stop offset="1" stop-color="#959DAE" stop-opacity="0"/></linearGradient></defs></svg>