<svg width="288" height="160" fill="none" xmlns="http://www.w3.org/2000/svg"><path fill-rule="evenodd" clip-rule="evenodd" d="M114.211 105l-6.077 14.397h6.789L121 105h-6.789zm-8.146 19.566c0 1.998 1.584 3.647 3.717 3.647 2.199 0 3.848-1.712 3.848-3.774 0-2.029-1.585-3.646-3.718-3.646-2.198 0-3.847 1.744-3.847 3.773zM99.923 120c0-1.776-1.358-3.203-3.233-3.203s-3.233 1.427-3.233 3.203c0 1.776 1.358 3.203 3.233 3.203s3.233-1.427 3.233-3.203zm-18.297 0c0-1.776-1.358-3.203-3.233-3.203S75.16 118.224 75.16 120c0 1.776 1.358 3.203 3.233 3.203s3.233-1.427 3.233-3.203zm-39.245 3.266c-1.907 0-3.362-1.427-3.362-3.266 0-1.84 1.455-3.267 3.362-3.267 1.875 0 3.33 1.427 3.33 3.267 0 1.839-1.455 3.266-3.33 3.266zM15 112.04l6.918 16.015-2.49 5.771h6.078l9.213-21.786h-6.045l-3.75 9.323-3.717-9.323H15zM87.057 120c0 4.757-3.718 8.34-8.664 8.34s-8.663-3.583-8.663-8.34 3.717-8.34 8.663-8.34c4.947 0 8.664 3.583 8.664 8.34zm18.296 0c0 4.757-3.717 8.34-8.663 8.34s-8.663-3.583-8.663-8.34 3.717-8.34 8.663-8.34 8.663 3.583 8.663 8.34zm-52.337-15v22.928h5.722v-8.467c0-1.649.808-2.632 2.102-2.632 1.26 0 1.971.856 1.971 2.441v8.658h5.722v-9.989c0-3.869-2.133-6.279-5.56-6.279-1.843 0-3.265.697-4.267 1.934V105h-5.69zm-7.435 7.04v1.491c-.873-1.11-2.489-1.871-4.364-1.871-4.429 0-7.726 3.837-7.726 8.34 0 4.63 3.265 8.34 7.726 8.34 1.875 0 3.491-.729 4.364-1.903v1.491h5.528V112.04h-5.528z" fill="#6001D2"/><path d="M54.494 143.435v-7.255h-1.369v-2.002h1.37v-.736c0-1.055.316-1.873.95-2.455.633-.582 1.523-.873 2.668-.873.419 0 .878.06 1.378.18l.009 2.122a2.705 2.705 0 0 0-.724-.077c-.89 0-1.334.376-1.334 1.129v.71h1.84v2.002h-1.84v7.255h-2.948zM63.415 143.435h-2.947v-9.257h2.947v9.257zm-3.122-11.644c0-.411.151-.747.454-1.01.302-.262.694-.393 1.177-.393.482 0 .875.131 1.177.393.302.263.453.599.453 1.01 0 .41-.15.747-.453 1.009-.302.263-.695.394-1.177.394-.483 0-.875-.131-1.177-.394a1.276 1.276 0 0 1-.454-1.009zM67.932 134.178l.096 1.087c.65-.839 1.55-1.258 2.694-1.258.983 0 1.715.288 2.198.864.488.576.741 1.443.758 2.601v5.963h-2.947v-5.843c0-.468-.096-.81-.288-1.027-.192-.222-.54-.334-1.046-.334-.576 0-1.003.223-1.282.668v6.536h-2.939v-9.257h2.756zM80.628 143.435c-.104-.188-.197-.465-.278-.83-.541.668-1.297 1.001-2.268 1.001-.89 0-1.645-.262-2.267-.787-.622-.53-.933-1.195-.933-1.993 0-1.004.378-1.763 1.134-2.276.755-.514 1.854-.77 3.295-.77h.907v-.488c0-.85-.374-1.275-1.124-1.275-.698 0-1.047.337-1.047 1.01h-2.939c0-.896.387-1.623 1.16-2.182.78-.559 1.77-.838 2.974-.838 1.203 0 2.154.288 2.851.864.698.576 1.055 1.366 1.073 2.37v4.098c.012.85.145 1.5.401 1.951v.145h-2.939zm-1.84-1.882c.367 0 .67-.077.907-.231.244-.154.419-.328.523-.522v-1.48h-.854c-1.023 0-1.535.45-1.535 1.352 0 .262.09.476.27.641.18.16.41.24.69.24zM87.5 134.178l.096 1.087c.65-.839 1.549-1.258 2.694-1.258.983 0 1.715.288 2.198.864.488.576.74 1.443.758 2.601v5.963H90.3v-5.843c0-.468-.096-.81-.288-1.027-.192-.222-.54-.334-1.046-.334-.576 0-1.003.223-1.282.668v6.536h-2.939v-9.257H87.5zM98.87 141.382c.413 0 .733-.109.96-.325.227-.223.337-.531.331-.924h2.756c0 1.015-.372 1.848-1.116 2.498-.739.65-1.692.975-2.86.975-1.373 0-2.454-.422-3.245-1.266-.79-.844-1.185-2.013-1.185-3.508v-.12c0-.935.174-1.759.523-2.472a3.784 3.784 0 0 1 1.526-1.651c.663-.388 1.447-.582 2.355-.582 1.226 0 2.2.334 2.92 1.001.722.667 1.082 1.571 1.082 2.712h-2.756c0-.479-.119-.847-.357-1.104-.239-.256-.558-.385-.96-.385-.76 0-1.206.477-1.333 1.429-.041.302-.061.719-.061 1.249 0 .93.112 1.574.34 1.934.226.359.586.539 1.08.539zM108.724 143.606c-1.447 0-2.619-.422-3.514-1.266-.895-.85-1.343-1.954-1.343-3.311v-.24c0-.946.178-1.782.532-2.506a3.877 3.877 0 0 1 1.57-1.677c.686-.4 1.5-.599 2.441-.599 1.326 0 2.373.405 3.14 1.215.767.804 1.151 1.928 1.151 3.371v1.12h-5.843c.105.519.334.927.689 1.224.355.296.814.445 1.378.445.93 0 1.657-.32 2.18-.958l1.343 1.557c-.366.496-.887.892-1.561 1.189a5.356 5.356 0 0 1-2.163.436zm-.331-7.375c-.86 0-1.372.559-1.535 1.677h2.965v-.222c.012-.462-.107-.819-.357-1.07-.25-.256-.608-.385-1.073-.385z" fill="#fff"/><path fill-rule="evenodd" clip-rule="evenodd" d="M175.341 104c-1.293 0-2.341 1.023-2.341 2.286V144h8.362v-31.429c0-.225.187-.408.418-.408h76.095c.231 0 .419.183.419.408V144h8.362v-37.714c0-1.263-1.049-2.286-2.342-2.286h-88.973zm76.263 17.551c1.617 0 2.927-1.279 2.927-2.857 0-1.578-1.31-2.857-2.927-2.857-1.616 0-2.926 1.279-2.926 2.857 0 1.578 1.31 2.857 2.926 2.857zm0 .408c1.848 0 3.345-1.462 3.345-3.265 0-1.803-1.497-3.265-3.345-3.265-1.847 0-3.344 1.462-3.344 3.265 0 1.803 1.497 3.265 3.344 3.265zm-1.199-3.742h.638v-.339h-1.695v.339h.629v1.692h.428v-1.692zm1.979 1.134l-.535-1.473h-.56v2.031h.428v-.555l-.043-.957.561 1.512h.294l.562-1.514-.043.959v.555h.43v-2.031h-.563l-.531 1.473zm-57.697 23.16c1.099.993 2.547 1.489 4.346 1.489 1.798 0 3.246-.496 4.345-1.489 1.099-1.013 1.648-2.356 1.648-4.031v-2.577a.273.273 0 0 0-.119-.233.288.288 0 0 0-.24-.117h-5.335c-.1 0-.19.039-.269.117a.31.31 0 0 0-.09.233v1.658c0 .097.03.185.09.262a.438.438 0 0 0 .269.088h1.319c.1 0 .15.049.15.146v.452c0 .584-.16 1.061-.48 1.431-.319.351-.749.526-1.288.526-.52 0-.939-.175-1.259-.526-.32-.37-.48-.847-.48-1.431v-6.161c0-.584.16-1.052.48-1.402.32-.37.739-.555 1.259-.555.539 0 .969.185 1.288.555.32.35.48.818.48 1.402v1.168c0 .097.03.185.09.263.08.058.17.088.269.088h3.507c.1 0 .18-.03.24-.088a.359.359 0 0 0 .119-.263v-1.11c0-1.674-.549-3.018-1.648-4.03-1.099-1.013-2.547-1.519-4.345-1.519-1.799 0-3.247.506-4.346 1.519-1.079.993-1.618 2.327-1.618 4.001v6.103c0 1.675.539 3.018 1.618 4.031zm14.02-.088c1.098 1.051 2.567 1.577 4.405 1.577s3.307-.526 4.405-1.577c1.119-1.052 1.679-2.453 1.679-4.206v-5.577c0-1.752-.56-3.154-1.679-4.206-1.098-1.051-2.567-1.577-4.405-1.577s-3.307.526-4.405 1.577c-1.099 1.052-1.649 2.454-1.649 4.206v5.577c0 1.753.55 3.154 1.649 4.206zm5.754-2.512c-.34.37-.79.555-1.349.555-.559 0-1.009-.185-1.349-.555-.319-.389-.479-.895-.479-1.519v-5.927c0-.623.16-1.12.479-1.49.34-.389.79-.584 1.349-.584.559 0 1.009.195 1.349.584.339.37.509.867.509 1.49v5.927c0 .624-.17 1.13-.509 1.519zm15.58 3.855c-.239 0-.369-.107-.389-.321l-.48-2.804c0-.097-.06-.146-.18-.146h-3.806c-.12 0-.179.049-.179.146l-.48 2.804c-.02.214-.15.321-.39.321h-3.506c-.26 0-.36-.126-.3-.379l4.406-15.975c.04-.214.17-.321.389-.321h4.046c.22 0 .35.107.39.321l4.375 15.975.03.117c0 .175-.11.262-.329.262h-3.597zm-4.435-6.6c0 .097.04.146.12.146h2.697c.1 0 .14-.049.12-.146l-1.409-4.205c-.02-.058-.05-.087-.09-.087-.04 0-.07.029-.09.087l-1.348 4.205zm10.172 6.513c.08.058.17.087.27.087h9.342c.1 0 .18-.029.24-.087a.36.36 0 0 0 .12-.263v-2.833a.277.277 0 0 0-.12-.234.288.288 0 0 0-.24-.117h-5.326c-.1 0-.15-.048-.15-.146v-12.645a.274.274 0 0 0-.12-.233.288.288 0 0 0-.24-.117h-3.506c-.1 0-.19.039-.27.117a.31.31 0 0 0-.09.233v15.975c0 .097.03.185.09.263zM120.96 36V14H15v44h105.96V36zM17.276 36V16.25h101.408v39.5H17.276V36zm93.316 12.65c1.428-.425 2.262-1.712 2.124-3.313-.127-1.45-.759-2.05-2.858-2.775-.746-.25-1.53-.6-1.758-.762-.72-.537-.683-1.637.076-2.137.253-.175.569-.225 1.328-.225 1.062.012 1.34.162 1.34.762v.287l.759-.275.758-.275v-1.55l-.657-.212c-.367-.1-1.202-.225-1.846-.262-1.656-.1-2.63.175-3.452.95-.658.637-.873 1.187-.86 2.2.025 1.612.835 2.387 3.25 3.062.62.175 1.075.4 1.378.663.379.35.443.475.443 1 0 1.1-.633 1.587-2.074 1.587-1.024 0-1.416-.2-1.467-.712l-.038-.388-.759.263-.746.275v1.662l.86.2c1.53.363 2.946.35 4.199-.025zm-53.676.05a9.061 9.061 0 0 0 1.239-.425l.594-.262V46.35c0-1.763.063-1.975.582-1.975.227 0 .29-.1.392-.625l.126-.625h-4.26l.227.6c.19.512.265.587.632.625l.405.038v1.3c0 1.537-.026 1.575-1.467 1.662-1.492.087-2.39-.475-2.908-1.863-.152-.387-.215-.974-.228-2.05-.013-1.312.025-1.575.278-2.124.607-1.3 1.467-1.85 2.934-1.863 1.39-.013 1.643.075 1.643.612v.425l.797-.275.784-.275v-1.5l-.695-.25c-.557-.2-1.037-.237-2.466-.25-1.732 0-1.796.013-2.617.4-1.821.85-2.744 2.55-2.757 5.05 0 2.738 1.05 4.638 2.92 5.225.974.3 2.884.35 3.845.088zm-30.283-.575c0-.612-.013-.625-.38-.625-.341 0-.38-.038-.38-.4-.012-1.113.304-6.087.38-6.013.05.063.607 1.475 1.252 3.163.657 1.688 1.226 3.112 1.277 3.163.05.062.417.012.797-.113l.695-.212 1.302-3.038c.721-1.675 1.328-3.025 1.353-2.987.076.075.38 6.1.304 6.287-.025.075-.215.15-.417.15-.355 0-.367.025-.367.625v.625h4.02l-.227-.587c-.202-.525-.278-.613-.645-.663-.316-.05-.442-.138-.455-.313-.076-.662-.417-6.374-.417-7 0-.674.025-.712.38-.85.442-.162.442-.175.176-.837l-.202-.5h-2.971l-1.24 3.375c-.695 1.85-1.29 3.325-1.34 3.275-.038-.05-.582-1.35-1.189-2.9a648.23 648.23 0 0 0-1.29-3.275L26.86 38h-2.643l-.24.575c-.329.75-.316.8.127.8.366 0 .379.025.379.538 0 .287-.114 2.062-.253 3.95-.253 3.562-.265 3.637-.835 3.637-.202 0-.328.15-.53.625l-.266.625h4.034v-.625zm15.3 0c0-.612-.014-.625-.38-.625h-.017c-.163 0-.265 0-.311-.05-.077-.083 0-.306.204-.897l.01-.028.266-.775h3.755l.253.688c.152.387.265.75.265.8 0 .137-.316.262-.645.262-.202 0-.24.087-.24.625v.625h2.023c1.113 0 2.023-.013 2.023-.038s-.088-.3-.202-.625c-.139-.4-.265-.587-.43-.587a.521.521 0 0 1-.354-.163c-.076-.087-.872-2.212-1.77-4.712l-1.644-4.563h-3.085l-.228.588c-.126.325-.19.613-.151.65.038.05.227.075.417.075h.354l-1.252 3.6c-.415 1.2-.811 2.337-1.075 3.093v.002h-.001l-.002.006-.001.004-.312.895c-.114.3-.253.425-.53.487-.355.075-.595.363-.785 1.013L38 48.75h3.932v-.625zm23.644 0c0-.612-.012-.625-.38-.625-.214 0-.416-.075-.442-.163-.038-.087-.05-1.55-.038-3.25L64.755 41l2.377 3.875c.273.441.514.834.727 1.181 1.204 1.964 1.544 2.519 1.96 2.58.163.025.338-.026.582-.098.106-.031.225-.066.36-.1l.57-.138.037-4.412.026-4.413.366-.138c.24-.087.405-.275.519-.575l.131-.365v-.001l.001-.002v-.002c.04-.107.07-.193.083-.23.05-.124-.38-.162-1.91-.162h-1.972v.612c0 .638.114.763.645.763.227 0 .24.125.24 3.087 0 1.688-.038 3.038-.088 2.988-.064-.05-1.1-1.738-2.327-3.738l-2.213-3.65-1.328-.037-1.314-.038-.228.588c-.114.313-.177.625-.14.688.039.062.266.112.506.112h.43v7.975l-.341.125c-.266.087-.417.275-.569.7l-.215.575h3.907v-.625zm11.633 0c0-.575-.025-.625-.304-.625-.455 0-.48-.138-.189-.987l.266-.776 1.909.038 1.897.038.24.687c.278.825.227 1-.278 1-.367 0-.38.013-.38.625v.625h2.023c1.113 0 2.023-.038 2.023-.087 0-.05-.088-.338-.202-.625-.14-.363-.291-.538-.443-.538a.476.476 0 0 1-.328-.15c-.05-.087-.848-2.212-1.758-4.725l-1.644-4.563-1.53-.037-1.53-.038-.202.513c-.29.737-.265.875.19.875.266 0 .38.05.329.163a29.748 29.748 0 0 1-.149.426v.001l-.001.002c-.204.583-.59 1.688-1.014 2.908-1.42 4.088-1.543 4.442-1.776 4.539a.435.435 0 0 1-.036.013l-.012.004-.022.007c-.202.062-.746.987-.746 1.262 0 .025.822.05 1.834.05h1.833v-.625zm14.541.587c0-.025-.088-.3-.202-.625-.178-.525-.228-.575-.658-.612l-.468-.038-.038-3.974-.025-3.976.91.038.924.038.038.45.037.462.822-.263.81-.262V38h-8.978v1.95l.822.262.822.263V39.5h1.897v3.85c0 4.125 0 4.15-.645 4.15-.279 0-.367.087-.544.538-.114.287-.202.575-.202.625 0 .05 1.05.087 2.339.087 1.29 0 2.339-.013 2.339-.038zm11.633-1.288c.001-.617.001-.904-.135-.997-.117-.08-.337-.016-.747.105l-.104.03c-.506.15-.658.25-.658.438 0 .325-.328.388-1.833.35l-1.265-.038-.038-1.65L98.567 44h3.932v-1.5h-3.92v-3h3.035v.438c0 .5.076.524.923.237l.594-.2V38h-3.806c-2.997 0-3.793.038-3.73.163l.012.035.038.11.001.003c.044.126.107.307.164.477.127.375.24.487.518.55l.355.075V43.3c0 4.013-.026 4.2-.506 4.2-.114 0-.266.188-.367.475-.101.25-.203.538-.228.625-.05.112.772.15 3.87.15h3.932v-1.326zm-6.133-14.611c1.012-.3 1.454-.626 1.454-1.063 0-.2-.025-.375-.063-.375s-.278.137-.543.3c-1.151.75-3.2.9-4.49.338-1.529-.663-2.616-2.263-2.718-4.025-.126-2.063.784-3.65 2.63-4.625.506-.263.734-.3 1.96-.3 1.315 0 1.454.024 2.188.387l.783.387v-.412c0-.338-.075-.425-.468-.613-2.085-.987-4.551-.65-6.195.85-1.745 1.588-2.2 4.488-1.037 6.738.367.713 1.442 1.738 2.2 2.1 1.303.625 2.87.737 4.3.313zm-72.642-2.5V27.75h5.185V27h-5.185v-3.875h6.323v-.75l-3.503.025-3.515.038-.038 5.225-.025 5.212h.758v-2.563zm13.15-2.7v-5.25l-.34.037-.355.038-.038 5.225-.025 5.212h.759v-5.262zm7.714.762c0-2.475.038-4.5.1-4.488.051 0 1.657 2.026 3.566 4.488 3.073 3.987 3.516 4.5 3.832 4.5h.341v-10.5h-.758l-.026 4.575-.038 4.575-3.54-4.537c-2.972-3.813-3.604-4.563-3.895-4.588l-.341-.037v10.512h.759v-4.5zm15.097 3l.657-1.438h6.007l.657 1.463c.645 1.425.67 1.475 1.062 1.475h.392l-1.454-3.212c-.81-1.776-1.871-4.125-2.364-5.226-.86-1.887-.923-2-1.278-2.037l-.379-.025-2.339 5.137c-1.29 2.825-2.364 5.2-2.39 5.263-.025.063.14.1.367.075.38-.038.442-.113 1.062-1.475zM75.845 28.3l.038-4.575 3.54 4.563c3.11 4.024 3.578 4.574 3.894 4.574l.342.013V22.363l-.342.037-.354.038-.063 4.524-.063 4.526-3.54-4.55c-3.124-4.025-3.579-4.563-3.857-4.538l-.316.038-.038 5.225-.026 5.212h.76l.025-4.575zm36.264 4.262v-.312h-6.576v-4.625h5.185v-.75h-5.185v-3.75h6.323v-.75h-7.081v10.5h7.334v-.313zm-69.266 9.363c-.354 1.125-.683 2.138-.733 2.25-.063.175.088.2 1.467.2 1.124 0 1.422 0 1.47-.11.019-.038.004-.092-.016-.165-.316-1.087-1.404-4.225-1.454-4.225-.038 0-.367.925-.734 2.05zm34.52 2.3c.038-.087.366-1.063.733-2.163.366-1.1.708-2.05.759-2.1.075-.087 1.517 4.038 1.517 4.338 0 .038-.683.075-1.53.075-1.176 0-1.517-.038-1.48-.15zM64.25 23.4c-.025-.025-2.542 5.325-2.694 5.738-.025.062 1.139.112 2.618.112 1.555 0 2.668-.05 2.668-.113 0-.1-2.504-5.637-2.592-5.737z" fill="#fff"/><path d="M200.024 32.305c-.142-1.864-1.684-4.472-5.489-4.472-3.272 0-5.845 2.254-5.845 6.68 0 4.365 2.43 6.643 5.809 6.643 3.189 0 4.991-1.924 5.525-4.673h-2.656c-.32 1.558-1.339 2.384-2.81 2.384-2.252 0-3.153-2.042-3.153-4.32 0-3.575 1.873-4.425 3.153-4.425 2.194 0 2.597 1.428 2.81 2.183h2.656zm40.724 3.824c0-3.387-2.288-4.933-4.813-4.933-2.526 0-4.814 1.546-4.814 4.933 0 3.387 2.288 4.933 4.814 4.933 2.537 0 4.813-1.558 4.813-4.933zm-2.549 0c0 1.192-.356 2.856-2.264 2.856-1.909 0-2.265-1.652-2.265-2.856s.356-2.856 2.265-2.856c1.92 0 2.264 1.652 2.264 2.856zm-8.809-7.234h-2.478v2.537h-1.268v1.759h1.268v5.687c0 1.216.392 2.03 2.526 2.03h.32c.391 0 .782-.012 1.173-.035v-1.865c-.177.012-.355.036-.509.036-1.008 0-1.032-.213-1.032-.756v-5.097h1.541v-1.759h-1.541v-2.537zm-28.643 11.919h2.478v-4.886c0-1.038.356-2.242 2.288-2.242.225 0 .498 0 .711.035V31.22c-.154-.012-.32-.036-.474-.036-1.506 0-2.075.92-2.584 1.865h-.036v-1.617h-2.371v9.382h-.012zM215.934 31.443h-2.62l-1.932 6.904h-.036l-2.015-6.904h-2.763l3.474 9.76c-.237 1.286-.723 1.415-1.624 1.415-.213 0-.368-.023-.474-.035v1.97c.355.013.782.036 1.114.036 2.158 0 2.478-.46 3.652-3.93l3.224-9.216zM218.804 36.341c0-1.498.403-3.009 2.11-3.009 1.577 0 2.11 1.393 2.11 2.868 0 1.109-.438 2.832-2.039 2.832-1.589 0-2.181-1.31-2.181-2.69zm0-4.897h-2.372v13.04h2.466v-4.862h.036c.296.507.925 1.44 2.656 1.44 2.798 0 3.959-2.467 3.959-5.04 0-3.244-1.837-4.826-3.912-4.826-1.66 0-2.359.862-2.822 1.605h-.035v-1.357h.024z" fill="#4BA565"/><path d="M241.898 40.813h5.501c4.197 0 5.276-3.906 5.276-6.632 0-2.395-.89-6.03-5.169-6.03h-5.608v12.662zm37.238-9.37h-2.62l-1.932 6.904h-.036l-2.015-6.903h-2.763l3.474 9.759c-.225 1.286-.723 1.416-1.624 1.416-.213 0-.368-.024-.486-.036v1.971c.355.012.782.035 1.114.035 2.158 0 2.478-.46 3.652-3.93l3.236-9.215zm-10.195-3.28h-2.478v12.65h2.478v-12.65zm-6.45 3.28v9.37h2.478v-9.37h-2.478zm2.478-3.41h-2.478v2.29h2.478v-2.29zm-3.806 5.865c0-2.313-2.43-2.714-3.758-2.714-1.932 0-3.924.401-4.209 3.28h2.395c.071-.542.285-1.31 1.518-1.31.64 0 1.624.06 1.624 1.086 0 .531-.474.685-.866.744l-2.228.33c-1.577.224-2.739 1.169-2.739 2.998 0 1.935 1.446 2.737 2.869 2.737 1.683 0 2.478-.779 3.047-1.357.059.531.095.673.237 1.11h2.667v-.355c-.296-.106-.545-.354-.545-1.463v-5.086h-.012zm-2.43 3.552c0 1.145-1.115 1.853-2.217 1.853-.474 0-1.15-.26-1.15-1.133 0-1.027.759-1.25 1.683-1.404 1.02-.166 1.435-.319 1.684-.508v1.192zm-14.239-7.104h2.549c1.138 0 2.917.307 2.917 4.036 0 2.077-.723 4.248-2.881 4.248h-2.585v-8.284zM280.678 26.995v1.027c0 .023-.012.047-.024.07-.012.024-.035.024-.059.024h-.166a.164.164 0 0 1-.071-.024c-.024-.011-.024-.035-.024-.07V25.39c0-.024.012-.047.024-.07.012-.024.035-.024.071-.024h.948c.261 0 .486.07.652.212a.82.82 0 0 1 .237.602v.059a.736.736 0 0 1-.166.495.876.876 0 0 1-.414.272l.545 1.038c.012.012.012.024.024.036v.035c0 .024-.012.036-.024.047a.092.092 0 0 1-.048.024h-.225a.09.09 0 0 1-.059-.024c-.012-.011-.024-.023-.036-.047l-.545-1.05h-.64zm.521-2.643a2.42 2.42 0 0 1 1.708.708c.438.436.711 1.038.711 1.699 0 .66-.273 1.263-.711 1.7a2.42 2.42 0 0 1-1.708.707 2.419 2.419 0 0 1-1.707-.708 2.397 2.397 0 0 1-.711-1.7c0-.66.273-1.262.711-1.698a2.397 2.397 0 0 1 1.707-.708zm1.471.932a2.093 2.093 0 0 0-2.964 0 2.07 2.07 0 0 0 0 2.95 2.093 2.093 0 0 0 2.964 0 2.074 2.074 0 0 0 0-2.95zm-1.992.354v1.026h.676a.659.659 0 0 0 .403-.13.458.458 0 0 0 .142-.341v-.071a.495.495 0 0 0-.142-.366.592.592 0 0 0-.403-.13h-.676v.012z" fill="#fff"/><path d="M158.363 39.422c2.632 5.451 7.042 8.885 11.109 11.033.012.012.356.189.356.189s.343-.177.355-.189c6.888-3.61 14.749-10.95 13.302-25.43l-3.035-1.31c-.569 4.484-3.343 8.26-7.208 10.998a22.84 22.84 0 0 1-1.636 1.05l.545 4.083c.071.543-.45 1.003-.996 1.003h-2.762c-.545 0-1.079-.46-.996-1.003l.285-2.195a27.385 27.385 0 0 1-8.347 1.759c-.332 0-.652.012-.972.012z" fill="#4BA565"/><path d="M156.17 25.024c-.521 5.299.19 9.641 1.66 13.205.486.012.96 0 1.446-.024a26.282 26.282 0 0 0 8.596-1.923l.225-1.723a3.16 3.16 0 0 1-1.423-2.632c0-1.734 1.423-3.15 3.166-3.15 1.743 0 3.165 1.416 3.165 3.15 0 .744-.261 1.44-.711 1.983l.249-.177c3.557-2.514 6.117-5.96 6.698-9.995-3.331.873-6.366-.272-8.239-2.738H168.69c-2.016 2.655-5.371 3.776-8.987 2.514l-3.533 1.51z" fill="#fff"/></svg>