<svg width="222" height="48" viewBox="0 0 222 48" xmlns="http://www.w3.org/2000/svg"><g fill="#FFF" fill-rule="evenodd"><rect opacity=".1" width="48" height="48" rx="4"/><path d="M20.269 34.77c9.676 0 14.968-7.893 14.968-14.738 0-.224 0-.447-.016-.67a10.613 10.613 0 002.625-2.68c-.96.419-1.978.693-3.021.815a5.212 5.212 0 002.312-2.865 10.643 10.643 0 01-3.34 1.257 5.326 5.326 0 00-6.32-1.019c-2.1 1.106-3.183 3.46-2.645 5.743-4.23-.209-8.171-2.176-10.842-5.412-1.396 2.367-.683 5.395 1.628 6.915a5.285 5.285 0 01-2.387-.649v.066c0 2.465 1.766 4.589 4.22 5.077a5.332 5.332 0 01-2.375.089c.69 2.11 2.664 3.555 4.915 3.597a10.662 10.662 0 01-7.786 2.147 15.065 15.065 0 008.064 2.322" fill-opacity=".6"/><g transform="translate(52)"><rect opacity=".1" width="54" height="48" rx="4"/><path d="M16.988 18.08a.975.975 0 00-.319-.823l-2.35-2.834V14h7.303l5.645 12.381L32.23 14h6.963v.423l-2.011 1.928a.59.59 0 00-.224.565v14.169a.588.588 0 00.224.564l1.964 1.928V34h-9.88v-.423l2.035-1.976c.2-.199.2-.258.2-.563V19.585l-5.657 14.369h-.764l-6.587-14.369v9.63c-.055.405.08.813.364 1.105l2.646 3.21v.424H14v-.424l2.646-3.21a1.28 1.28 0 00.341-1.105V18.08z" fill-opacity=".6"/></g><g transform="translate(110)"><rect opacity=".1" width="54" height="48" rx="4"/><path d="M15.214 22.107l23.03-8.961c1.053-.482 2.068.254 1.666 1.879L35.988 33.67c-.273 1.325-1.067 1.642-2.167 1.03l-5.975-4.453-.116.114a3323.94 3323.94 0 00-2.777 2.726c-.323.318-.59.581-1.174.581-.607 0-.657-.181-.78-.617-.033-.12-.072-.26-.13-.422l-2.198-6.798-5.744-1.809c-1.276-.394-1.285-1.278.287-1.915zm19.306-4.932l-12.947 8.24 2.181 6.748.432-4.644 11.086-10.091c.486-.436-.106-.649-.752-.253z" fill-opacity=".6"/></g><g transform="translate(168)"><rect opacity=".1" width="54" height="48" rx="4"/><path d="M36.786 13H17.214c-.67 0-1.214.543-1.214 1.214v19.572c0 .67.544 1.214 1.214 1.214h10.537v-8.52h-2.867v-3.32h2.867v-2.448c0-2.842 1.735-4.39 4.27-4.39 1.214 0 2.258.091 2.562.132v2.97h-1.758c-1.379 0-1.646.655-1.646 1.616v2.12h3.288l-.428 3.32h-2.86V35h5.607c.67 0 1.214-.544 1.214-1.214V14.214c0-.67-.544-1.214-1.214-1.214z" fill-opacity=".6"/></g></g></svg>