<svg width="204" height="38" viewBox="0 0 204 38" xmlns="http://www.w3.org/2000/svg"><g fill="none" fill-rule="evenodd"><path fill="#00D664" fill-rule="nonzero" d="M0 18.75L18.375.375H36.75L18.375 18.75zM0 37.125L18.375 18.75H36.75L18.375 37.125z"/><path d="M157.42 20.125h-6.498v-2.963h9.851v8.24c-1.248 1.118-3.899 2.73-8.136 2.73-6.135 0-10.111-3.926-10.111-9.618 0-5.511 3.951-9.514 9.487-9.514 5.327 0 7.6 2.971 8.276 4.95h-3.749c-.602-.699-1.95-1.857-4.527-1.857-3.639 0-5.926 2.782-5.926 6.42 0 3.848 2.521 6.525 6.576 6.525 2.391 0 4.003-.624 4.757-1.143v-3.77zm-92.963-3.532h.003c.369.04.756.082 1.19.127 3.666.338 6.525 1.82 6.525 5.667 0 3.327-2.626 5.744-7.85 5.744-5.445 0-7.892-2.521-8.825-4.95h3.902c.744.996 2.229 1.987 4.923 1.987 2.807 0 4.289-1.065 4.289-2.547 0-1.768-1.3-2.34-3.197-2.574l-3.275-.338c-3.665-.337-6.29-2.13-6.29-5.432C55.851 10.976 58.84 9 63.232 9c5.658 0 7.844 2.624 8.453 4.95h-3.629c-.626-.888-1.97-1.986-4.824-1.986-2.521 0-3.847.857-3.847 2.209 0 1.247 1.066 1.975 3.015 2.21.744.067 1.368.135 2.056.21zm19.96-2.643v3.223h-5.653v7.397h5.687v3.223h-5.687l-3.3-3.3V9.332h3.3v4.617h5.653zm102.196-2.308h-3.327V9.335h3.327v2.307zm-19.398 8.92c0-2.236 1.612-3.951 4.089-3.951 2.39 0 3.973 1.715 3.973 3.95 0 2.236-1.583 4.607-3.973 4.607-2.477 0-4.089-2.37-4.089-4.606zm3.431 7.517c3.016 0 4.335-1.845 4.605-2.365v2.08h3.419V13.984h-3.447v1.976c-.295-.546-1.669-2.262-4.551-2.262-3.527 0-6.435 2.6-6.435 6.863 0 4.288 2.908 7.517 6.409 7.517zm12.64-.286h3.327V13.95h-3.327v13.843zm-78.235-10.542l3.302-3.302h6.947v3.224h-6.947v10.62h-3.302V17.251zm16.509-3.302l-3.302 3.302v10.542h3.302v-10.62h4.864v10.62h3.301v-10.62h4.862v10.62h3.301V13.95H121.56zm79.138 0h-9.469v13.844h3.302v-10.62h6.167v10.62H204V17.251l-3.302-3.302zm-102.35 6.887c0-2.36-1.507-4.17-3.717-4.17-2.209 0-3.743 1.866-3.743 4.17 0 2.303 1.534 4.169 3.743 4.169 2.21 0 3.717-1.81 3.717-4.17zm3.353 0c0 4.223-3.067 7.295-7.07 7.295-4.055 0-7.096-3.072-7.096-7.295 0-4.224 3.041-7.296 7.096-7.296 4.003 0 7.07 3.072 7.07 7.296z" fill="#FFF"/></g></svg>